<svg version="1.2" xmlns="http://www.w3.org/2000/svg" viewBox="0 0 1248 864" width="1248" height="864">
	<style>
		.s0 { opacity: .93;fill: #7461b9 } 
		.s1 { opacity: .97;fill: #edd393 } 
		.s2 { opacity: .99;fill: #545d54 } 
		.s3 { opacity: .99;fill: #443626 } 
		.s4 { opacity: .99;fill: #5f372c } 
		.s5 { opacity: 1;fill: #3d3231 } 
		.s6 { opacity: 1;fill: #9d7f6a } 
		.s7 { opacity: 1;fill: #a9292e } 
		.s8 { opacity: 1;fill: #e13338 } 
		.s9 { opacity: 1;fill: #3c2f29 } 
		.s10 { opacity: 1;fill: #864f2e } 
		.s11 { opacity: 1;fill: #2e2421 } 
		.s12 { opacity: 1;fill: #7a1c2b } 
		.s13 { opacity: 1;fill: #201d1e } 
		.s14 { opacity: 1;fill: #372c26 } 
		.s15 { opacity: 1;fill: #3b2d28 } 
		.s16 { opacity: 1;fill: #18171c } 
		.s17 { opacity: 1;fill: #a78577 } 
	</style>
	<g id="Background">
		<path id="Path 0" class="s0" d="m722 149l3-2 2 2-4 3zm3 9v-2l5 2z"/>
		<path id="Path 1" class="s1" d="m959 138l5-1h7l5 8 4 10 22 35 1 5-22 2v-4l-5-1-13-34-8-10-4-7zm110 58l10-2v8l-2 4-3-1-5-3zm-101 110l4-1 1 7zm-803 392l-2-6 3-7 5-2-5 7zm-112 49l14-3-9 6-5-2z"/>
		<path id="Path 2" class="s2" d="m947 137l5-1 7 2-8 3-4-1zm-226 12l5-7h3l-4 5-3 2zm258 57l10-4 12 2 1 3v1l-3 3-21 1zm-6 89v3l18-1 5-6h2l-3 6-13 2-2 5-1-4-9 2 1-7zm8 24l4-4v4l-7 4z"/>
		<path id="Path 3" class="s3" d="m373 130l-4-10h7l4 6zm674-4v-3l8 3 10-1 12 9-4 4h-5l-12-3zm-216 22l8-4v1l-4 5h-4zm238 18l1-4h7l2 12-10-2zm-806 235v-7h5v8zm-8 23l9-1 1-8 4-1 2 18-4 3-2 17-2 10-6 2-2-27-3-3zm216 60l-10 1v-11l9-22h35l2 12-12 8-4-10-13 1-2 8-5 3zm268 87l12-1 2-4h13l3 12-1 22-42 22-9 2v-13l9-8v-6l-11-7 9-8h5l9-1zm70 103l-12-8-4-13-13-4-2-10 2-11h3l1 11 7 1 1 5 11 7 9 22zm-253 5l17 8h22l6-5 28 1 11-9 16 6 5 14-2 3-37 11-39 1-11-11-19-11zm-385 55l16-2 2 11v72l-13-2-9-7v-31l2-9 2-9 1-7-1-14z"/>
		<path id="Path 4" class="s4" d="m695 157l-6-4 1-4 13-13 16-9 31-2 22 7-4 1-14-5-33 1-18 10-9 9 1 3zm115-8l21-1v2h-20zm-35 3l8-2-1 3zm170 155l5-1-2 7-4-3zm-687 95l5-1 5 1 1 12-4 1-1 8-9 1v-15zm213 82v-10l5-3 2-8 13-1 4 10-13 10zm325 116l6-6h11v7l-17 5zm-5 40l-7-1-1-11h4zm49 20l1-2 18 6v8h6v3l-10 1-7-3zm27 4l16-3 13 9 3-2 7 7 1 7-20 3-7-8v-4l-1-7z"/>
		<path id="Path 5" class="s5" d="m348 111v-1h15l22 6 1 6-6 4-4-6h-7l-17-1zm601 13l-2-3 3-3 27 1 16-9h3l5 4-10 14-7 2h-21l-7-6zm-666 7l29-15-2 7-13 3-6 8zm736 12l-4-3 4-24 28 7v3l-19 2-2 12zm-101-9l16-2 13 5v3l-14 2-13-3zm150 4h5l4-4 18 15-6 2-8-5h-6zm-342 4l12-7v2l-9 5zm335 28l3-4h5v6zm-495 41l37-6-2 7-33 3zm-27 3l15-2-3 8h-6zm621 28l-3-11-11-9h-5l-4-8 39 19 4 6v3h-1zm-975 2l6-18 2 10-4 8zm197 1l24-8-1 7zm549 99l6-4 9 11-2 4h-4zm-670 49l3-15 6 5 1 8-3 3h-5z"/>
		<path id="Path 6" class="s6" d="m999 211l3-3v3zm-26 84l4-19h5l2 4h14l-2 11-5 6-18 1zm3 28h-6l-5-5 2-12h1l5 6zm-805 427v-14l1 14z"/>
		<path id="Path 7" class="s7" d="m768 133l4-1 10 5 1 7-3 1-8-2-4-7zm33 18l2-3 7 1 1 1v6h-6zm-113 23l9-4 4 3v5l-1 5-13-3zm204 60l17-6 2-14 3 4 1 5-16 19h-3zm-126 79l3-1 1 24-2 7-9-7v-4l7-3zm-31 17v-12h4l-1 11zm19 52l2-13 12-1v11z"/>
		<path id="Path 8" class="s8" d="m695 151l-1-3 9-9 18-10 33-1 14 5v3l-12-2-18 1-12 7-5 7-1 3zm144-6l16-2 11 6 14 15 13 19 14 22 4 9-2 14-17 6-2-2-3-6-12-20-36-40-3-6-17-2h-1l-7-2v-6h20 4zm-77 33l-20-1-3-3 1-4 31-10 20 3-16 10zm-62 5l1-5h18l8 9 19 11 3 6 11 42 1 10 8 56-3 1-7-15-12-13-3-14-3-3h-9l-1-28-7-31-8-15zm35 147l3-1 1-11 9 1 11 13v4l9 7v25l-12 1-2 13-13 14-5-1-2-8v-7z"/>
		<path id="Path 9" fill-rule="evenodd" class="s9" d="m312 116l19-5h17l4 8 17 1 4 10-14 7-2-5h-13l-16 5-28 17-3 6h-7l-18 13-41 40-24 34-8 20-1 15-7 4-7-3-2-17 1-3 2-19h4l4-8-2-10 9-20 17-22 35-33 31-20 8 3 6-8 13-3zm672 14l7-2 10-14 18 2-4 24 4 3v37l-6 6h-7l-11-36v-7l-8-3zm42 10l2-12 19-2 9 9 12 3 7 8h6l8 5 6-2 17 21 1 19 7 16 17 9 4 8h5l11 9 3 11-3 5 2 20-1 1-7 1-2 5-39 1-21-4-14-7v-16l-7-7-17-7v-9l4-3 15-1 4-16 3 1 2-4 5 1 4-4v-9l-5-4-4-12-2-12h-7l-1 4h-5l-3 4-19-2-10-12zm-158-4l50-2 2 5 13 3 14-2 4 1 4 7-2 5 12 25v42l-7 2-3-11-7-3-1-7-8-1-9 1-1 7v14l-8 2v-6l-2-12-12-1-14-22 1-17-4-4-10 2-14-15zm-101 49l8-5 24 3 2 3h14l4 6v9l-15 5-7 14h-8l-5-5-5-20-12-3zm-164 20l44-10 2 9-2 8 5 10-3 2-1 15-5 5h-4l-2-4h-9l-11 8-11-18h-9l-12 11-9 3-3 6v13l-6 5-10-3-4-11-6 1-1 15 3 5-6 9h-14l-1-7-9-6-15 4-3-3v-16l-8-8-11 2-5 6-1 7h-7l-2-5-6-3-12 2-4 17-6 5-13 1-3-4h-11l-7 13 4 29-5 5h-9l-7-5-5-13-12 2 1 13-6 11-16 3-3 16-14 8-9 11-6 1 2 6h6l5 6-3 20-8 6v4l-6 6h-5l-4 4h-11l-2 18-7 2-14-10-2-18-1-12v-8l3-3 7-6 7-33-1-9-11-1-6-4v-15l7-9 20-6 42-37 24-16 22-10 23-1 1-7 38-10 95-13 6 6h6l3-8 12-1 2 4 33-3zm157 41l23-6 14 9 6 11-1 4-16 2-10-12-15 2zm87 28v-11l3-3 27-2-2 18-3 7-6 3-15-6zm-318 104v-8l-12-4-7-8v-4l34-1 3 3-1 18 11 8v8l-15-2zm138 12v-12l3-4 17 2-4 8zm-96 2v-7l3-3 19-4 26 3 8 15 1 2-31 2-22-3zm-294 106v-42h6l4 4v8l4 2-1 23 13 9v5l-8 6v13l4 4 28 2 15 9-2 11h-5l-3-7h-11l-3 4-3 6 2 18-2 8 3 5 9-2 10-20h8l6-4v-5l10-11 3-17 15 1 4 4 7-1 14-13v-9l5-5h6v8l-18 32-36 50-23 23-35 20-39 33-71 41-2 21h-4l-16 2-6-36 1-8 5-7 41-20 23-17 15-15 6-15 7-10 4-16 3-5 1-19 3-1v-4l1-7zm503 121l8-1-1 10h-7z"/>
		<path id="Path 10" fill-rule="evenodd" class="s10" d="m780 145l3-1-1-7 21 11-2 3-14-1zm16 461l17-5 6 25 2-1 8 20 2 11 9 4 8 13 7 3 10-1 15 5-1 10-11 2-17-2-22-1-12-5-5-10-9-22-11-7-1-5-4-12 1-10zm-240 73l-16-11-12-13v-13h5l6 5 5-1 30 18 66 10-11 9-28-1-6 5h-22zm309-7h-6v-8h8l12 2 1 7z"/>
		<path id="Path 11" class="s11" d="m738 135l18-1 2 5-20-2zm101 9l2-10 27 2-2 13-11-6-16 2zm-37 16l3-4h6l7 2v1 5h-14zm-40 18l13-5v7l-8 5v5h-14v-2zm159 46l8-2h2v5l-9 5-3-8zm238 43l-2-20 3-5h19l-5 15-10 13zm-694 113l3-11 5-8 4-1 6 4-14 16zm-207 22l3-9 2 1v7zm370-4l-1-2 2 2zm-371 66l6-2 2-10h7l5 4v42l-11 1-7-19zm436 25l5-5h24 16l8 10 3 12-27 2-13 9-8-9zm-256 30l4-1v-9l5-8 12-7 23 4 6 8 14-6 19 6-6 69-10-1-18 4-4-4h-15l-9 3-13-44-4-1 1-5zm288 56l8-6 6 2-1 10-9 1zm-78 32l1-6 7-6 16 1v-7h13l10 6h6l-1 4-13 9h-12l-3-5zm166-6v-7h6l2 31-2 1zm-34 5v-2h3zm86 66l15 1v4l7 8-2 4-6 1 1-10-15-5zm-52 16l4-4 12 5v3h-10zm38 5v-3l17 2zm-662 50l-2-11h4l2 10z"/>
		<path id="Path 12" class="s12" d="m758 139l-2-5 12 2 4 7zm-63 12l25 1 1-3h1l1 3 2 4v2l9 3 8-5 33-4 7 1 1-3h4l14 1 4 5-3 4-11 3-20-3-31 10-1 4 3 3 20 1-9 10-7 1v5 4l-19-11-8-9h-18v-5l-4-3 4-1 2-5-8-7zm-13 26l6-3-1 6h-5zm214 65h3l16-19 4 1 3 8 12 45 1 33h9l4 3-3 11-10 7h-6l-7-7-10-45zm-165 54l1-28h9l3 3 3 14 12 13 7 15v16l-7 3-11-13-9-1h-4zm23 86l14-3v13l-5 10-7 8-14 12-7 12-5-2 1-26 3-19 2 8 5 1z"/>
		<path id="Path 13" fill-rule="evenodd" class="s13" d="m952 136l-3-12h7l7 6 1 7-5 1zm24 9l11-5 8 3v7h-7l-8 5zm30 41h7l6-6v-30h4l11 14 1 11 6 5 4 14 24 2v6l-13 2-1 18-4 3v9l17 7 7 7v16l-14-2-5 9h-23l-13 3-2 3-19-1 2-15 11-2 3-18 8-19v-14l-4-4-17 3-1-3 3-1-1-8-1-5zm-188-28h1v1h-1zm-627 128l7-4 1-15 8-20 24-34 41-40 18-13h7l2 6-41 40-19 31-6 20v23l7 16 16 14 18 4-7 9v15l6 4 11 1 1 9-7 33-7 6-1-8-6-5v-11l-34-13-17-13-17-21-6-14 3-1zm555-92v-5l7-1v2l-2 4zm185 28l17-2 5 6h4l1-4 7-2 4 2-2 20 2 8-15 2-7 7 2 16 8 7v5l-14 8-2 8 4 4-1 3h-9l-1-33-12-45 9-5zm-52 14h6l5-4 2 2 4 8 16 37 10 45 7 7h6l2 9-6 4h-5l-36 61-13 11-1 5-15 16-32 27-10 52v78h-17l-6 6-4-2-9-20-9-1-5-22 3-5-8-29-10-17-1-8-5-4-1-23-11-11 2-20-3-4 7-12 14-12 12-2-5-6 5-10v-49l2-7 13 2 43-18 13-14v-20l12-2 8 7h5l2-5 6-3 3-7 2-18zm270 38l2-5 7-1 2 6-6 6zm-462 102h6l20-23 6-20 3-33 2-4h7l4 22v12l-1 50-9 5 3 20 3 1-1 26-5 1v23l8 10v10l-10 4-1 4h-24l-4-4h-5l-32 2-1 3h-12l-7-4-6 1-27-8-19-2-1-3-13-4-2-13-5 2-3 10-35-8-3-5-10-1-17-20-18 8-9 8 1 6-9 22v11l10-1 11-2 13-10 12-8 12-2 5 3-4 41-19-6-14 6-6-8-23-4-12 7-5 8v9l-4 1-2-2v5l-29 60-31 39-59 43-61 28-21 16-10 16-5 21 1 16 8 19v9l-6 10-13 11-11 5h-9v-72l4-1-2-10 2-21 71-41 39-33 35-20 23-23 36-50 18-32v-8l6-4 9-21 35-99h4l14-16h12l20 8 7 6h7l13 10 15 2 14 2 4 5 22 3 31-2h1l33-4 5-4 16-6zm-416 190v-5h3v4zm453 16l1-7 4 7zm-77 25l24-4 3 5-1 8-11 2-3-3h-15zm193 53l-9-4-2-11 12 13z"/>
		<path id="Path 14" class="s14" d="m964 137l-1-7h21l3 10-11 5-5-8zm-146 22l1-1 17 2 3 6-3 7h-8l-10-9zm-72 35h5l2-4h14v2l-3 5-15 7-3-6zm309 28l1-18 13-2 5 3-4 16zm-126 0v-14l12 2 7-2 7 3 3 11-1 4h-4l-5-6-17 2zm-14 1l-1-5h7v6h-2zm-64 61v-4l15 6-2 5h-5zm-374 76l2-8h10l6 6v6h-12zm-212 92l2-17 4-3 14 10-2 14h-6l-5-4zm1 47l11-1-2 56h-4zm443 18l13-9 27-2 11 36h-9l-4-5-17-3-2 7-4 2-3-2-3-13-2-3-3 1zm-251 60l9-3h15l4 4 18-4 10 1 5 37-14-2-12 13 4 18 12 12 3 14-41-22-10-9zm321 27l-5-27 9 1 9 20h-8l-2 6zm-105 4h12l-3 8h-10z"/>
		<path id="Path 15" class="s15" d="m791 163l11-3 2 4h14l10 9h8l3-7 36 40 12 20-8 3v7l-2 22-27 2-3 3v11l-8 1v11 20l-13 14-43 18-13-2-1-24-8-56 15-2 10 12 16-2 1-4-6-11-14-9-23 6-11-42 15-7 3-5 12 3 5 20 5 5h8l7-14 15-5v-9l-4-6h-14l-2-3-24-3v-7zm89 1l10-2 4 4-1 17zm-233 31l35-18v3h5l13 3 16 11 8 15 7 31 1 28-1 28h-7l-2 4-3 33-6 20-20 23h-6l-17-2-3 4v12l-5 4-33 4-2-2-8-15-26-3-19 4-3 3v7l-14-2v-8l-11-8 1-18-3-3-34 1v4l7 8 12 4v8h-7l-7-6-20-8v-6l-6-6h-10l-2 8-4 1-5 8-3 11-35 99-9 21-6 4h-6l-5 5v9l-14 13-7 1-4-4-15-1-3 17-10 11v5l-6 4h-8l-10 20-9 2-3-5 2-8-2-18 3-6 3-4h11l3 7h5l2-11-15-9-28-2-4-4v-13l8-6v-5l-13-9 1-23-4-2v-8l-4-4 2-14 7-2 2-18h11l4-4h5l6-6v-4l8-6 3-20-5-6h-6l-2-6 6-1 9-11 14-8 3-16 16-3 6-11-1-13 12-2 5 13 7 5h9l5-5-4-29 7-13h11l3 4 13-1 6-5 4-17 12-2 6 3 2 5h7l1-7 5-6 11-2 8 8v16l3 3 15-4 9 6 1 7h14l6-9-3-5 1-15 6-1 4 11 10 3 6-5v-13l3-6 9-3 12-11h9l11 18 11-8h9l2 4h4l5-5 1-15 3-2-5-10 2-8zm282 13l1-7 9-1 8 1 1 7-7 2zm-22-3l12 1 2 12h-7l-3-4zm-183 338l4-2 2-7 17 3 4 5h9l3 2 3 22h-13l-2 4-12 1-6-2-1-10zm-24 52l15-5 11 7v6l-9 8v13l-58 7v-10l3-3 11-2h10l3-8 13-9zm82 9l2-6h8l4 2v6l-8 12-8 1-1-13zm-270 63l-3-14-12-12-4-18 12-13 14 2 10 20 15 14-5 1-6-5h-5v13l12 13 16 11-3 8-17-6zm317 25v-3l22 1v3z"/>
		<path id="Path 16" class="s16" d="m297 160l3-6 28-17 16-5h13l2 5-28 9-32 20zm722-17l7-3 6 16 10 12 19 2 8 2 10 2 4 12 5 4v9l-4 4-5-1v-8l-10 2-24-2-4-14-6-5-1-11-11-14h-4zm-54 77v-42l-12-25 2-5 8 10 13 34v10l3 4-1 6-1 64-4 19h-2l-8 1-13 10-5 1-4-4 2-8 14-8v-5l-8-7-2-16 7-7 15-2-2-8 2-20zm15-65l8-5h7l11 36-4 4zm22 52l17-3 4 4v14l-8 19-3 18-11 2 1-50v-3zm-123 29v-7l8-3 3 6-5 4zm120 40l19 1 2-3 13-3h23l5-9 14 2 14 7 21 4 39-1 5 6-6 5-13 1-40-3-17 2-2-3h-6l-43 8-29 1h-2l2-11zm159-8l1-1 5 3-4 4zm-319 18v-11l8-1 4 6v4zm-649 20l-6-23 7 3 2 19zm541 100l-3-1-3-20 9-5v7zm25 4l7-8 5 6zm-286 42l-1-6 9-8 18-8 17 20 10 1 3 5-2 9-5-3-12 2-2-12zm252 32l1-4 10-4v-10l-8-10v-23l5-1 5 2 3 4-2 20 11 11 1 23 5 4 1 8 10 17 8 29-3 5-3-11h-3l-3-2-11-36-3-12-8-10zm-161-20l3-10 5-2 2 13zm95 21l1-3 32-2h5l4 4-5 5zm-385 76v-7h4l-1 7zm388 70h-19v-3l8-3-5-1 1-9h15l3 3-3 3zm154 57l-3-2-1-12h3l5 10z"/>
		<path id="Path 17" class="s17" d="m979 206l-3-4v-10l5 1v4l22-2 1 8-3 1-12-2zm-1 6l21-1h3l-1 50-2 15-1 4h-14l-2-4h-5zm-8 90l9-2 1 4 1 15-3 4h-2l-3-11-1-7-4 1h-1zm-714 314l11-26-4 16zm-85 141v-7h1z"/>
		<path id="Path 18" class="s1" d="m980 234l16 2-16 15z"/>
		<path id="Path 19" class="s9" d="m458 275h9l3 3-2 8-8 2-5-4v-7zm198 16l7 1 1 4-5 1zm-264 151h15l3 7-8 8-1 5h-8l-3-7zm-80 36h5l4 4v8l-11 5-2-7 1-8z"/>
		<path id="Path 20" class="s14" d="m627 338l8 2 1 9-2 7-9-4z"/>
		<path id="Path 21" class="s16" d="m876 301l7 4 3 18-7 2-4-2-3-18zm18 47l7 2-3 10-6 1-1-10zm-88 24h5l9 9 3 13-7 2-11-3-4-16zm-297 8h10l3 9-5 5h-7l-3 3-5 8-1 9-6 3-8-3v-11l9-8 2-7zm359 12l7 2v6l-4 6-6-2zm-313 14h14l6 12-5 3-19-3-5-9zm279 0l9 2v10l-6 2-3-3zm-158 12h7l6 7 2 26-4 2-3 16-7 2-8-9h-6l-8-12 1-8h12l6-5zm-60 12h5l4 6 6 2v15l-10 11-10-3v-12l6-6zm178 28h5l4 4v6l-6 2-4-6z"/>
	</g>
</svg>