<svg version="1.2" xmlns="http://www.w3.org/2000/svg" viewBox="0 0 1248 832" width="1248" height="832">
	<style>
		.s0 { fill: #142e40 } 
		.s1 { fill: #f1f7f5 } 
		.s2 { fill: #baeff5 } 
		.s3 { fill: #f08f75 } 
		.s4 { fill: #d26830 } 
	</style>
	<g id="Background">
		<path id="Path 8" fill-rule="evenodd" class="s0" d="m918 328l-5-1h1 4zm22 0l3-1 6 4v1l-2 1-1-1h-1-1l-6-3v-1h1zm-3 1l-4-1h1 1 1 1zm-48 2l3-1-12 8v-1l5-3 1-1 2-1zm68 4l-7-2h1 1 1 2zm-82 6h1v1h-1zm-2 2v-1h1 1zm-3 1l2-1h1l-10 7h-1l2-2 1-1h1l1-1 1-1h1zm-11 7l3-1v1l-13 8v-1l2-1 1-1 2-1 1-1 3-2zm-13 9l1-1h1 1l-4 3v-1zm-2 2h1v1h-1zm180 1l14-1 18 5h1l1 2 10 1-4-2v-1l4-1 8 7 14 3-1 3 10 7-2 2 2 12h-3-5l-3 1-3-13-9-7-36-12-9 2h-4l-3-7zm-183 1l1-1h1 1l-2 3-1 1h-1l-1 1h-1-1v-1l1-1 1-1zm-8 5l3-1h1v1l-2 1-1 1h-1-1v-1zm-3 3v-1h1 1v1h-1zm-1 0h1v1h-1zm-2 2l1-1h1v1l-2 2-1 1-3 2-1 1h-1l-1 1-1 1h-1l-2 1-1 1-1 1-1 1-1 1-5 3v-2l2-1 1-1 1-1 1-1 1-1 1-2 3-1 2-1 1-1 1-1 1-1 2-1h1l1-1zm177 4l2-1h2l2 1h3 1l1 1h1l1 1 1 1 1 1 2 2-2 10 3 25 28 3 2 21-2 29-22 10v5l-5 5-1 51 3 7-3 3-14 1-22-5 5-7-3-4 2-5-7-11v-1l-2-2-4 4-3-3-1 6-15 7-6 11 5 9h-10l-23 11-4 6h-4l-5 9h-1-1-4-3l-1-1h-1-1l-2-1h-3-1-1-1-1l-1-1-1-1-1-1-1-3v-1l-3-5h-19l17-7 4-20 28-24 2-5 17-11 24-26 7-2 5-4v-4l19-14 4-15-1-32 1-4h3l2 1 1-1 1-1v-6-2l-1-1v-1l1-3 2-1h1v-2zm-200 13l1-1h1 1l-6 5v-2l1-1 1-1zm-46 2l1-2 19 2 2 10 7 1v7l-2-1-1 4v-4h-4l-3 4 2 2-8 2-4 5-19 3-22 8-3 24-2-14 3-14 20-5 6-13-4-11-19 9v-2l1-1 2-1 1-1h1l3-3 3-3h1l1-1 1-1 2-1 1-2zm-45 8l1-1h2 7l-2 6h-4l2 3v2h1 2l2-1h1 2l-4 4-7-2-2-8-8 3 2-3 1-1 1-1 2-1zm378 4l4-1h1 1l-1 6h-8l2-5zm-389 4h1v1h-1zm-5 4h1v1h-1zm431 27l1-1h1v1 1l-2 1h-7l5-2zm7 0l2-1v6h-1v-3l-1-1zm110 32h-3l1 5-3 2-4-14 2-4 5 1-4-8h6l-3 2 3 3-1 4h3l1-4v8h-1-1zm-533 37l8-1 21 5 5-5-3-17-20-14v-18l6 17 51 4-1 4 4-1-2 5-2 10-3 1 1 5-6 3-4 9-15 2 14 1 2 3 1 1h1v2 2l1 1h1 3l-1 2-1 1v1l1 1h1l1 1v1 4l-1 5v3 3l1 1h1l5 7-7 3h-1l-1-1h-4-1l-1 1-2 1h-1-1-2l-5-1h-3v-3h-4l3-4 4 5v-7h-3l4-21-4-11zm-678 85l-8-9v-17l18-14 26-9 6-9v-14l-16-18 8-37 9 2 1-2 2 4h6v4h3v19l-4 84-1 34 5 29-1 16-6-4-4-9-6-27-3-2-5 8-10-2-15-14 1-5zm1213-123v-3h1v3zm-1076-1l2 8 7 1 6-4-1-6 6 2 15-2 15 10h5l4-8 14 1-2 9 8 4-6 51 1 5 3-3 2 17 1 12h-3l2 4-4 4-2-3v16l6 20-7 14-3-1-1-1-9-4-2-7-10-2-1 4-1-3-7-2-3-6 5-6 12-3 6-5 6-43 5-11-1-15-9-13-4-17-4-1-24 23-6 2-7 16-7 2-8-4 1-51v-2zm146 5l1-3h1v7l5-6 1 7 18 1-2 15 12 17 1 10 5 8-15 13-3 9-7-4-2 5h-8l-7 4-1-2-3 2-7 13h-7l-1 5-12 2-1-4h1l1-6 2 3 4-3 3 3v-11l-2 1-1-6-5 5-4-7-4-25v-1l1-4-1-7 3 1 4-4 4 2 1-3 4 3v-3l9-1 3-6h4l2-14-7-5 2-6-2-3 5-1v-1h2l1 3zm-317 5l15-6-5 14-10 13zm629 22l2-1 3 1-2 2zm63 4l-6-3 6 2zm-66 18l-5-2-1-8-6 1v-3h4v-5l2 2 3-4-1 4 3 3-1-7h2l1 5 1 4-4 1zm74-15h6l-3 1h-1zm-440 28l-1-27 4 9v28l5 6 2 19-1 8-5 1-4-15v-28zm876-15v-9h1v11zm-509 4l-1-2h3zm426 35l1-2v2zm-942 15l-2-6 4-2zm-1 37l-2-29 3-2 2 16zm-110-25l3-1 14 8-7 5h-10z"/>
		<path id="Path 22" class="s1" d="m322 22l14-6h16l10 3 3 1 3 1 5 4 1 1 1 1 2 3 3 3 1 2 1 1 1 1 1 1v1l1 1 1 1 3 2 9 3 3 6-10 7 1 7 14 3 6-7 10 2 4 3 13 2 4 4 3 6 6 3-1 9h-14l-8 6-25-4-4-5-18 3-7-4-29-1-8-3-5 3-32 3-7 9h-1-1-1l-11-2-10 4-4-2-1-1h-2-1v1l-1 1h-4l-2-2-4-3-1-1-2-1v-1l-1-1-1-1h-1l-7-1 3-9 12 2 13-7 4-2 4-1 1-9 1-2 1-2 2-3 2-2 1-1 3-2 2-1 3-1 6-5 1-1 2-1 10-1 2 1 2 1 6-1-1-11 2-5zm468 7l3-1h12l5 2 9 9-1 5h-4l-1 3 6 21-14 11-1 9-7 7-33 5-9 6-17-1-33 8-9-1-12 6-26 5-16-2-5-5 25-9 3-3 2-3 5-4h7 14 3 3v-17l3-6 10-7h8l2 1 6 5 1 1 2 2 17 3 4-9 3-3 5-3-2-16 1-2 2-3 1-1 1-1 1-1 1-1 1-1 2-1 15-4 2-1 2-1zm76 51l4-1 12 2 6 8 10 4 4 11 12-2 19 9-32-2-10-5-1-4-13-5h-25l-2-7 10-1zm-201 142l12-1 12 6 4 10-2 6 14-3 5 4h14l-1 2-10 3-35-3-20 5-8-1-1 3-4-2-22 3 16-8 8-15 12-1z"/>
		<path id="Path 29" fill-rule="evenodd" class="s2" d="m336 15l8-1 7 1h1v1h-16zm-7 2l3-1h1 3l-14 6v-1l1-1 2-1 2-1zm33 2l-10-3h5l3 1 2 1zm3 1l-3-1h3zm3 1l-3-1h2 1zm5 4l-5-4h1 1l1 1 1 1zm-53-2l1-1h1l-2 3zm-2 3l1-1h1l-2 5v-3zm59 4l-2-3 2 1zm416-2v-1h1 11v1zm-3 1v-1h3zm20 1l-5-2h3zm-23 1l1-2h2zm-470 9v-10h1l1 11-6 1zm63-7l-3-3h2l1 1zm282 74l-25 9 5 5 16 2 26-5 12-6 9 1 33-8 17 1 9-6 33-5 7-7 1-9 14-11-6-21 1-3h4l1-5-9-9h2l1 1 1 1 1 2 2 1 2 1 1 1 1 1 1 1 2 5v1l1 2 1 1h2 7l1 1 1 1h1l1 1 1 1 1 1v1l1 2 1 1 1 2 1 1 1 1 1 1v6 1 3 2l2 2 1 1 1 1 1 1 1 1 1 1 1 1 1 1 1 1h2l1-1 1-1 1-1 1-1h1 2l-6 7-10 1 2 7h25l13 5 1 4 10 5 32 2-19-9-12 2-4-11-10-4-6-8-12-2v-1l3-1h3l5 2 2 1 1 1 2 3 1 1 1 1 2 1 1 1 2 1 3 1 1 1 2 1 1 1 2 3 1 1 1 3v1l1 1h2 1l1-1 1-1h1l7 1 1 1h1l1 1h1l1 1 4 1 5 1 2 1 2 1 1 1 7 3-4 4-23 5h-1l-4 1h-3l-11 1h-3l-9 1h-7-8-3-8-7l-2 3-2 1-3 1-3 1-3 1-3 1-3 1h-1l-3 1h-1l-3 1-2 1h-2l-2 1h-2-13-1l-4-1-2-1-3-1-3-1h-1-1l-3 1-3 1-3 1h-3l-3 1h-10-9-4l-3-1h-3l-4-1h-1l-2-1h-1l-2-1-2-1h-1l-3-1-13 1h-1l-4 1h-1-9-8l-4-1h-1l-2-1h-2l-11-3h-1l-5-1h-1l-2-1h-1l-24-4-4-2-1-5 1-1 2-1 6-1 6-2h1l4-1h1l2-1h1l1-1zm-281-72l-1-2h1zm389-1l2-1h11l-15 4zm-389 1h1v1h-1zm1 1h1v1h-1zm1 1h1v1h-1zm383 1v-1h2zm-467 2l2-1h8v1l-10 1zm12 1l-2-1h2zm-14 1v-1h2zm16 0l-2-1h2zm76 1l-3-2h2l1 1zm-93-1h1v1h-1zm-3 2l1-1h2l-6 5v-1l1-1 1-1zm108 8l-3-6-9-3h2l5 1h1l2 1 2 1 1 1 2 1 1 1v1l2 3v1l-2 12 8-6h1 1l6 2 1 2-10-2-6 7-14-3-1-7zm358-8l1-1h1l-2 3zm-472 5v-1h1 2zm470 10v-11h1l2 16-5 3v-1l1-1 1-1v-4zm-475-8l1-1h2l-3 2zm-1 1h1v1h-1zm-2 3v-2h2zm-2 1l1-1h1l-2 3zm-1 4v-2h1zm-1 2v-2h1zm-2 4l1-4h1l-1 9-4 1zm153 1l-4-3h2l1 1 1 1zm286 0v-1h1 6 1v1zm-273 2l-13-2h4 2 5zm267-1l2-1h4l-10 7-3 6v17h-3v-1l1-6v-6-1l1-3v-1l1-2 1-2 1-2 1-1 1-1 1-1 1-1zm16 0l-2-1h2zm30 0l1-1h2l-3 3zm-24 5l-6-5h2l1 1 1 1 1 1zm-285 0l-4-4h2l1 1 1 1zm307-1l1-2h1l-4 9-17-3h2 2 9l3 2 1-3zm-484 2l1-2h3zm28 24l7-9 32-3 5-3 8 3 29 1 7 4 18-3 4 5 25 4 8-6h14l1-9-6-3-3-6 2 1 1 2 1 1 2 1 4 3 1 1 2 3 2 1h1l2-1h5l2 1h1l2 1 1 1h1l1 1v1l1 1 1 1v1l1 1 1 1 9 3 22 1 2 4-3 1-2 1-25 3h-1-3-2-2l-1 1-1 1-1 1h-3-1-2v1l-3 1-2 1-1 1h-1-2-1l-2 1-1 1-1 1-1 1-15 4-16-1-3-1-1-1-1-1v-1l-1-2-1-1v-1-1l-1-1-1-1-1-1-2-1h-2-4l-1-1-1-1-1-1h-2-1l-1 1h-2l-1 1-2 1h-1l-1 2-2 1v1 2l-1 1-1 1v1l-2 1-1 1v1h-1-2v2l-18 2h-3l-3-1h-2l-2-1h-1-10-5l-1-2-1-1-1-2-5-4-1-4h-1v-1-1l-1-1-1-2-1-1-1-1-2-4h-4-1-1l-1-1-1-1-2-1h-1l-4-1-5 4zm-35-23l5-1h2l-13 7-12-2-3 9 7 1h-5l-5-2 6-10 13 2 2-3 2-1zm472 1l-2-2h2zm135 4v-1h1 3zm-596 20l10-4 11 2h-5l-1 1h-1l-1-1h-2l-7 3-1 1zm397-1l4-3h8v1h-7l-5 4zm-2 3l1-1h1l-2 3zm1 118l2-1h6 1l1 1h1v1l-12 1zm23 7l-12-6h2 1l3 1 5 3zm-27-4l1-1h2l-6 8-12 1-8 15-16 8 22-3 4 2 1-3 8 1 20-5 35 3 10-3 1-2h-14l-5-4-14 3 2-6-4-10h2l1 1 2 5 1 2 1 1 2 1 9 1h1l1 1 2 1 7 2 3-2h1 1l3 1 11 4-1 5-16 1-12 6-48 4-12-1-7-4-5-1h-3l-4 1h-1l-1-1h-2-3l-1 1-4-2 3-3 3-1 17-8 1-6 1-2 4-4 13-3 1-1 1-2zm-94 170l1-1 3 1 1 1 2 3v1l-2 2h-1l-5-2h-1v-1l1-1v-2zm363 435v-1h1l2 2v1zm4 2h1v1h-1z"/>
		<path id="Path 36" fill-rule="evenodd" class="s3" d="m829 319l-6 2v-4h1 1 1zm49 4l15-3-1 2-1 1-1 1h-1l-1 1-2 1-2 1-1 1-1 1-1 1-2 1-3 2h-1l-1 1-2 2-2 1-1 1-1 1-1 1h-2l-1 1-1 1-2 1-1 1-1 1-2 1-1 1h-1l-1 1-1 1h-1l-1 1-2 1-1 1-1 1-2 1-1 1-1 1-1 1h-1l-1 1h-1l-1 1-1 1-1 1h-1l-1 1-1 1h-1l-1 1-1 1h-1l-1 1-1 1-2 1-1 1-2 1-3 1-3 1-1 1h-2l-2 1h-1l-2 1h-1l-3 1h-1l-3 1h-3l-2 1h-3l-2 1h-3l-2 1h-1l-4 1h-1l-3 1h-2l-2 1h-4l-2 1h-4l-3 1h-2l-2 1h-1l-3 1h-3l-2 1h-3-1l-4 1h-3-1l-3 1h-3-2-1l-4 3h-1l-3 1h-2-1l-1 1h-5-1l-1 1h-1-1l-1 1h-1l-2 1h-1-1l-1 1h-1-1l-4 1h-1-3-1l-5-3 1-7-7-5 4-7 2-1 2-1 2-1 1-1 2-1 1-1h1l4-3 3-2 1-1 1-1h1l2-1 1-1 2-1 2-1 1-1 4-3h1l4-5 2-1 4-2h2l5 3-1-5h1 1l3-1h2l1-1h1 1 1l1-1h1l1 1 1 2 2-1-2-1v-1l1-1h1l1-1h1 1v-1h2l2-1 12-4 11-4 2-1h1l9-2h1l3-2h2l2-1h2l2-1h1l1-1h2l2-1h2l2-1h1l3-1 6 2v1l-1 1-1 1-1 1h-1l-1 1-1 1-2 1-1 1h-1l-1 1-1 1-1 1h-1l-2 2-1 1-1 1h-1l-1 1-1 1-1 1h-1l-1 1-2 2h-1l-11 7 18-5 4-1 3-1 3-1h2l2-1 1-1h1 1l1-1h3l1-1h2l12-5 4-1h2l7-2h1l2-1 2-1h3l2-1h2l16-5zm-166 32h1v1h-1zm-105 37h7l-1 10 4 5-2 8-10 4h-3l-4 1-5 1h-3-1l-2 1h-2l-1-2 6-2-4-2 4-7 1-1 4-1 1-4 1-1 2-1 1-1 2-3 3-4zm-105 216v-1h2l-2 2zm-10 16h2-1zm8 0v-1h2v1zm6 0v-1l7 1zm11 0v-1l2 1zm-73 2l2-2h3l1 1zm75 0v-2l1 2zm-78 3v-3l1 1v3h-1zm79-1l5-2 3 6h-3l-1-4-4 1zm-37-1h1v1h-1zm-2 1h1v1h-1zm37 0h1v1h-1zm1 1h1v1h-1zm-79 1h1v1h-1zm42 0h1v1h-1zm36 0h1v1h-1zm10 3v-1l2 1h-1zm2 1v-1h5v1h-1zm9 4l-1-4 3 1-1 3zm4 1l6 2-3 1zm-61 1l1-1h1v1zm60-1h1v1h-1zm-99 4v-3l1 8h-1v-1-2zm39 3v-6 3zm61-4h1v1h-1zm-31 4l-2-1 2-2zm77-3h1v1h-1zm-51 3v-1h2 1v1zm-96 3h1v1h-1zm101 0h1v1h-1zm-19 7l3-3v1l-2 2zm-41-1v-1h2zm47 5l-1-2h2 1l-2 3zm-47-1h1v1h-1zm51 3l3-3-1 3h-1zm-50 6h1v1h-1zm68 5h1v1h-1zm1 1h1v1h-1zm1 1h1v1h-1zm-42 1h1v1h-1zm45 1h1v1h-1zm-44 5v-2l1 2zm3 1h1v1h-1zm-79 6h1v1h-1z"/>
		<path id="Path 38" fill-rule="evenodd" class="s4" d="m810 374h1v1h-1zm-297 213l6-1h1l1 1 1-1h12l2 2h1l1 1-1 7v7l-2 1h-2l-1 1v1l1 1h3l1 1h19l-9 3 8 1h4l7-2h2l5-2 1-1v-1l2 2v-5l-1-4v-1l2-3 1-1v-1l2-2v-2h1l15-1 3 5v5l-2 2v3l-2 8h6l1 3 1-3h3l2-5 1-2 1 6v1l-1 1v1l-1 1-4 7-2 1v1h1l-1 2-1 1-1 2-1 1-2 3h-1v-5l-10 1h-1l-3 7-3 1h3v2l-1 1h-1l-1 1h-1v1l8 4h3l1-1v-4h1l3-1v1l2 3 1 1v2l4 1 2 1v3h2l1-1 1 1h1v2l1 3-1 3-4 1-3-1-11-3v-1l-4-3-5-1-8-1-1 5-3 4 6 5 1 2 2 2 2 3v3h-1l-8-4h-4l-4-2v-1h-1l-5 1-4 1h-1v5l2 2v8l-2 1h-2v-1l-3-2-11-1-1-1 4-1-4-4-7-5-9 2h-2l-1-1v-1l-1-1v-6l-1-1v-1l-1-3v-4l-1-7v-4h5v7l1 3v3h7l4 2-3 2 8 2h1l3 1 3-5h-10l-1-2 15-2-1-5-7-3h6l-2-1h-1l3-2 1-1h2l3-1-6-2h-1l-1 1h-1v-2l1-3-3-1h-1l-2-1h-5l-2-1-3-6-5 2v-2l-1-2-2-1-1 1h-3l-7-1h-4v-8l-2-2h-3l-2 1-1 2v3l-1 3h-5l-3-5-2-2v-1l2-3 3-2h4l2 1 2-1h6l2-2v-3h1l3-3 1-2v-5l1-2v-2l1-1v-1h1zm-57 39l3-2h5l1 1h3l15-1v3l-2 1v1l1 1v1l1 8-1 1v6h1l6 5-4 3h-2v1l2 3-2 1v1l1 2v10l-1 2-1 1-2 1h-7l-5 1h-6l-5-4-3 5-6-1-3-3-1-15v-2l-1-7 1-2-1-8-1-10v-3l2-1 6-1h3l2 1zm139 9l1-3v1zm-1 2h1v1h-1zm-107 25l1-2v2zm68 17l-1-2h1zm-28 2v-1h7v1z"/>
	</g>
</svg>