<svg version="1.2" xmlns="http://www.w3.org/2000/svg" viewBox="0 0 1248 936" width="1248" height="936">
	<style>
		.s0 { opacity: 1;fill: #397f67 } 
		.s1 { opacity: 1;fill: #5c7c48 } 
		.s2 { opacity: 1;fill: #d99c51 } 
		.s3 { fill: #3a443f } 
		.s4 { fill: #235d4b } 
		.s5 { fill: #2b4e88 } 
		.s6 { fill: #694234 } 
		.s7 { fill: #1e676e } 
		.s8 { fill: #1a74cc } 
		.s9 { fill: #c95737 } 
		.s10 { fill: #278dd6 } 
		.s11 { fill: #4198ca } 
		.s12 { fill: #8e865c } 
		.s13 { fill: #a97f4f } 
		.s14 { fill: #829485 } 
		.s15 { fill: #ef7d67 } 
		.s16 { fill: #bda375 } 
		.s17 { fill: #adc1aa } 
		.s18 { fill: #e2bd80 } 
		.s19 { fill: #f4bb5b } 
	</style>
	<g id="">
		<path id="Path 0" fill-rule="evenodd" class="s0" d="m344 286l7-1v10h-5l-3-2zm694 43l3-5 10-1 3 4-10 9zm-153 6h11l2-7h5l3 17 22 6 4 9 1 5-7 7h-13l-4 3-5 15 1 23h-9l-7-1 2-7-4-1 1-3-13-2-10-7 5-3 26 3 1-6 7-8v-15l-3-3-7 1-2 12-4 5h-16l-1-14 2-4-2-7 3-4 11-2 2-4zm-249 63h-7l-2 3-7-3 2-45-3-8 32 2 2 16 4 5-1 4-8 5v7l-10 7-1 5zm307-49l19-1v5h-10l-4 7h-4zm-142 3l2-1 13 1h6l1 9-4 2 2 7-2 5-11 2-1 4-2-1-3-8-5-3 8-6zm-101 16v-7l-4-1 3-7 20 3v3l-7 2v9h-5zm200 56l8-7 6 7h54l4-3 3 13 4 2 108 4 14-4 4 7 10 5 1 4 38 2 6 4 56 6h32v248l-158-3-2 15 10 6 5 8h6l10 8 11 15 2 35-16-1-1-6-6-6-5-23-15-21-17-11-32-4v-24l1-11 5-4 23-2 3-3v-12l-29-8-7-8v-8l4-4h28l4-4v-9l-4-3h-32l-8-8h-12v-14l69 4 7-11v-8l-1-2-3 2-2-11 6-4 2-19 32-1 67-13 7-5v-13l-7-5-45-8h-59l-4 4-8-2-7-7h-14l-8 5h-25l-7 4-8-4v-10l-7-5-3-7-28-2-6-12h-27l-2 3h-7l-8-3-2-20h-7l-3-8-4-2-4-3zm-388 63v-10l7-2 1 2v9zm-24 21l12-2 3 6-3 6-12 2zm242 20l-2-11 5-2 9 5 1 7zm289 41l-3-3v-22h38l3 6 13 2 6 5-1 14-15-1zm-179 87l1-26h11l4 3v23zm-72 39l-2-16 14-4 2 6-1 6-6 9zm192 102l19 2 1-15h14l3 4 17 5 19 2 5 5h16l29-3 7-9h12l8 11v21l-10 1-4 4-1 19-21-3-2-3-20-6-40-4-8 1v15l12 10h10l3 5 67 5v12l-5 7-19-2-3 7-7-2v4l-3 1v-6l-9-5-24 1-3-6-21-1-10-2-6-4h-24zm208 41l-17-8-3-4v-10h32l45 8h23v20zm-852 83l10-1 2 14-2 2h-10z"/>
		<path id="Path 1" class="s1" d="m830 31l-2-31h2l1 31zm357 118l32-40 24-36 5-3v15l-41 53-71 89-2-9zm-995 55l2-4 7 4 2-3 9-1 7 2v4l-7 12-14 1-6-5zm914 48l17-20 7 2-12 15-12 14h-2zm-1048 51l-3-3v-10l9-5 2-5 11-1 2 5h6l-2 8-13 2-6 8zm325 9l13-9 1 8-10 9-3 1zm-181 7v-3l5 2 1 102 8 12h16l-2 8-11 1-1 4-7 3h-16l-3-9-10-8v-7l5-5 1-8h3l5 1 4-4zm119 45l6-5-3 5 8-4v11l-4 4-8 7-6-3v-6l9-7zm395 16l-6 4h-12l9-14h5l4 2zm-646 54v-5l6-5v-19l11-6 1-15h12l3-4 15-6 25 1 5 4 8 14-4 27 5 3 1 8-3 4 5 7v9l4 3 1 14h-15l-15 9-11 1-1-3h-13v-8l-8-1-1-17-5-5v-6l-10 1-6-4zm606-58l10-2 3 20 3 1 6 21-12 1-2 9-5 2-1 4-8 1-2 3-4-2 1-8-20 4-7 2-9-2-3-14 1-4h10l12 2 4-5-1-11 1-7 17 1 5-5zm48 32l-13 4-5-6 5-6v-9l9-5 5 5zm-448-7l2 2 7-4 2 9-6 8-6 4-4-2-1 6-9 7-1-6-4-2 1-5zm876-1l11-1 8 12 15 1v6l-31 2-2-3zm-179 19l-1-10 6-6 38 1 8 4 11-1 3-4 18 2v11h-79zm-374 8l7-4 6 4 2 7 7 1 3 9-23 1zm-53 15l6-2 4 2 3 6-2 5 3 1v2h-6l-3 8-9 1-2-16zm-40 17l-6-11h12v6zm355-2l9-1 4 3 18 6-1 6-19-3-2-5h-7zm-463 23l18-5 4 4v15l14 4v9l2-6h3l11 13 6 2-1 15-46-1-1-2v-7l4-3v-12l-13-2zm82 7l3-3h11l8 5h9l-3 11-8 6-12 2-2-2 2-16zm476 7l2 6h6l6-7v-9l28 2 3 7 7 5v10h-21l-3 4-2 21-3 3h-11v-7l-4-2-7 3-1 8h-3v-3h-8l-2-10h-10l-3 8h-3l-4-10-7 1 1-5-9-1v-8l7-6h5v4l5 2 13-7 7 1 1-5 5-1v-4zm129 18l4-4h59l45 8 7 5v13l-7 5-67 13-32 1-2 19-6 4-11-5 1-14-6-5-13-2-3-6 6-19h23l3-3zm-304 2l5-1 10 1v4l7-2 12 1 2 12-6 7h-18l-1-11-12-4-2-4zm213 56l-1-29 22-1 1 4v22l3 3-2 4-8 4v4zm-588-14h36l3-5 11-3 18 11 56-1 15 6 28 4 21 12 12 1 3 5v1l-42 36-1 15h-7l-2-6-17 16-50 41-21 16-9-21-26-16-23-21-19-37-4-22v-5l12-7v-9l6-5zm242 29l9-1-5 15-4-1zm194 35l8-1 4 5 18 5-5 27h-11v-23l-4-3h-11zm-358 89l9-10 4 1v3h5l-3 2 1 11h-4l-4-7zm544 59l1-31 3-9 8-4 32 4 17 11 15 21 5 23 6 6 1 6v1l-6 3-8-11h-12l-7 9-29 3 8-9 5-4 1-8 4-7v-6l-4-5v-6l-8-7h-19l-1 16-2 4zm-236 45l-1-22 9 1h1l-5 19zm303 31l1-19 4-4 10-1 9 43 14 47v26h-13l-12-34-6-10-11-9 5-7v-12zm-694 24v-2h4v13l9 3v5l-4 3-19-2 10-9zm486 68l5-60h18l6 29v8l-4 2v21zm-609 0l2-4h1v4z"/>
		<path id="Path 2" class="s2" d="m831 31l-1-31h6l1 32zm-28 227v-9l13 1-4 8zm-91 35l4-8 12-10 4 3v5l-6 3-8 11zm173 42l-8-4 2-7 17-2 2 6-2 7zm-519 5l10-8 5 1v9l5 1-3 9h3v4h-4l-1 6h-3l-2-3 1-16-10 1zm-12 29l3-3 3 2 3 11-3 7-5 2-12-1-9 11v10 2h-4-9l-8 7-2-2 21-21v-9l-11 4-1-7 8-7 4 2 4 13 16-15zm332 5v-6h14l7 2-9 14h12l6-4 4-1v7l-9 5v9l-5 6 5 6 13-4h5l13-11h4v5h12l11-12 15-2 2-4 19-4 2 1 3 7 9 7 6 10v6l9 11 2 21-4 4-10 1-2-3-7 2-6 9v9l-5 1-1 4-15 2h-8l-3 9-9 4-6-2-3-12-11 1-13-2 3-10-6-7-4-6-15-5-13-26-6-21-3-1zm168 20l4-3 7 1 10 7 13 2-1 3 4 1-2 7-9 6-4-12h-17v16l8 6 2 6-5 4h-13v-4l-13-15 7-17 5-1zm-560 11l5-5 10 2-4 8-3 1h-3l-4-2zm-47 20l10-7-1 5 4 2 1 6 9-7h6l2 5-5 5v15l7-6h3l1 14-3 3 1 4-2 4-12 1-6 6-7-3-13 10 8-12 19-14v-16l-21 16-7 10-5 3-33 26-5 6v5l-4 3-6-2-5 6-5 1-6 1-15 15-1-7 23-20 1-16 6-5v-6l21-9 5-13-1-6 7-3 1-4 11-1 2-8 2-3 4 4 1-4h7zm398 5l20-4-1 8-14 2zm229 29l3-5 9-2 1-12 13-1 4 3v16l-12 7zm54 22v-6h7l1 6zm-725 32l34-31h4l-3 8-7 2-31 29-4 13-13 12-21 9-2-2 29-27zm478 15l11-1 4 1 1 8h3v7l-6 3-3-2-4 3v-4l-3 1 4 25-12-1-2-7-9 3-1-18-8 4v16h-3v-4l-6 3v19h-6l-1-11-13-2 37-31 6 2 2 9 6-1v-18zm-115 110l1-15 42-36 2 18-35 33-9 2zm264-26l7 1 2-5h13l-2 11-8 1h-10l-3-1zm-340 77l50-41 4 2 1 14-43 39h-5v-3l-4-1zm323-24l5-1h2l1 28 4 4h15v8l-1 11-2 3-20-1-2 12-12 1-5-11-18-4-4-6 5-5h4v3l12-1 8 5 2 5 3-11 7 4v-24l-10-2-3-1v-4zm75 45h-8l-9-5v-23l7-6 3 1 1 7h10l5 3-1 17 8 4zm55-18h5l1-4 5-2v-4l7 3 3 8-2 21-26 1 1-5 7-2zm-587 40v4h5l1-10h5v5l5 1v-13l6 2 2 7h8v28l-3 6-9 3-1 10h-8l-3 5-7-3-1 9-3 3-7-2-1 10-4 3-7-1-4 12h-3l-1-29 7-19 1 6 4 1v-14l2-15 10-13zm112 2l6-1 8 9-10 8-5-3v-6zm357 20h5l10-11 12 2 18 3-3 23 4 16-16 9-11-13h-15v-18h-3zm-454 45l2 8 12 1 9-12h7l5 16v32l-11 5v4l6 2v11 2h-18l-3 3v65h-16v-8l-10-2v-16l3-31 27-27-2-18-17 2-11 11-14 6-9 12-6 1-1 6-8 9v5l-15 12v3l-6 5h-5l-1-7 4-4-3-8 6-10v-11h-6l-4-3 2-10 22-17 33-28h10l9-7zm739 13l10-5 24 47-18 2-7 7-9-43zm-231 51l1-22 3-1 13 1-3 19-1 4zm-231 73l-2-11-34-3-2-12-10-3v-7l4-3-4-20 5 2 4-2 3 13 14-4 2-8h7l1 7 15-1 2 20 9 4h12v26l8 1 3-4 6-43 5 6h12v16l6 7 11 4 3 4v11z"/>
		<path id="Path 3" fill-rule="evenodd" class="s3" d="m344 347l10-5v9l-3 3-8 7-5 2v-10zm-45 64h3v13l-22 19-7 6v-15l5-5zm288 18l12-2 2 18-30-1 2-5 7-1 5-7zm-346 37l7-10 21-16v16l-19 14h-6v-4zm-43 40v-5l5-6 33-26 1 13-34 31zm82-24l7-1 1 9-8 2-6 1v-9zm736 30l7-4h25l8-5h14l7 7 8 2 1 10-3 3h-23l-40-2-5 3-2-5zm-1016 13l64-12 3 15v-16l25-6 12 2 5 4 9-2 20 6-46 35-4 6 31 11 18 1 15-6 10-8 21-9 4 4-7 3v3l17-2 74 6 19-8 1-12-4-7-7-2 1-4 9-4 73 6 45-1 1 2-3 3v29l-6 5v9l-12 7v5l-25 4-54 24-21 14v12l-22-13-266-21v-47l5-1 11-3 3 6h5l7-6-5-5h12l5-4 8-3 2-4-9-6-6 3h-10l-1-14h-3l-2 17h4l-3 4 3 3-5 4-6 2-15-2zm759 11l1-11 4-6 14-2 2 4 12 4 1 11-2 15-5-6-4 3-6-5-2 7h-4v13l-6-2 1-2v-12zm-609 9h6l7-11 14-12h9l3 4-29 27-10 5zm593-18l10-1-1 8 4 4-6 13-6-1-6 3v-14l-4-3v-5h-4v-3zm-29 9h5l2 15-4 14v-10l-6-5zm-696 145l11-2-3 9h-6zm763 6l1-6 10 3 15-1 10 2v24l-7-4-3 11-2-5-8-5-12 1v-3h-4l-2-1zm-357 41v-5l6-2 8 1 6 5-11 8zm64 28l5-8v-6l7 4 2 4 4-6 8 1 5 7 7-1 5 1v5l-9 33-9-4 1-7h-3l-6 9-6-4h-8zm298 13v-9h6l-3-5 7-3 1-9 3 1 6 3-1 7 5 3 1 13 2-17 5-5 4 1 3 5 1 11h3v18l1 22-10 15-16-4 8-6 2-22-2-16-14-4zm105-7l21-1 2 7-2 12-2 62-14-1-13-1 1-12 5-42zm-429 15l11-1-1 24-3 7 3 9-3 1h-4l-3-7zm162 68v-4h6l2-3 4-24 6-5h5l4 4 2 17-3 10 6 9v9l-1 19-4 7-15 1-1-7-1-22-5-13zm-24 32l-3-1-1-6v-25l5-8 9-3-1 7 9 2-2 5 8-1 5 8-1 23-2 8-14 4-3-13-4 2zm74 20l-6-7-1-20 8-22 6-8 6 1 5 12 8-5 1-13 5-1 3 4-1 11 9 10 1 22-10 13h-12l-5-6-6 43-3 4-8-1z"/>
		<path id="Path 4" fill-rule="evenodd" class="s4" d="m837 32l-1-32h2v33zm-686 234l-5-9 6-11-1-6 6-1 2-5 5-2 1-7 6-4 3-13 7-1 1-6 10 3v10l6 5 14-1 7-12h8l1 7 7 7-5 20-4 3-2 14-12 3-2 18h-6v-6l-6-2-1 4-7 1-1 12-6 1-1-9-4-1v-3l-8 3-2-6-6 5v-9zm235-9v-5l-3-1 1-12 7-9 18-1 7 6v4h5l3-8 9-3 11 7 2 14-4 5-7-1-1 6h-4l-1-7-13-2-4 8h-6l-4 4-1 10-1-11-6-4zm-150-17l14-8 6 4 1 5h6l3-6 9-3 6 14 4 2-9 14-7-1-1 7-9 6v11l7 1 1 4 7 2-1 5 4-1-1-6 9-13-1-4 5-1 10 3 3 11 6 5v8l6-1 8-28 13 2 5 6-1 5h4l1 3-1 7 3 2-2 5 4 8-12 4-1 3-7 1v-8l-5-2-5 2h-5l-7 6 1 12 3 3 22 4 12 12v1l-7 5-3-3-1 7-6 4-6 5-1 1-32 27-12 9-19 17-10 7-3-1v-6h-3l-2 11-1 4-4-4-2 3h-16l-8-12-1-102h23l6-9-2-12-1-10 9-10-1-6-9-3zm56 8l5-12 18-2 9 14-1 8-3 2h-6l-3 4-15-2-3-2 2-9zm59 37l-2-7 10-16 16-3 5 3 1 6 5 2-1 4 3 1-3 15-5 1-5 8-11-1-8 3-5-6zm-293 18l6-1 6-8 13-2 7 3 1 12-10 8-17 1zm130 17l14-1-2 89-4 4-5-1zm-188 16h21l19-12 20 3 7 9h21l4-4h61l6-1 13-11h12l4 91-1 8-5 5v7l-7 3-17-3-1-8-5-3 4-27-8-14-5-4-25-1-15 6-3 4h-12l-1 15-11 6v19l-6 5v5l-16 2-2-5-9-3-1-6-15 1-11-3-5-3v-6l-3-1h-4l-4 5zm1031 7v-8l7-6 6 7v14l8 9h4l1 12 8 3 11-1v-13l20-4 16 5 4 5 20 2 74 4 5-4h15l3 2-2 4h11l2 4h4v29l-29-1-2 3h-8l-5-5-8-2-10 10-15-1-8-12-11 1-16-2-30-3-2 8-12-1-8 6-8-1-6-5-14 3-18-2-3 4-11 1-8-4-38-1-6 6 1 10-1 2-4 3h-54l-6-7-3-4-1-23 5-15 4-3h13l7-7-1-5h16l8 12h13l2-3h6l2-5h7l22 7 6-1 1-3v3h11l4-16-3-1zm-383 41v-7l8-5 1-4h8l1 6 10 2-1 11-5 5-17-1zm-208 78l9-2 7 2v5l-11 17h-8l-2-13 5-3zm-20 17l13-9 1 28-14-4zm17 6l17 3 5-3 16-1 1 3h4l8 3-2 16 2 2v12l12-2h7l6-6h16l12-4h5l4-4 25-5 9-3 26 1 1 5 7 2 13 10h6l3 5 5 1 8 4 8-2 4 8-1 10-37 31-8 8-10 7-3-5-12-1-21-12-28-4-15-6-56 1-18-11-1-17 1-15-6-2-11-13h-3zm529 65l2-4h4l14 19 8 5 15 11-1 8 3 6 5 7v14l-4 1v7l4 9v23l5 18 3 2 1 16 4 8h11v24l-8 4-3 9-1 31-35-2-6-4-1-7 3-1 2-12 1-10-24-2 2-41 3-2-2-5-4-30-4-15-11-1h-4l-15-12-25-7-3-2v-9l4-9-6-1 3-6 1-22h5l38 3 2-10 13-6zm-678 92v-12l21-14 54-24 25-4 4 22 19 37 23 21 26 16 9 21-9 8-1 1-7 6-8 7-6-5-8-1-11-5-11 2-9-7v-5l-6-2v-4l-28-30-64-7-5-6v-11zm622 200l2-62h21l13 5 2 12h12l2 71v6l6 8 12 9 12 4 10 1 24 1 4 3-4 5 1 7 9 10 3 14h-127v-21l4-2v-8l-6-29zm206-46v-1l16 1 10 9 6 11v10l3 4 17 8 1 13 15 15 8 20 6 4 9 14 26 14h15v18h-89l2-50-17-32-24-47zm-20 68l-67-5-3-5h-10l-12-10v-15l8-1 40 4 20 6 2 3 21 3z"/>
		<path id="Path 5" fill-rule="evenodd" class="s5" d="m188 300l4 6 10-4 4-7 28 2 2 12-6 9h-23l-5-2v3l-14 1zm-107 15l1 3h10l31-1 6-3 20 1 23-8v13l-13 11-6 1h-61l-4 4h-21l-7-9-20-3-19 12h-21v-19l12-7 7 5 45 1zm1055 41l26 1 17-6h8l1 4h7l6-4 30 2-8 10 8-2-1 7h-15l-5 4-74-4zm-201 119l2-3h27l6 12v9l-6 7h-6l-2-6 1-9-5 1-2 4-4-8-5 2-5-3zm-199 15l-6 1-4 7-10 1-2 3-4-2v-5l3-1-3-5 2-7 22 2 1-2zm67 26v-15l3-5h10l-1 20v1zm-114-5l1-10 5-4h7l4 5-5 3-1 11v1h-4l-5 3zm153-11h27l5 4 12-2v5l4 3-2 5-6 1-42-1zm-842 340v-138l154 15 5 1 4 7 1 78v4l-33 19-11 12h-5l-16 11 3 9h6l24 12 30 10 2 5 7 1 2 5 10 5h9l-2 3 2 2 23 9 8 5 9 1 17 11-4 7v2h-141v-12l-15-6-15-12-20 1-12 13-2 16h-40v-15l13-8 5-10 1-11-14 7v-12l-4-5v-3l-1-1v-5l2-2 11-2 34 5 3 2-2 7h-8v3l-4-1-6 4-6 15 29-19 14-8-4-7-14-5-22 1-27-4v-7l17-13zm184-70l8-3 7 5-1 7h-13l-1 3zm602-1l12-1v5l4 1-2 7 5 2-5 3v6l-9-1-5-6zm-570 131v-3l-9-2-1-19 16-14 1 27 6-3-6 8zm8-4l5-1 2-4 11 1-5 7-9 2-5-1z"/>
		<path id="Path 6" class="s6" d="m368 326l4-2 1 4h4l-1 4-10 8-4-1 1-7-6-1 2-3 8 1zm-27 45l9-7h4v5l-2 6-16 15-4-13 3 1zm-20 18l11-4v9l-21 21-3 1-3-6 4-8zm264 42l-5-4 1-21 7 2-1 21zm-47 0v-8h14l-1 6-9 3zm295 29l30 3h7l2 5 19 3 5 6-71-1-9-4 6-3 7-3-4-2v-1h7zm-655 54l5-1 5-6 6 2 4-3 5 7-14 13-3-4h-9zm514 13l-1-3 5-1v-6h4l-1 10 4 2-3 7h-3l-1-8zm-4 42l-4-25 3-1v4l4-3 3 2v6l-3 21h-3zm-41 15v-19l6-3v4h3v-16l8-4 1 18-5 1 1 10-4 7v2l-9 1zm-435 102l16-9 8-16 16 1 38-19 6 3v11l5 6 64 7 28 30v4h-9v-8l-4-4-17-3-1 14-8 2-1 8-3 15-10 13-2 15-5 7-7 19-4 2-3 10-8 20-4 8 3 14-22 17-2-4-20-4-23-4 14-17-16-4-2-1 2-3 2-5h-5l-4-7h-6v-7l-5-4-19-23-5 2-7-5-8 3v-8l5-4-7-6 2-7-11-11-6-1v-3l6-2-1-14-9-1v12l-4-7-5-1-154-15v-18l15-3h3l2 7h6l3-9 8 7h19l99 9 32 3zm196 32l11-2 11 5-6 2v5l-7 4h-12l-1-11zm395 12l12-1 5 9-3 2-3-2-2 4-9-2h-3zm-297 14l2-11 3-3 5 1 3 15h4l-1-6 7 1-3 10-7 1-5-7zm375 4l15-2 18 2 2 10-4 3-21 1-3-10zm64 11l4-6 19-6 5 7 13 1 1 7 6 4 35 2h10l1 6 7 3 3 11 13 3-8 9h-16l-5-5-19-2-17-5-3-4h-14l-1-17 3-3-17-1-18-2zm-25 8l1-10 3-2 5 1 4 20 13 4v5l-13-5h-10zm-514 45l-5-16h15v5l-8 1zm-5 54v-11l-6-2v-4l11-5 2 3 5-2 3 6-10 4-1 11zm-139 42l-9-6 6-2 3-6 2 5 5-2 3 4z"/>
		<path id="Path 7" class="s7" d="m172 307l9-1 3-5v19h-12zm172 38l-12-12-22-4-3-3-1-12 7-6h5v5l3 1-1 9 8 2v-9l7-1 1 13h16l4 3v4zm618 3l13-1-2-12 15-4v-5l10-1v-5l7-2 11 5 1 6-5 1 3 10 16 3-4 10-4 4h-5l-28 1-4 6h-7l-2-7h-10l-5-4zm82-12l10-9 10 8 16 2 3 12 18 1 6 6 6-3v-3h9l5 7 9-1v12l-20-2-4-5-16-5-20 4-20-1h-4l-8-9zm-393 11l15-3h4v3l15-1 1 10-15 2-6 6v4h-8l-4-5zm277 4l3-3 12 1 1 11h-12zm303 10l8-6h9v14l-15 1-3-2zm-258 58l4-3h79l48 1 4 3h12l-2 6h2l16-9h17l2 3 31-2h62v46h-32l-56-6-6-4-38-2-1-4-10-5-4-7-14 4-108-4-4-2-3-13zm-413 37v-2l56 2 4 1v3l-7 27-3 10-26-1 8-34v-4h-7l-10 41-25 5v-2l7-32zm60 31l7-24 13 28h3l-2 7-4 16h-6l-13-10zm-78-22l9-1v6l-8 32-2 6-12 4h-16l8-20-1-6v-9l16-3zm103 55l4-16 3 1 9 17-8 2zm-239 36v-23l3-3 46 1 1 17-11 3-3 5zm634 144h-11l-4-8-1-16-3-2-5-18v-23l-4-9v-7l4-1h12l8 8h32l4 3v9l-4 4h-28l-4 4v8l7 8 29 8v12l-3 3-23 2-5 4zm92 96l-2-35-11-15-10-8h-6l-5-8-10-6 2-15 158 3v112h-23l-45-8h-32l-6-11zm-926 2l6-5h11l5 4v7l-18-1zm1042 120h-15l-26-14-9-14-6-4-8-20-15-15-1-13 80 6z"/>
		<path id="Path 8" fill-rule="evenodd" class="s8" d="m0 122v-122h828l2 31 1 49-23-1-18-11h-17l-4 8h-10l-14 5-1 11h-24l-22-3-2-22-4-3h-36l-26 7-52 21-10 8v11l21 9h23l24-6 84-6 5 4h16l7-4 18-2 6-6h21l4-4h35l4 30v46l-12 4h-75l-7 4h-34l-14-4h-53l-15-4h-126v-5l-4-1-11 16-17-2-1-16-26 11-17-9-132-10-14-6-35-2-18-7-29-5h-22l-2 4-11 3-23 1-25-4-6-6-23-6h-37l-9-6-6 2zm838-89v-33h410v70l-5 3-24 36-32 40-10-8-8-1-73 16-83 8-46 8-32 1-8 3h-58l-13-4-2-4h-10l-2-10-1-14v-52h31l4-4v-10l-36-2zm369 105l41-53v51h-18l-8 4zm-461 334l11-1 3 12 6 2 16 15 6 1-2 12-5 1-5-4h-22l-1-5-13-4-1-9-3-2-1-8 1-6h8z"/>
		<path id="Path 9" class="s9" d="m821 265l8-1 1 5v4l6 4v5l-12 6-9-6zm-433 59l10-6 1 26 2 8h-15-3l3-9-5-1v-9zm14 4h6l1 7-5 3 2 4-5 2zm-42 40l8-7 8-2 2 3-1 13-14 4zm-26 40v-10l9-11 12 1 1 5h-3l-1 6-4-1v4zm-52 10l13-9 4 2-21 18-2-5zm31-1l8-7h9l2 8h-8l-8 6zm-71 65l13-10 7 3-12 15-10 3-4 9-27 21-5 10-8 1 4-13 31-29 7-2 3-8zm556 6l2-8 16-8 9 4 71 1 9 3 3 5-1 14-11 1-2-4-25 4h-27l-26-4h-10-3zm-641 42l15-15 6-1-1 8-14 12-7 11h-6v-13zm644 30l4-4h9l19 4h26 25l2-3h3l5 5h12l1 6-1 22-3 6-6 6-12 4-33 2h-13l-2 5-7-1-3-1-2-10-7 3v-5l-10-3-7-9zm81 112l4-3 25-3v7l-3 3-15-4-1 12h-10l-1-7-3-1zm-529 41l1-8 8-2 1-14 17 3 4 4v8l-11 1-1 14v13l-5-1v-5h-5l-1 10h-5v-4-19zm498 24l-7-1v-9l8-1zm-683 33l-1-37 6 1 11 11-2 7-8-4 1 22zm756-15l1-19h15l5 23 2 2 1 5-2 14-13-4-4-20zm44-8v-7l23 2-2 12-3 1-13-1zm-509-2l8-4v6l5 3 1 26-11 1-4-26zm396 51l16-9-4-16 3-23h11l7 4 3 10-2 24-8 1-2 4 1 37-17 2-3-4 2-24-5-1zm-522-33l5-7v14l-4-1zm-7 19l1 29h3l4-12 7 1 4-3 1-10 7 2 3-3 1-9 7 3 3-5h8l1 3-7 7-26 23-33 28-3-14 4-8 3 10 7-6-2-24 3-10zm736 9l-13-3-3-11 6 3 16-1-1 8zm-688-4l15-2 5 11-9 12-12-1-2-8zm-96 86l-11-9v-9h-3l2-10 20 4 2 4-2 10zm-16 35l10-7 4 1 4 5v25l-2 4h-32l-1-2 4-7 4-7-2-5 5 1-1-6z"/>
		<path id="Path 10" class="s10" d="m720 108l-84 6-24 6h-23l-21-9v-11l10-8 52-21 26-7h36l4 3 2 22 22 3zm24-16l1-11 14-5h10l3 24-6 6-18 2v-12zm-744 168v-138l32 2 6-2 9 6h37l23 6 6 6 25 4 23-1 11-3 2-4h22l29 5 18 7 35 2 14 6 132 10 17 9v7l-2 4 2 2 26-2 1-6 17 2-1 12h4l6-9h6v-13h126l15 4h53l14 4h34l7-4h75l12-4 4 34v6 40l-10 2-14-4-13-1-30 1-3-4-28 4-80 46-20 3-75 1-13-8h-12l-3-16-9-12v-16l-7-9-1-9-10-2-2-10h-7l-5-4-4 8-10-1-2 7-4 3-8-1-2-5h-12l-6 9-6 1-11-7-9 3-3 8h-5v-4l-7-6-18 1-7 9-1 12 3 1v5l-6 5-5-3-16 3-10 16 2 7-7 1-1-3h-4l1-5-5-6-13-2-2-12 3-2 1-8-9-14-18 2-5 12h-7l-4-2-6-14-9 3-3 6h-6l-1-5-6-4-14 8h-6l5-20-7-7-1-7h-8v-4l-7-2-9 1-2 3-7-4-2 4-10-3-1 6-7 1-3 13-6 4-1 7-5 2-2 5-6 1 1 6-6 11 5 9-3 6h-45l-23-4h-38l-24-8zm1207-122l15 2 8-4h18v88l-13 1-17 11-6 8h-11l-8 4-1 18 8 6 12 3v13l-7 7-12 3-86 2-3-4v-16l20-16v-12l-6-3 12-15-7-2-17 20-16 4-64 2-11 5-22 1-21 5-102 3-21-14-4-47v-4l-1-39h10l2 4 13 4h58l8-3 32-1 46-8 83-8 73-16 8 1 10 8-53 69 2 9z"/>
		<path id="Path 11" fill-rule="evenodd" class="s11" d="m769 76l4-8h17l18 11 23 1 1 16h-35l-4 4h-21zm72 16l-1-16 36 2v10l-4 4zm-121 16v-16h24l4 4v12l-7 4h-16zm398 141l6 3v12l-20 16v16l3 4 86-2 12-3 7-7v-13l-12-3-8-6 1-18 8-4h11l6-8 17-11 13-1v121l-17 8-30-2-6 4h-7l-1-4h-8l-17 6-26-1-9 1-5-7h-9v3l-6 3-6-6-18-1-3-12-16-2-10-8-3-4-10 1-3 5-7 6v8l-16-3-3-10 5-1-1-6-11-5-7 2v5l-10 1v5l-15 4 2 12-13 1-19 1-12-1-3 3-22-6-3-17h-5l-2-6-17 2-2 7 8 4 2 8-2 4-11 2-3 4 2 7-2 4h-28l-5 6h-17l-2-7 4-2-1-9h-6l-2-33 10-31 12-6 6 2 3 36 6 7v-17l17-3 5-4 1-12-6-3 2-16 102-3 21-5 22-1 11-5 64-2 16-4-2 11h2zm-674-14l6-1 6-9h12l2 5-4 10-5 2-5-4-1 14-17 13h-7l-1 7-20 18-8 2-6 11-13 9-9-1v5l-6 4v6l-1 3-8-1-2 3h-1l-4-3h-16l-1-13 1-3 12-4-4-8 2-5h5l5 6 8-3 11 1 5-8 5-1 3-15-3-1 1-4-5-2-1-6 6-5h8l6 4 1 11 1-10 4-4h6l4-8 13 2 1 7h4l1-6 7 1 4-5zm-293 31l11 2v9l6-5 2 6 8-3v3l4 1 1 9 6-1 1-12 7-1 1-4 6 2v6h6l2-18 12-3 2-14 4-3h6l-4 28 9 3 1 6-9 10 1 10-28-2-4 7-10 4-4-6-4 1-3 5-9 1-23 8-20-1-6 3-31 1h-10l-1-3 10-8-1-12-7-3 2-8h-6l-2-5-11 1-2 5-9 5v10l3 3 6 13-45-1-7-5-12 7v-57h18l24 8h38l23 4h45zm391 26h12l13 8 75-1 20-3 80-46 28-4 3 4-34 15-11 10-12 10-4 8-7 4-6 10-14 39-15 1v-3h-4l-15 3-32-2-6-4v-5l-6-3-4-7-17-2-1-6-10 4-6-6h-20l-3-8zm-220-22l-8 28-6 1v-8l-6-5-3-11-10-3-5 1 1 4-9 13 1 6-4 1 1-5-7-2-1-4-7-1v-11l9-6 1-7 7 1 9-14h7l3 1-2 9 3 2 15 2 3-4h6zm508-16l10-2-2 7 2 10h-10l-1-5 4-5zm-38 49l-1-25-6-16 18-4h9l7 1 2 6-6 17-5 24-14 2zm-23 8l-23-33 3-5 20-5 2 5-3 7 14 9 1 14-7 7zm-33-6l7 1 9-4 8 9 1 6-3 3h-20zm-418 3l5-2 5 2v17l-8-2 1-9-3-1zm404 38v-11l3-3h15l4 3v13zm-590 524l-24-12h-6l-3-9 16-11h5l11-12 33-19 7 1 16 3 3 4-21 11-18 4-16 14-3 4zm-92 66l2-16 12-13 20-1 15 12 15 6v12zm241-4l11-15 17 3 7 1v15h-35z"/>
		<path id="Path 12" fill-rule="evenodd" class="s12" d="m831 80l-1-49h1l6 1 1 1 2 43 1 16v33l-4-3-1 4-4-30zm5 92v-14h6l2 10 1 39-5-1zm-395 10l25-3 1 7-26 2-2-2zm81 122l-2-11 10-1v-5l-4-8-6-1 1-14h9l9 12 3 16 4 16h-10l-6-4zm30 36l-3-24h20l6 6 10-4 1 6 17 2 4 7 6 3v5l6 4 3 8-2 45 7 3 2-3h7l1 14h-10l-1 4-16-1v7l-4 1-7 4-12 2 1-21 6-1 3-11 4-11v-20l-6-2v-12l-5-4-6 2-1-3-9 4-4-1v-3l-2 2h-7l-1-8zm679 13l17-8v10h-9l-8 6-8 2zm-283 7l4-7h10l5 4h10l2 7-2 5h-6l-2 3h-13zm70-3h5l4-4 3 1-4 16h-11v-3zm-637 5l1-6h4 19l1 3h7l-4 7-3 1-2-6h-5l-2 12-6 1zm852 8l15-1v9h-4l-2-4h-11zm-596 26l1-5 10-7 5 7-1 7zm-349-4l3 1 9-7-1 14-5 5-7 3-2-9-7 4-2-2zm531 3l4-4 8 9 14 2-7 17-4 3-9-11v-6zm317 22v-19l16 2 1 17zm-80-12l14-3 6 5 8 1 8-6 12 1v14l-48-1zm130 7l10-10 8 2 5 5h8l2-3 29 1v11h-62zm-319 16l-8-6v-16h17l4 12-6 8zm-867-13l4-5h4l3 1v6l5 3 11 3 15-1 1 6 9 3 2 5 16-2 10 1 6 4-7 8-5 1 2 5-3 2-31 1-2 4-10 2-30 1zm512 33l4-1v14l5 3-2-38 3-6 6-1 6 2 1 8 3 2 4 1 4 10-6 7 2 16-6 9-16 3-1-2 4-1 1-7h-13l-5-8 6-5zm-347 20l-1-14-4-3v-9l-5-7 3-4 17 3 7-3 10 8 3 9h16l1 6-5 13-21 9-6-8zm621 4l15-2 1-4 5-1v-9l6-9 7-2 2 3-1 15h4v1l-3 5-6 3-16 8-2 8h-12zm-524 3l6-6 12-1 2-4 6 1v6l-4 1-4 10-6 2v9l6-1-1 9 4 8h8l36-7 1-4 32-6 38-12 1 24 13 2v12l-4 3v7l-45 1-73-6-9 4-1 4 7 2 4 7-1 12-19 8-74-6-17 2v-3l7-3-4-4 13-12 8-1 5-10 27-21 4-9 10-3zm-26-6l5-3h3v4h6l-8 12h-1-4zm-132 9l6-3h13l1 3-5 15-7 7h-9zm711 38l1-20 26 4-2 15-6 1-1 3-5-2zm105-12l3-6 10 1 5 4-13 7-5-2zm-220 12h12l5-8h15l1 7-5 2 2 11v3h4v5h-15-5l-11-7-4-2 1-10zm256 22l1-8 7-3 4 2v7h11l3-3 2-21 3-4h21l8 4-3 9 2 5 5-3 40 2-6 19h-38l-1-4-22 1 1 29-8-5-14-19h-4l-2 4v-6l-8-2zm-206 13l1 5-6 1-1-7zm-750 1l15 2 6-2h5l5 5-7 6h-5l-3-6-11 3-5-4zm952 88v-4l11 1 4 15-7 2-8-9zm-385 0l3 5-11 9v-16h7zm273 28v-12h16 11l1 12-10 7-1 28-7 6-4-5h-6v-8zm-60 7l2-5 4-1 2 10 4 1 6-12 5 1v-6l7-1 3 3-9 13v4l3 1-15 1-10-3zm-12 20l7 1 6-9-2 16 2 1-5 5-6-1zm120 15l16-2h4v5l4 1-3 9-15 1-6-5zm-440 23l6-9 12 1 2 9-1 7-8 4-6-3zm592 31l1-16h19l8 7v6l-21-1zm-624 32l5-10 11 3 3 1-1 6-18 5zm376 17l4-2v11l9 2 1 5-19-4 4-1-3-7zm100 51l1-4h17v16h-18zm-892 6v-8l27 4 22-1 14 5 4 7-14 8-5-2 2-7-3-2-34-5-11 2zm278 3l8-10 4 3-3 10 3 11 3 8-4 4-11-1v-18zm23 28v-3l15-12v-5l8-9 7 1 5 12v13l8 4 2 8h8v16l-1 10h-27l2-2-2-14-10 1-7-1v-3l6-2 8-12z"/>
		<path id="Path 13" class="s13" d="m482 228l8-1 2 4-1 24-6 18-10 6-6-2-1 10-5-2-5 8-7 2 3 8-14 2v3l-7-1 1 11-9 2-1 4-7-1-2 10 4 5h-7v-3h-3l-1-7h-6l-2-16 14-11h4l14-14 5 1v-6l9-7v-4l-5 1-3-7 17-13 1 5h3l-1 5 7 2 1-7 5-5-5-12 4-10 8 1zm291 22l30-1v9l-18 4 6 16 1 25-2 3-7-3-1-14-14-9 3-7-2-5-20 5-3 5 23 33 2 8-2 2-8-4-1-6-8-9-9 4-7-1-4-3v-9l6-4v-4l-6-2v-5l-4-3 11-10zm39 8l4-8 14 4 3 5-4 5-8 1-2-6zm-2 48l5-24 9 6-10 31h-4zm-125 40l14-39 6-10 7-4 6 4-2 14-10 5-2 8 3 4 12 1v7l-9 5v5h12l22 2 10 4 2 7-37-3-20-3-3 7 4 1v7h-14v-12zm-133-6l-15-1-1-31h10l3 8zm168 39l41-11 1-5-4-7 11-2v-7l11-1 2-6h8l4-4 10 3-1 12-2 1-8-1-7 5v7l11 6 5 3 3 8-19 4-2 4-15 2-11 12h-12v-5h-4l-13 11h-5l1-17-5-5zm-353-35l10-1-1 16-8 2-8 7-3-2-3 3v-5h-4l-9 7v-5l4-3-2-2 8-7v3l6 2 3-9zm505 34h16l4-5 2-12 7-1 3 3v15l-7 8-1 6-26-3-1-9zm-570 33l3-1 3 6 3-1 2 2 3 7-5 8-4 1 1 10-5 1-1 7-8 2v3l6 2-8 3-1-8-7 4-1-14h-3l22-19zm598 13l-4-2v-9h9l3 4zm-661 5l2-11h3v6l3 1-1 4zm595-7l4-3 13 15v4l-3 3 1 13 12 3 2 6-30-3-1-13 4-4zm-213 13l8-5 9 2-1 12h-13zm-517 43l-2-12 8 1v8zm20 0l11-1 15-9h15 15l6 8v6l-6 5-1 16-23 20-8 1-1-12-9 4-20-6v-6l-6-4 7-7zm772 22l11-1h5l3 5-7 6v8l-12-2zm-231 30h6v-3l5-2 2 7v18l-6 1-2-9-6-2zm128 6h18l6-7h2l1 15 15 2-1 7-3 1 2 6-19-4h-9l-4 4-4-5-11 5v-10l-4-2 4-3 5 6zm70 12l-1-17 14 3v14zm-142 3l-2-15h15l4 3v9l-8-2zm-27-5l6-3 3 1v15l-4 1v-7l-5-1zm195 11l2-4 7-1 3-4h9l4 9 10 2h-11l-1 9h-5l-1-6h-12zm-224 7l9-3 2 7 2 19-3 9-7 1-4-15h-7l4-7-1-10zm-46 15l8-8 13 2 1 11-6 6h-10l-1-8zm233 29l33-2 12-4 6-6 6 1-4 9v9l3 2-16 5h-7l-13 7-18-5-4-5zm-20 12h10l-1 10-1 26v12l-14 3v-9l-6 2h-2l3-30 11-6zm-776 66v-13l4-5h58l16 4h18l3 23zm-56-2v-10h10l5 7zm372 35l1-14 11-1h9l6 2v5l9 7-4 3 1 11h12l7-4 9 7 1 8 14-10 5 9 6 3-1 6-22 19 5 9-6-2-10-10-12-3-2-4-26 2 3-6v-28h-8l-2-7zm467-4l1-11h6l4 5-5 6zm-380-1v3l5-3 10 2 4-6 6-1h8l4 7h4l-3 11 3 3v16l-7-4v6l-5 8-3-5 1-9h-4l-8-9-6 1-2-9-12-1 1-4h-3zm392 23l1-11 36 6 30 1 7 3-1 19-3 2-1 10-6 1-2-7 4-3-2-10-18-2-15 2h-11l-18-3zm94 22l-5-23 28 4v7l-19 6zm-142-19l9 2 2-4 3 2-1 5 5-2 1 6-4-1-5 5-2 17-1-13-5-3 1-7-6-3zm145 26l-1-5 18 2v4zm-784 37l4 1 1-7-1-27h7l-1 34-3 4-7-1zm327-19h8l6 4 6-9h3l-1 7-9 4 1 18-7 3-4-6 3-9zm619 15l6-3 4 11-10 5zm-247 31l17-2h4l-1 12-3 1-1 22-5 73h-69l7-53-1-15 5-12 47-18zm30 30l3-19 14 1v18zm-893 41v-19h1l4 5v12zm276 1l2-4 11 1 1 7h5v9l14 2v3l-17-3-11 15h-1v-25z"/>
		<path id="Path 14" class="s14" d="m836 158v-14h5l1 14zm-351 24l11-16 4 1v5 13h-6l-6 9h-4zm355 30l5-1 4 47 21 14-2 16 6 3-1 12-5 4-17 3v17l-6-7-3-36-6-2v-5l-6-4v-4h10l-2-10 2-7zm-358 16l2-7 10 1 4-8 5 4h7l2 10 10 2 1 9 7 9v16h-9l-13-10-17 1 1-24-2-4zm236 69l8-11 6-3 6 2v4l-6 4v9l4 3 2 15h20l3-3 8 4 2-2-2-8 7-1 7-7 7 3 2-3 4 5 14-2v13h4l2 33-13-1 1-12-10-3-4 4h-8l-2 6-11 1v7l-11 2 4 7-1 5-41 11-4 1v-8l-4-2v-9l7-2v-3l37 3-2-7-10-4v-13l-4-3h-15l-3 3v11h-12v-5l9-5v-7l-12-1-3-4 2-8 10-5zm-53 71v-4l6-6 15-2v12 6l-10 2-10-2zm321-4l4-6 28-1-3 10-1 3-6 1zm70-5l20 1v13l-11 1-8-3zm-235 11h17l5-6h28l1 14-3 2 1 9-5 3-7-1-4 3-4-9-24-1-4 3 1 4-4 4-9-7-3-7 1-4 11-2zm283 33l2-8 30 3v19l-16 9h-2l2-6h-12l-4-3zm-224 15l9-6 7 1v9l4 2v15l-13 1-1 12-9 2-3 5-4-3-9 1-12-3-1-13 3-3h13l5-4-2-6 7-2zm12 47l12-7v-16l4 2 3 8h7l2 20 8 3v6l-4 2 2 10-3 5-3 6h-5l-3-5h-5l1-14-3-5-9-3-5-6zm-229 35l-12-13-1-5-7-4 1-4 35 2 2-3 24-2 8-7h6l11-11 6 7-3 10 13 2-2 4h-8l-1 6-1 2-22-2-2 7 3 5-3 1v5l4 2 2-3 10-1 4-7 6-1 3 2 1 9 13 4 1 5h22l5 4-3 3-14 2-4 6-1 11-3 2-4-4 1-8-10 1-1-7-9-5-1-7h-15l-5 8h-12l1-11 5-3-4-5h-7l-5 4-1 10-7-1-2 4h-6zm-112-36l3-8h6l-3 14h-6zm215 21l9-4 3-9h8v16h12l5 8h3l-3 5v15l-7 2v-4l-10-1 2-12-6-1zm-254 2l8-1 1 6-8 20-6 6h-7l3-6-3-6 8-6 3-11zm98 10l3-10h7l-2 17-7-2zm259 3l25-4 2 4v16l-8-1 2-5-4-3v-5l-12 2zm-232 14l4-16 8 6-4 16-5-1zm-96-6l2-6h7v2l-4 4zm318 52l-3-5-11-2v-4l18-1h13 7l3 9-2 3zm-250 26l10-7 5 3 1 8v6l-14 9-2-18zm307 62l-1-8h37v5l8 9 3 20 5 4v4h3l2 5-3 2-2 41 24 2-1 10-23-2-28-4h-15l-7-3-30-1-36-6-8 1v9l7 1 1 8-12-2-3-4v-21l2-3h6l5-6 7-6 1-28 10-7h13l1 4-4 4-7 6v23l9 5h8v9l6 5 15-1 3-9 24 1 26-1 2-21-3-8-7-3-8-10-8-4-25-3v-5l3-1 14 2 1-4v-8zm-742 156h10l1-5 5-1-1-19h9v19 8l4 5 11 1-23 3-3-4-16-3zm818 91l-12-4-12-9-6-8v-6h24l6 4zm-656-10l3-3 18-3-3 31h-8l-2-8-8-4zm-120 15l7-6 1 2-1 4 5 1v5l6 2-2 8-9-1-8-5zm853 21l4-18h5l5 20-5 1z"/>
		<path id="Path 15" class="s15" d="m638 432l7-2 5 6-2 8h-11zm380 154l30 2 11-9 1-9 15 1 11 5 2 11 3-2 1 2v8l-7 11-69-4-5-7zm-1018 74v-52l266 21 22 13 2 1-38 19-16-1-8 16-16 9-8-10-52-4h-18l-16-4h-58v-5l-8-3zm911 6l2-1 25 3 8 4 8 10v4l-5 2-1 4h-5l-5-2-4 10h-3v-10l-8 1-5-4-16-2-5 2-5-3 1-12 15 4 3-3zm-675 186v-6l7-5 23 4-2 10h3v9l11 9v7h-16l-6-8v-10l-5-4v-4l-6-3zm883 11l7-7 18-2 17 32-2 50h-26v-26zm-897-1l5-6 4 1 3 3v12l5 5-10 9-6 3z"/>
		<path id="Path 16" fill-rule="evenodd" class="s16" d="m836 126l1-4 4 3v19h-5zm4 86v-6l5 1v4zm-385 40l1-14 5 4 5-2 5 12-5 5-1 7-7-2 1-5h-3zm-59 51l6-11 8-2 20-18 1-7h7l3 7 5-1v4l-9 7v6l-5-1-14 14h-4l-14 11-3-1zm-212-2l4-1v20l3 91h-3l-4-91zm344 118v-37l3-11-3-6v-25l-6-1-2-7 2-28h8l6 4 1 31 15 1h8l1 8h7v33l3 5 5 5h5l2 4 14 1-3 11-6 1-7-2-1 21 5 4-5 7-7 1-2 5 30 1 23-1h13 11l2-8 14-2 4 2 2-3 8-1 1-4 5-2 2-9 12-1 13 26 15 5 4 6-11 11h-6l-8 7-24 2-2 3-35-2-1 4 7 4 1 5 12 13h-10l-1 5-3-1-8-6 2-7h-3l-13-28-1-3h-6v-3l-4-1-56-2-3-1 2-5-3-6-4-2-6 2-4-10 9-3 1-6h-14v8l-3-2-1-8zm-160-93v-6l6-4v-5l9 1 1 9 3-1 1 4-7 9-5-1 1-4h-4l-1-4zm33 18l5-2-2-4 5-3h3v3h7l4 2 1 8 16-1 3 7-3 1v7l-6 4-2 7h-5v-5h-10l-2 7h-3l-3-9 4-7h-7l-1-3h-19v-4h15l-2-8zm-74 15l6-4 1-7 3 3 7-5v1l-6 6v10l5-2 2 2-4 3v5l-6 7-3-1-4-2 4-4v-11l-8 4zm36 20l14-4 1-13h3l10 12-7 3 1 11-7 3-1 7h-11l-10 4h-4v-3l1-6h3l-1-5 5-2zm-43-14l1-1 2 2-9 7v6l6 3 1 7-12 13-10-2 1-14-9 7-3-1zm-4 59l8-6h8l-2-8h4l5 3-1 9 4 4 18 2 3-4h19l3-4 12 1 15 8 1 9 6 4 1 17 3 3h17v6l-5 3 2 13v1l-1 16-2 6v-9l-1-28-13 9-4-4-18 5-38 12-32 6-1 4-36 7h-8l-4-8 1-9 8-2-1-9-7 1 4-10 4-1v-6l4-4 8-3-6-2v-3l8-2 1-7 5-1-1-10 4-1zm290-1l4-1v-7l16 1 3 14-8 5-7-1-2-7zm-520 16l10-1v6l5 5 1 17 2 12-1 22h9l6 4v6l-9 2-5-4-12-2-25 6v16l-3-15-64 12v-24h16l3-3h7l6-6-2-30 10-2 2-4 31-1 3-2-2-5 5-1zm837 59l3-5-2-10 4-2h8l5 3 5-2 4 8 2-4 5-1-1 9h-5v4l-5 1-1 5-7-1-5-4zm-243 16l2-4 7 1 2 9 5-3v6l-5 1 1 3-11 1-3-4zm135 2l13 1-2 9-7 3h-2l-2-12zm67 0l6-1 8 1 12 2 9 1-1 5 7-1 4 10-7 7h-7l-3 8h-9l-3 4-7 1-2 4h-3l-3-9h-7v-14l6-6zm-861 36l5-4-3-3 3-4h-4l2-17h3l1 14h10l5 10-5 4h-12zm988 29v-4l8-4 1 13-7 9-3-6zm-137 48l13-7h7v12l5 6h18l1 8v11l-3 1v5l-2 1-25 3-4 3-1-4h-13l-1-12zm88 25l7-2 4 30h-3v-4l-5-4zm-960 20v-14h52l8 3v5l-4 5v13h-19l-8-7-11 2h-3l-5-7zm155 21l-3-23 52 4 8 10-25 12zm314 10l21-16 3 10-9 10-6 1-4 6-10-2-5 3v-3l1-1zm-84 57l26-2 2 4 12 3 10 10-3 12-11-3-5 10h-15-7l-5-11-15 2-5-2 7-7-1-3 1-10zm415 30v-6l5-3-5-2 2-7-4-1v-5l14 4 2 16h-10l-3 4zm-295 16l-1-18 9-4 9 4 2 14-4 4zm375 20l-1-37 2-4 8-1-5 42zm-667-16l-11-1-4-5v-8h8l4 5 18 1h6l4 7h5l-2 5-18 1-5-5zm111 60l1-6 6-1 9-12 14-6 11-11 17-2 2 18-27 27-18 3-3 3-5-12zm-324-17v-15l17 2zm624-10l5-2 5 13 1 22h-7l1-23-5-8zm368 50v-23l10 2v22zm-730-1v-14h16v18l-2 4-4-1-3-4-5 2zm-209-9l-29 19 6-15 6-4 4 1v-3h8zm983 37l29 2 4-3 9 3 1 12h-40z"/>
		<path id="Path 17" class="s17" d="m441 175l26-11 1 16-1 6-1-7-25 3zm134 324l10-41h7v4l-8 34zm38-12l7-27h6l1 3-7 24zm-70 15l8-32h6l-7 32zm349 120l16-5 25 7 15 12h4v4h-37-18l-5-6zm-702 193l23-3h5l5 5 18-1-2 3 2 1 16 4-14 17-7 5v6l-5 5-4-1-5 6-16 14 1 19 9 2v3l-1 10-23-9-2-2 2-3h-9l-10-5-2-5-7-1-2-5-30-10v-22l3-4 16-14 18-4zm-185 84l14-7-1 11-5 10-13 8v-20zm227 17l2-8 17 7 2 5-4 7z"/>
		<path id="Path 18" fill-rule="evenodd" class="s18" d="m491 255l17-1 13 10-1 14 6 1 4 8v5l-10 1 2 11-2 28 2 7 6 1v25l3 6-3 11v37l-6 1-3 6 2 38-5-3v-14l-4 1h-12l6 11 5 8h13l-1 7-4 1-7 2v10l-1 2h-9l-8-5h-11l-3 3h-4l-1-3-16 1-5 3-17-3v-1h8l11-17v-5l-7-2-9 2h-17l-3-3-1-17-6-4-1-9-15-8-12-1-3 4h-19l-3 4-18-2-4-4 1-9-5-3v-2l14-6v-4l4 1v3h4l10-4h11l1-7 7-3-1-11 7-3 6-1 2-12h5l2 6 3-1 3 9h3l2-7h10v5h5l2-7 6-4v-7l3-1-3-7-16 1-1-8-4-2-4-5 2-10 7 1 1-4 9-2-1-11 7 1v-3l14-2-3-8 7-2 5-8 5 2 1-10 6 2 10-6zm-104 65l10-9 3 1 2 16-1 16h-2l-1-26-10 6zm181 28l2-2v3l4 1 9-4 1 3 6-2 5 4v12l6 2v20l-4 11-14-1-2-4h-5l-5-5-3-5zm229 21l-11-6v-7l7-5 8 1 4 11zm-510 39l7-3 1 4-13 9-1-2zm535 40l10-1 1 13-1 3h-7-4zm-538 9l7-4 1 8-4 4-6-1-1-4zm-284 6l30-1 2 30-6 6h-7l-3 3h-16zm822 6l3-5 4 2zm-170 36l1-5h10l11 14h6l-2 10 3 4-3 4-2-7-5 2v3h-6l-4-8zm-514 11l9-4 1 12 8-1 1 7-7 2v13 13l10-5 2 2-10 8-15 6-18-1-31-11 4-6zm690 1l5 2 1-3 6-1 42 1v12l-6 6-14-3 1 17-18 1v4l11 2 3 5h-26l-2-6 3-1 1-7-15-2-1-15 7-3zm99 16h3l3-8h10l2 10h8v3h3l2 4 8 2v6l-1 5-13 6-28-2-10-2-4-9 3-8h7zm-889 5l6-3 9 6-2 4-8 3zm-38 23v-5l5 4zm1017 12l2-4 41 1-1 9-11 9-30-2zm-101 86v-11l15 1v8l-1 4zm-19 28l5-2 16 2 5 4 8-1v10h3l4-10 5 2 1 16-7 2-1 5-24-1-4-1v-5h-4l-8-4zm-734 38v-12l9 1 1 14-6 2v3l1 37 1 27-1 7-4-1zm187 3l3-15h3v19zm94-1l8-7h3l-1 4-6 9-14 10-1-8zm-269 43l-1-22 8 4 7 6-5 4v8 12l1-3h4l1 19-5 1-1 5h-10zm773-4l17 1v-4l17 1-3 3 1 17-1 15-19-2h-12l-2-12v-5zm-749 6l5-2 19 23h-11l-6 5h-8v-19zm144 36l26-23 5 2-3 12-9 2-9 7zm-32 6l8-20 2 24-7 6zm-75 38l9-1 6 3v4l5 4v10l6 8v14l-3 6-6 2 9 6-7 2 1 6-5-1-17-7-6-2v-5l9-2 5-7-11-1-2 4-5 1-1-2 6-8 10-9-5-5v-12l-3-3zm54 35l-3-11 3-10h6v11zm-290-14v-3l2 1zm1002 23v-22l21 1 3 6 24-1 9 5v6l3-1v-4l7 2 3-7 19 2 11 9 6 10 12 34h-41l-1-12 5-1-5-20h-5l-4 18-4 3-29-2-9-10-1-7 4-5-4-3zm-1002-14v-3h1v3zm245 54v-2l1 2z"/>
		<path id="Path 19" fill-rule="evenodd" class="s19" d="m344 345l12-10v-4h1l6 1-1 7 4 1 1 4-7 6-3 9-6-2v-3l3-3v-9l-10 5zm479 46l-1-4 4-3 24 1 4 9-4 7-5 1-14-2zm-186 5l15 2 1 11-4 5-12-2-1-14zm-367 28l1-6 4 2 6-4 1 2-6 6zm430 112l3-7 11 7-3 14 6 5v10l4-14 9-5 8 2v5l6-3 1 7 6-1-1-5 6-13 3-2 6 11v12l-1 2 6 2v-13h4l2-7 6 5 4 2v10l11-5 4 5v27l7 9 10 3v5l7-3 2 10 3 1-1 7 3 1v8l-11 6-3 30-5 1-3-3-7 1v6l-5-1-6 12-4-1-2-10-4 1-2 5-14 4 2 16 2 13 6 1 4 6 18 4 5 11-3 10h3l-3 4-3-1-1 9-7 3 3 5h-6v25l5 6 1 22-4 4 3 7-4 1 19 4-1-5-9-2v-11l5-19 3-4h10l-2 22-8 6 16 4 10-15-1-22h15l11 13 2 5 5 1-2 24 3 4v8l-47 18-5 12 1 15-7 53h-77v-11l-3-4-11-4-6-7v-16l10-13-1-22-9-10 1-11-3-4-5 1-1 13-8 5-5-12-6-1-6 8-8 22 1 20 6 7v11h-12l-9-4-2-20 4-7 1-19v-9l-6-9 3-10-2-17-4-4h-5l-6 5-4 24-2 3h-6v6l-8 1 2-5-9-2 1-7-9 3-5 8v25l1 6 3 1 4 20-4 3v7l10 3 2 12 34 3 2 11h-268v-65l3-3h18v11l-10 9 19 2 4-3v-5l-9-3v-13l1-11 10-4-3-6-5 2-2-3v-32l2-10 8-1 18-5 1-6-3-1 3-12 6 2-5-9 22-19 4 26v33l3 7h4l3-1-3-9 3-7 1-24-1-26 10-8h4l-1 9 3 5 3 28 6 12-3 9 4 6 7-3h15l4-4-2-14 9-33v-5l-5-1 3-10-7-1 1 6h-4l-3-15-5-1-3 3-2 11-4 6-2-4v-16l-3-3 3-11-1-11 3-2 43-39-1-14-4-2 17-16 2 6v16l11-9-3-5 9-2 35-33 14-9v-6h10l6-6h6l1 1v13l4 1 5-15v-2h7l4 15 7-1 3-9-2-19 12 1v4h3l3-21 5 1v7l4-1v-15l-3-1zm212 32l1-9h11l28 2-2 10zm-92 96l6-2v9l14-3v28h-15l-4-4zm-5 65l2-12 20 1v21l3 4-10 11h-5l-3-5-1-6-5 2 1-5 3-2zm225 35l7-4 21 1 4 5v6l-4 7-16 1-6-3-7-3-1-6zm-126 4l6-1 3 13h-11zm-40 168l5-73 13 1v12l-5 60zm-579-30l6-5 22 2-8 12-6 2-14-2zm58 30l1-10 10 2v8z"/>
		<path id="Path 20" class="s1" d="m320 364h1v1h-1zm148 93h13v12l3 2-6 3-1 4-8 1-6-11z"/>
		<path id="Path 21" class="s2" d="m586 684l10-5 2 7 5 4v16l-7 2 1 8-5-1-2 4-8-1-4 13-6-1-1-5 1-6-3-5 3-2v-10l2 7 1-6 6-2 6-10zm121 12l7-3 3 7h15v12l-24-2zm-143 61l12-1 3-6 2 12 4 2 3-10 13 2 3-2 19 5 1 13-10 8-24 1-2 3h-20l-5-3zm-2 141l2-1 19 3 5 5v15l-14 8h-10l-4-4 4-5z"/>
		<path id="Path 22" class="s3" d="m327 476l2 12-7-2-3-5zm425 165l-2 1-4-6-1-18 3-7 4-1 6 9 4-9-1-8 5-3 3 1-1 6h5l2-6 4-1 5 9-4 28-5 3v-11l-6 3-10-3-1 8-1 1v1l-4-1zm-123-14l12-1 1 3-3 21-6 3zm59 23l17-2 2 6v8l-5 13 2 4 3-10 4-3-2-4 5-3 4 18-4 16-7 3-1-15-10-2v-8zm42 41l-3-16 10-12 4 10 6 5v10l-5-3-2 8zm-158 11l-4-10 4-21 5-2 9 15 1 7-6 10-6 2-1 6zm31-12l7-9h4l6 9v18l-4 15-1 3-1 3-6 2-3 11-7-1-1 5-5-1-4 9-3 10-4-2-2-12-3 6-12 1-2-11-8 7 4-23 2-6h3l8 1 1 5 6 1 4-13 8 1 2-4 5 1-1-8 7-2zm-68 177l-3-14-8-14 1-7h3l1 8 11 2 4 9-4 2v13z"/>
		<path id="Path 23" class="s4" d="m535 867l5-1 12 8h15l-3 23-2 1-22-1-4-15z"/>
		<path id="Path 24" class="s6" d="m332 476h8l4 4-9 4-3-2zm356 174l-1-11 8-12 6 2 3 6 1 13zm-125 74l-1-7 7-3 3 5-1 6zm75 73h5l2 6-3 4-5-1-2-6zm-98 33l5-5 1-7 6 11-2 8-3 4-3-1zm20-4l1-4-4-2 7-1 4 8-6 2zm-84 30l2 5 8 2 2 4-8 5-13-1-1-8 7-1z"/>
		<path id="Path 25" class="s7" d="m544 851l12-5 11 6 7-1-7 23h-15l-12-8v-13z"/>
		<path id="Path 26" class="s9" d="m629 627l3-17 9 3 1 16-1-3z"/>
		<path id="Path 27" class="s12" d="m632 610l4-7 5 5v5zm77 52l2 4-4 3-3 10-2-4 5-13zm-74 52l4-10 11-1-2 20 3 4-1 5-18 2v-7l4-4zm-91 126l3 1 3-4 6 2v7l-12 5-4-9zm16 84h-7l-8-8-1-16-4 1-1 5-3-1v-23l4 15 22 1 2 21z"/>
		<path id="Path 28" class="s13" d="m134 408v6l-5 5-11-1-6-10 16 2zm574 168h5l2 5 7-4 3 5-1 10 6-2 4 6 4 24-5 11v15h-5l-3-30-7 2-1 7-8-1-3-17-4-1zm50 60l1-8 10 3 6-3v11l5-3-2 11h-15v-11zm-54-1l12-3v11l-8 5-1 6-2-6zm48 6l1-4 4 1-1 4zm-20 59l-2-9 10 2-1 19h-7zm-273 13h1v1h-1zm129 41l4-9 5 1 1-5 7 1 3-11 6-2 2 11-4 4h-7l-1 10-3 2zm-512 22l2-2v2zm449 56l5-10 7 2 3 6 4 10-4 2-11-2-1-8zm27-3l2-3h6l2 3 6-2 6 15v9l-7 1-11-6v-7l-6-2zm-552 49h1v1h-1z"/>
		<path id="Path 29" class="s14" d="m735 432h11v3l-6 12h-6z"/>
		<path id="Path 30" class="s16" d="m488 340l19 2 1 7-6 7h-10zm147 374l-5-3-2-11v-23l5-18 7 5 7-1 1 6 8 9v15l-6 6v4l-11 1zm-557 62l9 2-7 7v13l1 6 9 1v7l-16 13-3-1v-29l-3-3v-8l8-8z"/>
		<path id="Path 31" class="s17" d="m60 717l22 3-6 6 3 5-6 1v4h-8l-38 12 3-15 5-6 11-9z"/>
		<path id="Path 32" class="s19" d="m112 408l-3-3-1-12 9-7 13-2 11 7 1 4v7l-8 6-6 2zm-49 60l15 2v16l-21 1-1-14z"/>
		<path id="Path 33" class="s13" d="m757 636h1v1h-1z"/>
		<path id="Path 34" class="s19" d="m611 695l8 1v3h-9z"/>
		<g id="Background">
			<path id="Path 0" fill-rule="evenodd" class="s0" d="m344 286l7-1v10h-5l-3-2zm694 43l3-5 10-1 3 4-10 9zm-153 6h11l2-7h5l3 17 22 6 4 9 1 5-7 7h-13l-4 3-5 15 1 23h-9l-7-1 2-7-4-1 1-3-13-2-10-7 5-3 26 3 1-6 7-8v-15l-3-3-7 1-2 12-4 5h-16l-1-14 2-4-2-7 3-4 11-2 2-4zm-249 63h-7l-2 3-7-3 2-45-3-8 32 2 2 16 4 5-1 4-8 5v7l-10 7-1 5zm307-49l19-1v5h-10l-4 7h-4zm-142 3l2-1 13 1h6l1 9-4 2 2 7-2 5-11 2-1 4-2-1-3-8-5-3 8-6zm-101 16v-7l-4-1 3-7 20 3v3l-7 2v9h-5zm200 56l8-7 6 7h54l4-3 3 13 4 2 108 4 14-4 4 7 10 5 1 4 38 2 6 4 56 6h32v248l-158-3-2 15 10 6 5 8h6l10 8 11 15 2 35-16-1-1-6-6-6-5-23-15-21-17-11-32-4v-24l1-11 5-4 23-2 3-3v-12l-29-8-7-8v-8l4-4h28l4-4v-9l-4-3h-32l-8-8h-12v-14l69 4 7-11v-8l-1-2-3 2-2-11 6-4 2-19 32-1 67-13 7-5v-13l-7-5-45-8h-59l-4 4-8-2-7-7h-14l-8 5h-25l-7 4-8-4v-10l-7-5-3-7-28-2-6-12h-27l-2 3h-7l-8-3-2-20h-7l-3-8-4-2-4-3zm-388 63v-10l7-2 1 2v9zm-24 21l12-2 3 6-3 6-12 2zm242 20l-2-11 5-2 9 5 1 7zm289 41l-3-3v-22h38l3 6 13 2 6 5-1 14-15-1zm-179 87l1-26h11l4 3v23zm-72 39l-2-16 14-4 2 6-1 6-6 9zm192 102l19 2 1-15h14l3 4 17 5 19 2 5 5h16l29-3 7-9h12l8 11v21l-10 1-4 4-1 19-21-3-2-3-20-6-40-4-8 1v15l12 10h10l3 5 67 5v12l-5 7-19-2-3 7-7-2v4l-3 1v-6l-9-5-24 1-3-6-21-1-10-2-6-4h-24zm208 41l-17-8-3-4v-10h32l45 8h23v20zm-852 83l10-1 2 14-2 2h-10z"/>
			<path id="Path 1" class="s1" d="m830 31l-2-31h2l1 31zm357 118l32-40 24-36 5-3v15l-41 53-71 89-2-9zm-995 55l2-4 7 4 2-3 9-1 7 2v4l-7 12-14 1-6-5zm914 48l17-20 7 2-12 15-12 14h-2zm-1048 51l-3-3v-10l9-5 2-5 11-1 2 5h6l-2 8-13 2-6 8zm325 9l13-9 1 8-10 9-3 1zm-181 7v-3l5 2 1 102 8 12h16l-2 8-11 1-1 4-7 3h-16l-3-9-10-8v-7l5-5 1-8h3l5 1 4-4zm119 45l6-5-3 5 8-4v11l-4 4-8 7-6-3v-6l9-7zm395 16l-6 4h-12l9-14h5l4 2zm-646 54v-5l6-5v-19l11-6 1-15h12l3-4 15-6 25 1 5 4 8 14-4 27 5 3 1 8-3 4 5 7v9l4 3 1 14h-15l-15 9-11 1-1-3h-13v-8l-8-1-1-17-5-5v-6l-10 1-6-4zm606-58l10-2 3 20 3 1 6 21-12 1-2 9-5 2-1 4-8 1-2 3-4-2 1-8-20 4-7 2-9-2-3-14 1-4h10l12 2 4-5-1-11 1-7 17 1 5-5zm48 32l-13 4-5-6 5-6v-9l9-5 5 5zm-448-7l2 2 7-4 2 9-6 8-6 4-4-2-1 6-9 7-1-6-4-2 1-5zm876-1l11-1 8 12 15 1v6l-31 2-2-3zm-179 19l-1-10 6-6 38 1 8 4 11-1 3-4 18 2v11h-79zm-374 8l7-4 6 4 2 7 7 1 3 9-23 1zm-53 15l6-2 4 2 3 6-2 5 3 1v2h-6l-3 8-9 1-2-16zm-40 17l-6-11h12v6zm355-2l9-1 4 3 18 6-1 6-19-3-2-5h-7zm-463 23l18-5 4 4v15l14 4v9l2-6h3l11 13 6 2-1 15-46-1-1-2v-7l4-3v-12l-13-2zm82 7l3-3h11l8 5h9l-3 11-8 6-12 2-2-2 2-16zm476 7l2 6h6l6-7v-9l28 2 3 7 7 5v10h-21l-3 4-2 21-3 3h-11v-7l-4-2-7 3-1 8h-3v-3h-8l-2-10h-10l-3 8h-3l-4-10-7 1 1-5-9-1v-8l7-6h5v4l5 2 13-7 7 1 1-5 5-1v-4zm129 18l4-4h59l45 8 7 5v13l-7 5-67 13-32 1-2 19-6 4-11-5 1-14-6-5-13-2-3-6 6-19h23l3-3zm-304 2l5-1 10 1v4l7-2 12 1 2 12-6 7h-18l-1-11-12-4-2-4zm213 56l-1-29 22-1 1 4v22l3 3-2 4-8 4v4zm-588-14h36l3-5 11-3 18 11 56-1 15 6 28 4 21 12 12 1 3 5v1l-42 36-1 15h-7l-2-6-17 16-50 41-21 16-9-21-26-16-23-21-19-37-4-22v-5l12-7v-9l6-5zm242 29l9-1-5 15-4-1zm194 35l8-1 4 5 18 5-5 27h-11v-23l-4-3h-11zm-358 89l9-10 4 1v3h5l-3 2 1 11h-4l-4-7zm544 59l1-31 3-9 8-4 32 4 17 11 15 21 5 23 6 6 1 6v1l-6 3-8-11h-12l-7 9-29 3 8-9 5-4 1-8 4-7v-6l-4-5v-6l-8-7h-19l-1 16-2 4zm-236 45l-1-22 9 1h1l-5 19zm303 31l1-19 4-4 10-1 9 43 14 47v26h-13l-12-34-6-10-11-9 5-7v-12zm-694 24v-2h4v13l9 3v5l-4 3-19-2 10-9zm486 68l5-60h18l6 29v8l-4 2v21zm-609 0l2-4h1v4z"/>
			<path id="Path 2" class="s2" d="m831 31l-1-31h6l1 32zm-28 227v-9l13 1-4 8zm-91 35l4-8 12-10 4 3v5l-6 3-8 11zm173 42l-8-4 2-7 17-2 2 6-2 7zm-519 5l10-8 5 1v9l5 1-3 9h3v4h-4l-1 6h-3l-2-3 1-16-10 1zm-12 29l3-3 3 2 3 11-3 7-5 2-12-1-9 11v10 2h-4-9l-8 7-2-2 21-21v-9l-11 4-1-7 8-7 4 2 4 13 16-15zm332 5v-6h14l7 2-9 14h12l6-4 4-1v7l-9 5v9l-5 6 5 6 13-4h5l13-11h4v5h12l11-12 15-2 2-4 19-4 2 1 3 7 9 7 6 10v6l9 11 2 21-4 4-10 1-2-3-7 2-6 9v9l-5 1-1 4-15 2h-8l-3 9-9 4-6-2-3-12-11 1-13-2 3-10-6-7-4-6-15-5-13-26-6-21-3-1zm168 20l4-3 7 1 10 7 13 2-1 3 4 1-2 7-9 6-4-12h-17v16l8 6 2 6-5 4h-13v-4l-13-15 7-17 5-1zm-560 11l5-5 10 2-4 8-3 1h-3l-4-2zm-47 20l10-7-1 5 4 2 1 6 9-7h6l2 5-5 5v15l7-6h3l1 14-3 3 1 4-2 4-12 1-6 6-7-3-13 10 8-12 19-14v-16l-21 16-7 10-5 3-33 26-5 6v5l-4 3-6-2-5 6-5 1-6 1-15 15-1-7 23-20 1-16 6-5v-6l21-9 5-13-1-6 7-3 1-4 11-1 2-8 2-3 4 4 1-4h7zm398 5l20-4-1 8-14 2zm229 29l3-5 9-2 1-12 13-1 4 3v16l-12 7zm54 22v-6h7l1 6zm-725 32l34-31h4l-3 8-7 2-31 29-4 13-13 12-21 9-2-2 29-27zm478 15l11-1 4 1 1 8h3v7l-6 3-3-2-4 3v-4l-3 1 4 25-12-1-2-7-9 3-1-18-8 4v16h-3v-4l-6 3v19h-6l-1-11-13-2 37-31 6 2 2 9 6-1v-18zm-115 110l1-15 42-36 2 18-35 33-9 2zm264-26l7 1 2-5h13l-2 11-8 1h-10l-3-1zm-340 77l50-41 4 2 1 14-43 39h-5v-3l-4-1zm323-24l5-1h2l1 28 4 4h15v8l-1 11-2 3-20-1-2 12-12 1-5-11-18-4-4-6 5-5h4v3l12-1 8 5 2 5 3-11 7 4v-24l-10-2-3-1v-4zm75 45h-8l-9-5v-23l7-6 3 1 1 7h10l5 3-1 17 8 4zm55-18h5l1-4 5-2v-4l7 3 3 8-2 21-26 1 1-5 7-2zm-587 40v4h5l1-10h5v5l5 1v-13l6 2 2 7h8v28l-3 6-9 3-1 10h-8l-3 5-7-3-1 9-3 3-7-2-1 10-4 3-7-1-4 12h-3l-1-29 7-19 1 6 4 1v-14l2-15 10-13zm112 2l6-1 8 9-10 8-5-3v-6zm357 20h5l10-11 12 2 18 3-3 23 4 16-16 9-11-13h-15v-18h-3zm-454 45l2 8 12 1 9-12h7l5 16v32l-11 5v4l6 2v11 2h-18l-3 3v65h-16v-8l-10-2v-16l3-31 27-27-2-18-17 2-11 11-14 6-9 12-6 1-1 6-8 9v5l-15 12v3l-6 5h-5l-1-7 4-4-3-8 6-10v-11h-6l-4-3 2-10 22-17 33-28h10l9-7zm739 13l10-5 24 47-18 2-7 7-9-43zm-231 51l1-22 3-1 13 1-3 19-1 4zm-231 73l-2-11-34-3-2-12-10-3v-7l4-3-4-20 5 2 4-2 3 13 14-4 2-8h7l1 7 15-1 2 20 9 4h12v26l8 1 3-4 6-43 5 6h12v16l6 7 11 4 3 4v11z"/>
			<path id="Path 3" fill-rule="evenodd" class="s3" d="m344 347l10-5v9l-3 3-8 7-5 2v-10zm-45 64h3v13l-22 19-7 6v-15l5-5zm288 18l12-2 2 18-30-1 2-5 7-1 5-7zm-346 37l7-10 21-16v16l-19 14h-6v-4zm-43 40v-5l5-6 33-26 1 13-34 31zm82-24l7-1 1 9-8 2-6 1v-9zm736 30l7-4h25l8-5h14l7 7 8 2 1 10-3 3h-23l-40-2-5 3-2-5zm-1016 13l64-12 3 15v-16l25-6 12 2 5 4 9-2 20 6-46 35-4 6 31 11 18 1 15-6 10-8 21-9 4 4-7 3v3l17-2 74 6 19-8 1-12-4-7-7-2 1-4 9-4 73 6 45-1 1 2-3 3v29l-6 5v9l-12 7v5l-25 4-54 24-21 14v12l-22-13-266-21v-47l5-1 11-3 3 6h5l7-6-5-5h12l5-4 8-3 2-4-9-6-6 3h-10l-1-14h-3l-2 17h4l-3 4 3 3-5 4-6 2-15-2zm759 11l1-11 4-6 14-2 2 4 12 4 1 11-2 15-5-6-4 3-6-5-2 7h-4v13l-6-2 1-2v-12zm-609 9h6l7-11 14-12h9l3 4-29 27-10 5zm593-18l10-1-1 8 4 4-6 13-6-1-6 3v-14l-4-3v-5h-4v-3zm-29 9h5l2 15-4 14v-10l-6-5zm-696 145l11-2-3 9h-6zm763 6l1-6 10 3 15-1 10 2v24l-7-4-3 11-2-5-8-5-12 1v-3h-4l-2-1zm-357 41v-5l6-2 8 1 6 5-11 8zm64 28l5-8v-6l7 4 2 4 4-6 8 1 5 7 7-1 5 1v5l-9 33-9-4 1-7h-3l-6 9-6-4h-8zm298 13v-9h6l-3-5 7-3 1-9 3 1 6 3-1 7 5 3 1 13 2-17 5-5 4 1 3 5 1 11h3v18l1 22-10 15-16-4 8-6 2-22-2-16-14-4zm105-7l21-1 2 7-2 12-2 62-14-1-13-1 1-12 5-42zm-429 15l11-1-1 24-3 7 3 9-3 1h-4l-3-7zm162 68v-4h6l2-3 4-24 6-5h5l4 4 2 17-3 10 6 9v9l-1 19-4 7-15 1-1-7-1-22-5-13zm-24 32l-3-1-1-6v-25l5-8 9-3-1 7 9 2-2 5 8-1 5 8-1 23-2 8-14 4-3-13-4 2zm74 20l-6-7-1-20 8-22 6-8 6 1 5 12 8-5 1-13 5-1 3 4-1 11 9 10 1 22-10 13h-12l-5-6-6 43-3 4-8-1z"/>
			<path id="Path 4" fill-rule="evenodd" class="s4" d="m837 32l-1-32h2v33zm-686 234l-5-9 6-11-1-6 6-1 2-5 5-2 1-7 6-4 3-13 7-1 1-6 10 3v10l6 5 14-1 7-12h8l1 7 7 7-5 20-4 3-2 14-12 3-2 18h-6v-6l-6-2-1 4-7 1-1 12-6 1-1-9-4-1v-3l-8 3-2-6-6 5v-9zm235-9v-5l-3-1 1-12 7-9 18-1 7 6v4h5l3-8 9-3 11 7 2 14-4 5-7-1-1 6h-4l-1-7-13-2-4 8h-6l-4 4-1 10-1-11-6-4zm-150-17l14-8 6 4 1 5h6l3-6 9-3 6 14 4 2-9 14-7-1-1 7-9 6v11l7 1 1 4 7 2-1 5 4-1-1-6 9-13-1-4 5-1 10 3 3 11 6 5v8l6-1 8-28 13 2 5 6-1 5h4l1 3-1 7 3 2-2 5 4 8-12 4-1 3-7 1v-8l-5-2-5 2h-5l-7 6 1 12 3 3 22 4 12 12v1l-7 5-3-3-1 7-6 4-6 5-1 1-32 27-12 9-19 17-10 7-3-1v-6h-3l-2 11-1 4-4-4-2 3h-16l-8-12-1-102h23l6-9-2-12-1-10 9-10-1-6-9-3zm56 8l5-12 18-2 9 14-1 8-3 2h-6l-3 4-15-2-3-2 2-9zm59 37l-2-7 10-16 16-3 5 3 1 6 5 2-1 4 3 1-3 15-5 1-5 8-11-1-8 3-5-6zm-293 18l6-1 6-8 13-2 7 3 1 12-10 8-17 1zm130 17l14-1-2 89-4 4-5-1zm-188 16h21l19-12 20 3 7 9h21l4-4h61l6-1 13-11h12l4 91-1 8-5 5v7l-7 3-17-3-1-8-5-3 4-27-8-14-5-4-25-1-15 6-3 4h-12l-1 15-11 6v19l-6 5v5l-16 2-2-5-9-3-1-6-15 1-11-3-5-3v-6l-3-1h-4l-4 5zm1031 7v-8l7-6 6 7v14l8 9h4l1 12 8 3 11-1v-13l20-4 16 5 4 5 20 2 74 4 5-4h15l3 2-2 4h11l2 4h4v29l-29-1-2 3h-8l-5-5-8-2-10 10-15-1-8-12-11 1-16-2-30-3-2 8-12-1-8 6-8-1-6-5-14 3-18-2-3 4-11 1-8-4-38-1-6 6 1 10-1 2-4 3h-54l-6-7-3-4-1-23 5-15 4-3h13l7-7-1-5h16l8 12h13l2-3h6l2-5h7l22 7 6-1 1-3v3h11l4-16-3-1zm-383 41v-7l8-5 1-4h8l1 6 10 2-1 11-5 5-17-1zm-208 78l9-2 7 2v5l-11 17h-8l-2-13 5-3zm-20 17l13-9 1 28-14-4zm17 6l17 3 5-3 16-1 1 3h4l8 3-2 16 2 2v12l12-2h7l6-6h16l12-4h5l4-4 25-5 9-3 26 1 1 5 7 2 13 10h6l3 5 5 1 8 4 8-2 4 8-1 10-37 31-8 8-10 7-3-5-12-1-21-12-28-4-15-6-56 1-18-11-1-17 1-15-6-2-11-13h-3zm529 65l2-4h4l14 19 8 5 15 11-1 8 3 6 5 7v14l-4 1v7l4 9v23l5 18 3 2 1 16 4 8h11v24l-8 4-3 9-1 31-35-2-6-4-1-7 3-1 2-12 1-10-24-2 2-41 3-2-2-5-4-30-4-15-11-1h-4l-15-12-25-7-3-2v-9l4-9-6-1 3-6 1-22h5l38 3 2-10 13-6zm-678 92v-12l21-14 54-24 25-4 4 22 19 37 23 21 26 16 9 21-9 8-1 1-7 6-8 7-6-5-8-1-11-5-11 2-9-7v-5l-6-2v-4l-28-30-64-7-5-6v-11zm622 200l2-62h21l13 5 2 12h12l2 71v6l6 8 12 9 12 4 10 1 24 1 4 3-4 5 1 7 9 10 3 14h-127v-21l4-2v-8l-6-29zm206-46v-1l16 1 10 9 6 11v10l3 4 17 8 1 13 15 15 8 20 6 4 9 14 26 14h15v18h-89l2-50-17-32-24-47zm-20 68l-67-5-3-5h-10l-12-10v-15l8-1 40 4 20 6 2 3 21 3z"/>
			<path id="Path 5" fill-rule="evenodd" class="s5" d="m188 300l4 6 10-4 4-7 28 2 2 12-6 9h-23l-5-2v3l-14 1zm-107 15l1 3h10l31-1 6-3 20 1 23-8v13l-13 11-6 1h-61l-4 4h-21l-7-9-20-3-19 12h-21v-19l12-7 7 5 45 1zm1055 41l26 1 17-6h8l1 4h7l6-4 30 2-8 10 8-2-1 7h-15l-5 4-74-4zm-201 119l2-3h27l6 12v9l-6 7h-6l-2-6 1-9-5 1-2 4-4-8-5 2-5-3zm-199 15l-6 1-4 7-10 1-2 3-4-2v-5l3-1-3-5 2-7 22 2 1-2zm67 26v-15l3-5h10l-1 20v1zm-114-5l1-10 5-4h7l4 5-5 3-1 11v1h-4l-5 3zm153-11h27l5 4 12-2v5l4 3-2 5-6 1-42-1zm-842 340v-138l154 15 5 1 4 7 1 78v4l-33 19-11 12h-5l-16 11 3 9h6l24 12 30 10 2 5 7 1 2 5 10 5h9l-2 3 2 2 23 9 8 5 9 1 17 11-4 7v2h-141v-12l-15-6-15-12-20 1-12 13-2 16h-40v-15l13-8 5-10 1-11-14 7v-12l-4-5v-3l-1-1v-5l2-2 11-2 34 5 3 2-2 7h-8v3l-4-1-6 4-6 15 29-19 14-8-4-7-14-5-22 1-27-4v-7l17-13zm184-70l8-3 7 5-1 7h-13l-1 3zm602-1l12-1v5l4 1-2 7 5 2-5 3v6l-9-1-5-6zm-570 131v-3l-9-2-1-19 16-14 1 27 6-3-6 8zm8-4l5-1 2-4 11 1-5 7-9 2-5-1z"/>
			<path id="Path 6" class="s6" d="m368 326l4-2 1 4h4l-1 4-10 8-4-1 1-7-6-1 2-3 8 1zm-27 45l9-7h4v5l-2 6-16 15-4-13 3 1zm-20 18l11-4v9l-21 21-3 1-3-6 4-8zm264 42l-5-4 1-21 7 2-1 21zm-47 0v-8h14l-1 6-9 3zm295 29l30 3h7l2 5 19 3 5 6-71-1-9-4 6-3 7-3-4-2v-1h7zm-655 54l5-1 5-6 6 2 4-3 5 7-14 13-3-4h-9zm514 13l-1-3 5-1v-6h4l-1 10 4 2-3 7h-3l-1-8zm-4 42l-4-25 3-1v4l4-3 3 2v6l-3 21h-3zm-41 15v-19l6-3v4h3v-16l8-4 1 18-5 1 1 10-4 7v2l-9 1zm-435 102l16-9 8-16 16 1 38-19 6 3v11l5 6 64 7 28 30v4h-9v-8l-4-4-17-3-1 14-8 2-1 8-3 15-10 13-2 15-5 7-7 19-4 2-3 10-8 20-4 8 3 14-22 17-2-4-20-4-23-4 14-17-16-4-2-1 2-3 2-5h-5l-4-7h-6v-7l-5-4-19-23-5 2-7-5-8 3v-8l5-4-7-6 2-7-11-11-6-1v-3l6-2-1-14-9-1v12l-4-7-5-1-154-15v-18l15-3h3l2 7h6l3-9 8 7h19l99 9 32 3zm196 32l11-2 11 5-6 2v5l-7 4h-12l-1-11zm395 12l12-1 5 9-3 2-3-2-2 4-9-2h-3zm-297 14l2-11 3-3 5 1 3 15h4l-1-6 7 1-3 10-7 1-5-7zm375 4l15-2 18 2 2 10-4 3-21 1-3-10zm64 11l4-6 19-6 5 7 13 1 1 7 6 4 35 2h10l1 6 7 3 3 11 13 3-8 9h-16l-5-5-19-2-17-5-3-4h-14l-1-17 3-3-17-1-18-2zm-25 8l1-10 3-2 5 1 4 20 13 4v5l-13-5h-10zm-514 45l-5-16h15v5l-8 1zm-5 54v-11l-6-2v-4l11-5 2 3 5-2 3 6-10 4-1 11zm-139 42l-9-6 6-2 3-6 2 5 5-2 3 4z"/>
			<path id="Path 7" class="s7" d="m172 307l9-1 3-5v19h-12zm172 38l-12-12-22-4-3-3-1-12 7-6h5v5l3 1-1 9 8 2v-9l7-1 1 13h16l4 3v4zm618 3l13-1-2-12 15-4v-5l10-1v-5l7-2 11 5 1 6-5 1 3 10 16 3-4 10-4 4h-5l-28 1-4 6h-7l-2-7h-10l-5-4zm82-12l10-9 10 8 16 2 3 12 18 1 6 6 6-3v-3h9l5 7 9-1v12l-20-2-4-5-16-5-20 4-20-1h-4l-8-9zm-393 11l15-3h4v3l15-1 1 10-15 2-6 6v4h-8l-4-5zm277 4l3-3 12 1 1 11h-12zm303 10l8-6h9v14l-15 1-3-2zm-258 58l4-3h79l48 1 4 3h12l-2 6h2l16-9h17l2 3 31-2h62v46h-32l-56-6-6-4-38-2-1-4-10-5-4-7-14 4-108-4-4-2-3-13zm-413 37v-2l56 2 4 1v3l-7 27-3 10-26-1 8-34v-4h-7l-10 41-25 5v-2l7-32zm60 31l7-24 13 28h3l-2 7-4 16h-6l-13-10zm-78-22l9-1v6l-8 32-2 6-12 4h-16l8-20-1-6v-9l16-3zm103 55l4-16 3 1 9 17-8 2zm-239 36v-23l3-3 46 1 1 17-11 3-3 5zm634 144h-11l-4-8-1-16-3-2-5-18v-23l-4-9v-7l4-1h12l8 8h32l4 3v9l-4 4h-28l-4 4v8l7 8 29 8v12l-3 3-23 2-5 4zm92 96l-2-35-11-15-10-8h-6l-5-8-10-6 2-15 158 3v112h-23l-45-8h-32l-6-11zm-926 2l6-5h11l5 4v7l-18-1zm1042 120h-15l-26-14-9-14-6-4-8-20-15-15-1-13 80 6z"/>
			<path id="Path 8" fill-rule="evenodd" class="s8" d="m0 122v-122h828l2 31 1 49-23-1-18-11h-17l-4 8h-10l-14 5-1 11h-24l-22-3-2-22-4-3h-36l-26 7-52 21-10 8v11l21 9h23l24-6 84-6 5 4h16l7-4 18-2 6-6h21l4-4h35l4 30v46l-12 4h-75l-7 4h-34l-14-4h-53l-15-4h-126v-5l-4-1-11 16-17-2-1-16-26 11-17-9-132-10-14-6-35-2-18-7-29-5h-22l-2 4-11 3-23 1-25-4-6-6-23-6h-37l-9-6-6 2zm838-89v-33h410v70l-5 3-24 36-32 40-10-8-8-1-73 16-83 8-46 8-32 1-8 3h-58l-13-4-2-4h-10l-2-10-1-14v-52h31l4-4v-10l-36-2zm369 105l41-53v51h-18l-8 4zm-461 334l11-1 3 12 6 2 16 15 6 1-2 12-5 1-5-4h-22l-1-5-13-4-1-9-3-2-1-8 1-6h8z"/>
			<path id="Path 9" class="s9" d="m821 265l8-1 1 5v4l6 4v5l-12 6-9-6zm-433 59l10-6 1 26 2 8h-15-3l3-9-5-1v-9zm14 4h6l1 7-5 3 2 4-5 2zm-42 40l8-7 8-2 2 3-1 13-14 4zm-26 40v-10l9-11 12 1 1 5h-3l-1 6-4-1v4zm-52 10l13-9 4 2-21 18-2-5zm31-1l8-7h9l2 8h-8l-8 6zm-71 65l13-10 7 3-12 15-10 3-4 9-27 21-5 10-8 1 4-13 31-29 7-2 3-8zm556 6l2-8 16-8 9 4 71 1 9 3 3 5-1 14-11 1-2-4-25 4h-27l-26-4h-10-3zm-641 42l15-15 6-1-1 8-14 12-7 11h-6v-13zm644 30l4-4h9l19 4h26 25l2-3h3l5 5h12l1 6-1 22-3 6-6 6-12 4-33 2h-13l-2 5-7-1-3-1-2-10-7 3v-5l-10-3-7-9zm81 112l4-3 25-3v7l-3 3-15-4-1 12h-10l-1-7-3-1zm-529 41l1-8 8-2 1-14 17 3 4 4v8l-11 1-1 14v13l-5-1v-5h-5l-1 10h-5v-4-19zm498 24l-7-1v-9l8-1zm-683 33l-1-37 6 1 11 11-2 7-8-4 1 22zm756-15l1-19h15l5 23 2 2 1 5-2 14-13-4-4-20zm44-8v-7l23 2-2 12-3 1-13-1zm-509-2l8-4v6l5 3 1 26-11 1-4-26zm396 51l16-9-4-16 3-23h11l7 4 3 10-2 24-8 1-2 4 1 37-17 2-3-4 2-24-5-1zm-522-33l5-7v14l-4-1zm-7 19l1 29h3l4-12 7 1 4-3 1-10 7 2 3-3 1-9 7 3 3-5h8l1 3-7 7-26 23-33 28-3-14 4-8 3 10 7-6-2-24 3-10zm736 9l-13-3-3-11 6 3 16-1-1 8zm-688-4l15-2 5 11-9 12-12-1-2-8zm-96 86l-11-9v-9h-3l2-10 20 4 2 4-2 10zm-16 35l10-7 4 1 4 5v25l-2 4h-32l-1-2 4-7 4-7-2-5 5 1-1-6z"/>
			<path id="Path 10" class="s10" d="m720 108l-84 6-24 6h-23l-21-9v-11l10-8 52-21 26-7h36l4 3 2 22 22 3zm24-16l1-11 14-5h10l3 24-6 6-18 2v-12zm-744 168v-138l32 2 6-2 9 6h37l23 6 6 6 25 4 23-1 11-3 2-4h22l29 5 18 7 35 2 14 6 132 10 17 9v7l-2 4 2 2 26-2 1-6 17 2-1 12h4l6-9h6v-13h126l15 4h53l14 4h34l7-4h75l12-4 4 34v6 40l-10 2-14-4-13-1-30 1-3-4-28 4-80 46-20 3-75 1-13-8h-12l-3-16-9-12v-16l-7-9-1-9-10-2-2-10h-7l-5-4-4 8-10-1-2 7-4 3-8-1-2-5h-12l-6 9-6 1-11-7-9 3-3 8h-5v-4l-7-6-18 1-7 9-1 12 3 1v5l-6 5-5-3-16 3-10 16 2 7-7 1-1-3h-4l1-5-5-6-13-2-2-12 3-2 1-8-9-14-18 2-5 12h-7l-4-2-6-14-9 3-3 6h-6l-1-5-6-4-14 8h-6l5-20-7-7-1-7h-8v-4l-7-2-9 1-2 3-7-4-2 4-10-3-1 6-7 1-3 13-6 4-1 7-5 2-2 5-6 1 1 6-6 11 5 9-3 6h-45l-23-4h-38l-24-8zm1207-122l15 2 8-4h18v88l-13 1-17 11-6 8h-11l-8 4-1 18 8 6 12 3v13l-7 7-12 3-86 2-3-4v-16l20-16v-12l-6-3 12-15-7-2-17 20-16 4-64 2-11 5-22 1-21 5-102 3-21-14-4-47v-4l-1-39h10l2 4 13 4h58l8-3 32-1 46-8 83-8 73-16 8 1 10 8-53 69 2 9z"/>
			<path id="Path 11" fill-rule="evenodd" class="s11" d="m769 76l4-8h17l18 11 23 1 1 16h-35l-4 4h-21zm72 16l-1-16 36 2v10l-4 4zm-121 16v-16h24l4 4v12l-7 4h-16zm398 141l6 3v12l-20 16v16l3 4 86-2 12-3 7-7v-13l-12-3-8-6 1-18 8-4h11l6-8 17-11 13-1v121l-17 8-30-2-6 4h-7l-1-4h-8l-17 6-26-1-9 1-5-7h-9v3l-6 3-6-6-18-1-3-12-16-2-10-8-3-4-10 1-3 5-7 6v8l-16-3-3-10 5-1-1-6-11-5-7 2v5l-10 1v5l-15 4 2 12-13 1-19 1-12-1-3 3-22-6-3-17h-5l-2-6-17 2-2 7 8 4 2 8-2 4-11 2-3 4 2 7-2 4h-28l-5 6h-17l-2-7 4-2-1-9h-6l-2-33 10-31 12-6 6 2 3 36 6 7v-17l17-3 5-4 1-12-6-3 2-16 102-3 21-5 22-1 11-5 64-2 16-4-2 11h2zm-674-14l6-1 6-9h12l2 5-4 10-5 2-5-4-1 14-17 13h-7l-1 7-20 18-8 2-6 11-13 9-9-1v5l-6 4v6l-1 3-8-1-2 3h-1l-4-3h-16l-1-13 1-3 12-4-4-8 2-5h5l5 6 8-3 11 1 5-8 5-1 3-15-3-1 1-4-5-2-1-6 6-5h8l6 4 1 11 1-10 4-4h6l4-8 13 2 1 7h4l1-6 7 1 4-5zm-293 31l11 2v9l6-5 2 6 8-3v3l4 1 1 9 6-1 1-12 7-1 1-4 6 2v6h6l2-18 12-3 2-14 4-3h6l-4 28 9 3 1 6-9 10 1 10-28-2-4 7-10 4-4-6-4 1-3 5-9 1-23 8-20-1-6 3-31 1h-10l-1-3 10-8-1-12-7-3 2-8h-6l-2-5-11 1-2 5-9 5v10l3 3 6 13-45-1-7-5-12 7v-57h18l24 8h38l23 4h45zm391 26h12l13 8 75-1 20-3 80-46 28-4 3 4-34 15-11 10-12 10-4 8-7 4-6 10-14 39-15 1v-3h-4l-15 3-32-2-6-4v-5l-6-3-4-7-17-2-1-6-10 4-6-6h-20l-3-8zm-220-22l-8 28-6 1v-8l-6-5-3-11-10-3-5 1 1 4-9 13 1 6-4 1 1-5-7-2-1-4-7-1v-11l9-6 1-7 7 1 9-14h7l3 1-2 9 3 2 15 2 3-4h6zm508-16l10-2-2 7 2 10h-10l-1-5 4-5zm-38 49l-1-25-6-16 18-4h9l7 1 2 6-6 17-5 24-14 2zm-23 8l-23-33 3-5 20-5 2 5-3 7 14 9 1 14-7 7zm-33-6l7 1 9-4 8 9 1 6-3 3h-20zm-418 3l5-2 5 2v17l-8-2 1-9-3-1zm404 38v-11l3-3h15l4 3v13zm-590 524l-24-12h-6l-3-9 16-11h5l11-12 33-19 7 1 16 3 3 4-21 11-18 4-16 14-3 4zm-92 66l2-16 12-13 20-1 15 12 15 6v12zm241-4l11-15 17 3 7 1v15h-35z"/>
			<path id="Path 12" fill-rule="evenodd" class="s12" d="m831 80l-1-49h1l6 1 1 1 2 43 1 16v33l-4-3-1 4-4-30zm5 92v-14h6l2 10 1 39-5-1zm-395 10l25-3 1 7-26 2-2-2zm81 122l-2-11 10-1v-5l-4-8-6-1 1-14h9l9 12 3 16 4 16h-10l-6-4zm30 36l-3-24h20l6 6 10-4 1 6 17 2 4 7 6 3v5l6 4 3 8-2 45 7 3 2-3h7l1 14h-10l-1 4-16-1v7l-4 1-7 4-12 2 1-21 6-1 3-11 4-11v-20l-6-2v-12l-5-4-6 2-1-3-9 4-4-1v-3l-2 2h-7l-1-8zm679 13l17-8v10h-9l-8 6-8 2zm-283 7l4-7h10l5 4h10l2 7-2 5h-6l-2 3h-13zm70-3h5l4-4 3 1-4 16h-11v-3zm-637 5l1-6h4 19l1 3h7l-4 7-3 1-2-6h-5l-2 12-6 1zm852 8l15-1v9h-4l-2-4h-11zm-596 26l1-5 10-7 5 7-1 7zm-349-4l3 1 9-7-1 14-5 5-7 3-2-9-7 4-2-2zm531 3l4-4 8 9 14 2-7 17-4 3-9-11v-6zm317 22v-19l16 2 1 17zm-80-12l14-3 6 5 8 1 8-6 12 1v14l-48-1zm130 7l10-10 8 2 5 5h8l2-3 29 1v11h-62zm-319 16l-8-6v-16h17l4 12-6 8zm-867-13l4-5h4l3 1v6l5 3 11 3 15-1 1 6 9 3 2 5 16-2 10 1 6 4-7 8-5 1 2 5-3 2-31 1-2 4-10 2-30 1zm512 33l4-1v14l5 3-2-38 3-6 6-1 6 2 1 8 3 2 4 1 4 10-6 7 2 16-6 9-16 3-1-2 4-1 1-7h-13l-5-8 6-5zm-347 20l-1-14-4-3v-9l-5-7 3-4 17 3 7-3 10 8 3 9h16l1 6-5 13-21 9-6-8zm621 4l15-2 1-4 5-1v-9l6-9 7-2 2 3-1 15h4v1l-3 5-6 3-16 8-2 8h-12zm-524 3l6-6 12-1 2-4 6 1v6l-4 1-4 10-6 2v9l6-1-1 9 4 8h8l36-7 1-4 32-6 38-12 1 24 13 2v12l-4 3v7l-45 1-73-6-9 4-1 4 7 2 4 7-1 12-19 8-74-6-17 2v-3l7-3-4-4 13-12 8-1 5-10 27-21 4-9 10-3zm-26-6l5-3h3v4h6l-8 12h-1-4zm-132 9l6-3h13l1 3-5 15-7 7h-9zm711 38l1-20 26 4-2 15-6 1-1 3-5-2zm105-12l3-6 10 1 5 4-13 7-5-2zm-220 12h12l5-8h15l1 7-5 2 2 11v3h4v5h-15-5l-11-7-4-2 1-10zm256 22l1-8 7-3 4 2v7h11l3-3 2-21 3-4h21l8 4-3 9 2 5 5-3 40 2-6 19h-38l-1-4-22 1 1 29-8-5-14-19h-4l-2 4v-6l-8-2zm-206 13l1 5-6 1-1-7zm-750 1l15 2 6-2h5l5 5-7 6h-5l-3-6-11 3-5-4zm952 88v-4l11 1 4 15-7 2-8-9zm-385 0l3 5-11 9v-16h7zm273 28v-12h16 11l1 12-10 7-1 28-7 6-4-5h-6v-8zm-60 7l2-5 4-1 2 10 4 1 6-12 5 1v-6l7-1 3 3-9 13v4l3 1-15 1-10-3zm-12 20l7 1 6-9-2 16 2 1-5 5-6-1zm120 15l16-2h4v5l4 1-3 9-15 1-6-5zm-440 23l6-9 12 1 2 9-1 7-8 4-6-3zm592 31l1-16h19l8 7v6l-21-1zm-624 32l5-10 11 3 3 1-1 6-18 5zm376 17l4-2v11l9 2 1 5-19-4 4-1-3-7zm100 51l1-4h17v16h-18zm-892 6v-8l27 4 22-1 14 5 4 7-14 8-5-2 2-7-3-2-34-5-11 2zm278 3l8-10 4 3-3 10 3 11 3 8-4 4-11-1v-18zm23 28v-3l15-12v-5l8-9 7 1 5 12v13l8 4 2 8h8v16l-1 10h-27l2-2-2-14-10 1-7-1v-3l6-2 8-12z"/>
			<path id="Path 13" class="s13" d="m482 228l8-1 2 4-1 24-6 18-10 6-6-2-1 10-5-2-5 8-7 2 3 8-14 2v3l-7-1 1 11-9 2-1 4-7-1-2 10 4 5h-7v-3h-3l-1-7h-6l-2-16 14-11h4l14-14 5 1v-6l9-7v-4l-5 1-3-7 17-13 1 5h3l-1 5 7 2 1-7 5-5-5-12 4-10 8 1zm291 22l30-1v9l-18 4 6 16 1 25-2 3-7-3-1-14-14-9 3-7-2-5-20 5-3 5 23 33 2 8-2 2-8-4-1-6-8-9-9 4-7-1-4-3v-9l6-4v-4l-6-2v-5l-4-3 11-10zm39 8l4-8 14 4 3 5-4 5-8 1-2-6zm-2 48l5-24 9 6-10 31h-4zm-125 40l14-39 6-10 7-4 6 4-2 14-10 5-2 8 3 4 12 1v7l-9 5v5h12l22 2 10 4 2 7-37-3-20-3-3 7 4 1v7h-14v-12zm-133-6l-15-1-1-31h10l3 8zm168 39l41-11 1-5-4-7 11-2v-7l11-1 2-6h8l4-4 10 3-1 12-2 1-8-1-7 5v7l11 6 5 3 3 8-19 4-2 4-15 2-11 12h-12v-5h-4l-13 11h-5l1-17-5-5zm-353-35l10-1-1 16-8 2-8 7-3-2-3 3v-5h-4l-9 7v-5l4-3-2-2 8-7v3l6 2 3-9zm505 34h16l4-5 2-12 7-1 3 3v15l-7 8-1 6-26-3-1-9zm-570 33l3-1 3 6 3-1 2 2 3 7-5 8-4 1 1 10-5 1-1 7-8 2v3l6 2-8 3-1-8-7 4-1-14h-3l22-19zm598 13l-4-2v-9h9l3 4zm-661 5l2-11h3v6l3 1-1 4zm595-7l4-3 13 15v4l-3 3 1 13 12 3 2 6-30-3-1-13 4-4zm-213 13l8-5 9 2-1 12h-13zm-517 43l-2-12 8 1v8zm20 0l11-1 15-9h15 15l6 8v6l-6 5-1 16-23 20-8 1-1-12-9 4-20-6v-6l-6-4 7-7zm772 22l11-1h5l3 5-7 6v8l-12-2zm-231 30h6v-3l5-2 2 7v18l-6 1-2-9-6-2zm128 6h18l6-7h2l1 15 15 2-1 7-3 1 2 6-19-4h-9l-4 4-4-5-11 5v-10l-4-2 4-3 5 6zm70 12l-1-17 14 3v14zm-142 3l-2-15h15l4 3v9l-8-2zm-27-5l6-3 3 1v15l-4 1v-7l-5-1zm195 11l2-4 7-1 3-4h9l4 9 10 2h-11l-1 9h-5l-1-6h-12zm-224 7l9-3 2 7 2 19-3 9-7 1-4-15h-7l4-7-1-10zm-46 15l8-8 13 2 1 11-6 6h-10l-1-8zm233 29l33-2 12-4 6-6 6 1-4 9v9l3 2-16 5h-7l-13 7-18-5-4-5zm-20 12h10l-1 10-1 26v12l-14 3v-9l-6 2h-2l3-30 11-6zm-776 66v-13l4-5h58l16 4h18l3 23zm-56-2v-10h10l5 7zm372 35l1-14 11-1h9l6 2v5l9 7-4 3 1 11h12l7-4 9 7 1 8 14-10 5 9 6 3-1 6-22 19 5 9-6-2-10-10-12-3-2-4-26 2 3-6v-28h-8l-2-7zm467-4l1-11h6l4 5-5 6zm-380-1v3l5-3 10 2 4-6 6-1h8l4 7h4l-3 11 3 3v16l-7-4v6l-5 8-3-5 1-9h-4l-8-9-6 1-2-9-12-1 1-4h-3zm392 23l1-11 36 6 30 1 7 3-1 19-3 2-1 10-6 1-2-7 4-3-2-10-18-2-15 2h-11l-18-3zm94 22l-5-23 28 4v7l-19 6zm-142-19l9 2 2-4 3 2-1 5 5-2 1 6-4-1-5 5-2 17-1-13-5-3 1-7-6-3zm145 26l-1-5 18 2v4zm-784 37l4 1 1-7-1-27h7l-1 34-3 4-7-1zm327-19h8l6 4 6-9h3l-1 7-9 4 1 18-7 3-4-6 3-9zm619 15l6-3 4 11-10 5zm-247 31l17-2h4l-1 12-3 1-1 22-5 73h-69l7-53-1-15 5-12 47-18zm30 30l3-19 14 1v18zm-893 41v-19h1l4 5v12zm276 1l2-4 11 1 1 7h5v9l14 2v3l-17-3-11 15h-1v-25z"/>
			<path id="Path 14" class="s14" d="m836 158v-14h5l1 14zm-351 24l11-16 4 1v5 13h-6l-6 9h-4zm355 30l5-1 4 47 21 14-2 16 6 3-1 12-5 4-17 3v17l-6-7-3-36-6-2v-5l-6-4v-4h10l-2-10 2-7zm-358 16l2-7 10 1 4-8 5 4h7l2 10 10 2 1 9 7 9v16h-9l-13-10-17 1 1-24-2-4zm236 69l8-11 6-3 6 2v4l-6 4v9l4 3 2 15h20l3-3 8 4 2-2-2-8 7-1 7-7 7 3 2-3 4 5 14-2v13h4l2 33-13-1 1-12-10-3-4 4h-8l-2 6-11 1v7l-11 2 4 7-1 5-41 11-4 1v-8l-4-2v-9l7-2v-3l37 3-2-7-10-4v-13l-4-3h-15l-3 3v11h-12v-5l9-5v-7l-12-1-3-4 2-8 10-5zm-53 71v-4l6-6 15-2v12 6l-10 2-10-2zm321-4l4-6 28-1-3 10-1 3-6 1zm70-5l20 1v13l-11 1-8-3zm-235 11h17l5-6h28l1 14-3 2 1 9-5 3-7-1-4 3-4-9-24-1-4 3 1 4-4 4-9-7-3-7 1-4 11-2zm283 33l2-8 30 3v19l-16 9h-2l2-6h-12l-4-3zm-224 15l9-6 7 1v9l4 2v15l-13 1-1 12-9 2-3 5-4-3-9 1-12-3-1-13 3-3h13l5-4-2-6 7-2zm12 47l12-7v-16l4 2 3 8h7l2 20 8 3v6l-4 2 2 10-3 5-3 6h-5l-3-5h-5l1-14-3-5-9-3-5-6zm-229 35l-12-13-1-5-7-4 1-4 35 2 2-3 24-2 8-7h6l11-11 6 7-3 10 13 2-2 4h-8l-1 6-1 2-22-2-2 7 3 5-3 1v5l4 2 2-3 10-1 4-7 6-1 3 2 1 9 13 4 1 5h22l5 4-3 3-14 2-4 6-1 11-3 2-4-4 1-8-10 1-1-7-9-5-1-7h-15l-5 8h-12l1-11 5-3-4-5h-7l-5 4-1 10-7-1-2 4h-6zm-112-36l3-8h6l-3 14h-6zm215 21l9-4 3-9h8v16h12l5 8h3l-3 5v15l-7 2v-4l-10-1 2-12-6-1zm-254 2l8-1 1 6-8 20-6 6h-7l3-6-3-6 8-6 3-11zm98 10l3-10h7l-2 17-7-2zm259 3l25-4 2 4v16l-8-1 2-5-4-3v-5l-12 2zm-232 14l4-16 8 6-4 16-5-1zm-96-6l2-6h7v2l-4 4zm318 52l-3-5-11-2v-4l18-1h13 7l3 9-2 3zm-250 26l10-7 5 3 1 8v6l-14 9-2-18zm307 62l-1-8h37v5l8 9 3 20 5 4v4h3l2 5-3 2-2 41 24 2-1 10-23-2-28-4h-15l-7-3-30-1-36-6-8 1v9l7 1 1 8-12-2-3-4v-21l2-3h6l5-6 7-6 1-28 10-7h13l1 4-4 4-7 6v23l9 5h8v9l6 5 15-1 3-9 24 1 26-1 2-21-3-8-7-3-8-10-8-4-25-3v-5l3-1 14 2 1-4v-8zm-742 156h10l1-5 5-1-1-19h9v19 8l4 5 11 1-23 3-3-4-16-3zm818 91l-12-4-12-9-6-8v-6h24l6 4zm-656-10l3-3 18-3-3 31h-8l-2-8-8-4zm-120 15l7-6 1 2-1 4 5 1v5l6 2-2 8-9-1-8-5zm853 21l4-18h5l5 20-5 1z"/>
			<path id="Path 15" class="s15" d="m638 432l7-2 5 6-2 8h-11zm380 154l30 2 11-9 1-9 15 1 11 5 2 11 3-2 1 2v8l-7 11-69-4-5-7zm-1018 74v-52l266 21 22 13 2 1-38 19-16-1-8 16-16 9-8-10-52-4h-18l-16-4h-58v-5l-8-3zm911 6l2-1 25 3 8 4 8 10v4l-5 2-1 4h-5l-5-2-4 10h-3v-10l-8 1-5-4-16-2-5 2-5-3 1-12 15 4 3-3zm-675 186v-6l7-5 23 4-2 10h3v9l11 9v7h-16l-6-8v-10l-5-4v-4l-6-3zm883 11l7-7 18-2 17 32-2 50h-26v-26zm-897-1l5-6 4 1 3 3v12l5 5-10 9-6 3z"/>
			<path id="Path 16" fill-rule="evenodd" class="s16" d="m836 126l1-4 4 3v19h-5zm4 86v-6l5 1v4zm-385 40l1-14 5 4 5-2 5 12-5 5-1 7-7-2 1-5h-3zm-59 51l6-11 8-2 20-18 1-7h7l3 7 5-1v4l-9 7v6l-5-1-14 14h-4l-14 11-3-1zm-212-2l4-1v20l3 91h-3l-4-91zm344 118v-37l3-11-3-6v-25l-6-1-2-7 2-28h8l6 4 1 31 15 1h8l1 8h7v33l3 5 5 5h5l2 4 14 1-3 11-6 1-7-2-1 21 5 4-5 7-7 1-2 5 30 1 23-1h13 11l2-8 14-2 4 2 2-3 8-1 1-4 5-2 2-9 12-1 13 26 15 5 4 6-11 11h-6l-8 7-24 2-2 3-35-2-1 4 7 4 1 5 12 13h-10l-1 5-3-1-8-6 2-7h-3l-13-28-1-3h-6v-3l-4-1-56-2-3-1 2-5-3-6-4-2-6 2-4-10 9-3 1-6h-14v8l-3-2-1-8zm-160-93v-6l6-4v-5l9 1 1 9 3-1 1 4-7 9-5-1 1-4h-4l-1-4zm33 18l5-2-2-4 5-3h3v3h7l4 2 1 8 16-1 3 7-3 1v7l-6 4-2 7h-5v-5h-10l-2 7h-3l-3-9 4-7h-7l-1-3h-19v-4h15l-2-8zm-74 15l6-4 1-7 3 3 7-5v1l-6 6v10l5-2 2 2-4 3v5l-6 7-3-1-4-2 4-4v-11l-8 4zm36 20l14-4 1-13h3l10 12-7 3 1 11-7 3-1 7h-11l-10 4h-4v-3l1-6h3l-1-5 5-2zm-43-14l1-1 2 2-9 7v6l6 3 1 7-12 13-10-2 1-14-9 7-3-1zm-4 59l8-6h8l-2-8h4l5 3-1 9 4 4 18 2 3-4h19l3-4 12 1 15 8 1 9 6 4 1 17 3 3h17v6l-5 3 2 13v1l-1 16-2 6v-9l-1-28-13 9-4-4-18 5-38 12-32 6-1 4-36 7h-8l-4-8 1-9 8-2-1-9-7 1 4-10 4-1v-6l4-4 8-3-6-2v-3l8-2 1-7 5-1-1-10 4-1zm290-1l4-1v-7l16 1 3 14-8 5-7-1-2-7zm-520 16l10-1v6l5 5 1 17 2 12-1 22h9l6 4v6l-9 2-5-4-12-2-25 6v16l-3-15-64 12v-24h16l3-3h7l6-6-2-30 10-2 2-4 31-1 3-2-2-5 5-1zm837 59l3-5-2-10 4-2h8l5 3 5-2 4 8 2-4 5-1-1 9h-5v4l-5 1-1 5-7-1-5-4zm-243 16l2-4 7 1 2 9 5-3v6l-5 1 1 3-11 1-3-4zm135 2l13 1-2 9-7 3h-2l-2-12zm67 0l6-1 8 1 12 2 9 1-1 5 7-1 4 10-7 7h-7l-3 8h-9l-3 4-7 1-2 4h-3l-3-9h-7v-14l6-6zm-861 36l5-4-3-3 3-4h-4l2-17h3l1 14h10l5 10-5 4h-12zm988 29v-4l8-4 1 13-7 9-3-6zm-137 48l13-7h7v12l5 6h18l1 8v11l-3 1v5l-2 1-25 3-4 3-1-4h-13l-1-12zm88 25l7-2 4 30h-3v-4l-5-4zm-960 20v-14h52l8 3v5l-4 5v13h-19l-8-7-11 2h-3l-5-7zm155 21l-3-23 52 4 8 10-25 12zm314 10l21-16 3 10-9 10-6 1-4 6-10-2-5 3v-3l1-1zm-84 57l26-2 2 4 12 3 10 10-3 12-11-3-5 10h-15-7l-5-11-15 2-5-2 7-7-1-3 1-10zm415 30v-6l5-3-5-2 2-7-4-1v-5l14 4 2 16h-10l-3 4zm-295 16l-1-18 9-4 9 4 2 14-4 4zm375 20l-1-37 2-4 8-1-5 42zm-667-16l-11-1-4-5v-8h8l4 5 18 1h6l4 7h5l-2 5-18 1-5-5zm111 60l1-6 6-1 9-12 14-6 11-11 17-2 2 18-27 27-18 3-3 3-5-12zm-324-17v-15l17 2zm624-10l5-2 5 13 1 22h-7l1-23-5-8zm368 50v-23l10 2v22zm-730-1v-14h16v18l-2 4-4-1-3-4-5 2zm-209-9l-29 19 6-15 6-4 4 1v-3h8zm983 37l29 2 4-3 9 3 1 12h-40z"/>
			<path id="Path 17" class="s17" d="m441 175l26-11 1 16-1 6-1-7-25 3zm134 324l10-41h7v4l-8 34zm38-12l7-27h6l1 3-7 24zm-70 15l8-32h6l-7 32zm349 120l16-5 25 7 15 12h4v4h-37-18l-5-6zm-702 193l23-3h5l5 5 18-1-2 3 2 1 16 4-14 17-7 5v6l-5 5-4-1-5 6-16 14 1 19 9 2v3l-1 10-23-9-2-2 2-3h-9l-10-5-2-5-7-1-2-5-30-10v-22l3-4 16-14 18-4zm-185 84l14-7-1 11-5 10-13 8v-20zm227 17l2-8 17 7 2 5-4 7z"/>
			<path id="Path 18" fill-rule="evenodd" class="s18" d="m491 255l17-1 13 10-1 14 6 1 4 8v5l-10 1 2 11-2 28 2 7 6 1v25l3 6-3 11v37l-6 1-3 6 2 38-5-3v-14l-4 1h-12l6 11 5 8h13l-1 7-4 1-7 2v10l-1 2h-9l-8-5h-11l-3 3h-4l-1-3-16 1-5 3-17-3v-1h8l11-17v-5l-7-2-9 2h-17l-3-3-1-17-6-4-1-9-15-8-12-1-3 4h-19l-3 4-18-2-4-4 1-9-5-3v-2l14-6v-4l4 1v3h4l10-4h11l1-7 7-3-1-11 7-3 6-1 2-12h5l2 6 3-1 3 9h3l2-7h10v5h5l2-7 6-4v-7l3-1-3-7-16 1-1-8-4-2-4-5 2-10 7 1 1-4 9-2-1-11 7 1v-3l14-2-3-8 7-2 5-8 5 2 1-10 6 2 10-6zm-104 65l10-9 3 1 2 16-1 16h-2l-1-26-10 6zm181 28l2-2v3l4 1 9-4 1 3 6-2 5 4v12l6 2v20l-4 11-14-1-2-4h-5l-5-5-3-5zm229 21l-11-6v-7l7-5 8 1 4 11zm-510 39l7-3 1 4-13 9-1-2zm535 40l10-1 1 13-1 3h-7-4zm-538 9l7-4 1 8-4 4-6-1-1-4zm-284 6l30-1 2 30-6 6h-7l-3 3h-16zm822 6l3-5 4 2zm-170 36l1-5h10l11 14h6l-2 10 3 4-3 4-2-7-5 2v3h-6l-4-8zm-514 11l9-4 1 12 8-1 1 7-7 2v13 13l10-5 2 2-10 8-15 6-18-1-31-11 4-6zm690 1l5 2 1-3 6-1 42 1v12l-6 6-14-3 1 17-18 1v4l11 2 3 5h-26l-2-6 3-1 1-7-15-2-1-15 7-3zm99 16h3l3-8h10l2 10h8v3h3l2 4 8 2v6l-1 5-13 6-28-2-10-2-4-9 3-8h7zm-889 5l6-3 9 6-2 4-8 3zm-38 23v-5l5 4zm1017 12l2-4 41 1-1 9-11 9-30-2zm-101 86v-11l15 1v8l-1 4zm-19 28l5-2 16 2 5 4 8-1v10h3l4-10 5 2 1 16-7 2-1 5-24-1-4-1v-5h-4l-8-4zm-734 38v-12l9 1 1 14-6 2v3l1 37 1 27-1 7-4-1zm187 3l3-15h3v19zm94-1l8-7h3l-1 4-6 9-14 10-1-8zm-269 43l-1-22 8 4 7 6-5 4v8 12l1-3h4l1 19-5 1-1 5h-10zm773-4l17 1v-4l17 1-3 3 1 17-1 15-19-2h-12l-2-12v-5zm-749 6l5-2 19 23h-11l-6 5h-8v-19zm144 36l26-23 5 2-3 12-9 2-9 7zm-32 6l8-20 2 24-7 6zm-75 38l9-1 6 3v4l5 4v10l6 8v14l-3 6-6 2 9 6-7 2 1 6-5-1-17-7-6-2v-5l9-2 5-7-11-1-2 4-5 1-1-2 6-8 10-9-5-5v-12l-3-3zm54 35l-3-11 3-10h6v11zm-290-14v-3l2 1zm1002 23v-22l21 1 3 6 24-1 9 5v6l3-1v-4l7 2 3-7 19 2 11 9 6 10 12 34h-41l-1-12 5-1-5-20h-5l-4 18-4 3-29-2-9-10-1-7 4-5-4-3zm-1002-14v-3h1v3zm245 54v-2l1 2z"/>
			<path id="Path 19" fill-rule="evenodd" class="s19" d="m344 345l12-10v-4h1l6 1-1 7 4 1 1 4-7 6-3 9-6-2v-3l3-3v-9l-10 5zm479 46l-1-4 4-3 24 1 4 9-4 7-5 1-14-2zm-186 5l15 2 1 11-4 5-12-2-1-14zm-367 28l1-6 4 2 6-4 1 2-6 6zm430 112l3-7 11 7-3 14 6 5v10l4-14 9-5 8 2v5l6-3 1 7 6-1-1-5 6-13 3-2 6 11v12l-1 2 6 2v-13h4l2-7 6 5 4 2v10l11-5 4 5v27l7 9 10 3v5l7-3 2 10 3 1-1 7 3 1v8l-11 6-3 30-5 1-3-3-7 1v6l-5-1-6 12-4-1-2-10-4 1-2 5-14 4 2 16 2 13 6 1 4 6 18 4 5 11-3 10h3l-3 4-3-1-1 9-7 3 3 5h-6v25l5 6 1 22-4 4 3 7-4 1 19 4-1-5-9-2v-11l5-19 3-4h10l-2 22-8 6 16 4 10-15-1-22h15l11 13 2 5 5 1-2 24 3 4v8l-47 18-5 12 1 15-7 53h-77v-11l-3-4-11-4-6-7v-16l10-13-1-22-9-10 1-11-3-4-5 1-1 13-8 5-5-12-6-1-6 8-8 22 1 20 6 7v11h-12l-9-4-2-20 4-7 1-19v-9l-6-9 3-10-2-17-4-4h-5l-6 5-4 24-2 3h-6v6l-8 1 2-5-9-2 1-7-9 3-5 8v25l1 6 3 1 4 20-4 3v7l10 3 2 12 34 3 2 11h-268v-65l3-3h18v11l-10 9 19 2 4-3v-5l-9-3v-13l1-11 10-4-3-6-5 2-2-3v-32l2-10 8-1 18-5 1-6-3-1 3-12 6 2-5-9 22-19 4 26v33l3 7h4l3-1-3-9 3-7 1-24-1-26 10-8h4l-1 9 3 5 3 28 6 12-3 9 4 6 7-3h15l4-4-2-14 9-33v-5l-5-1 3-10-7-1 1 6h-4l-3-15-5-1-3 3-2 11-4 6-2-4v-16l-3-3 3-11-1-11 3-2 43-39-1-14-4-2 17-16 2 6v16l11-9-3-5 9-2 35-33 14-9v-6h10l6-6h6l1 1v13l4 1 5-15v-2h7l4 15 7-1 3-9-2-19 12 1v4h3l3-21 5 1v7l4-1v-15l-3-1zm212 32l1-9h11l28 2-2 10zm-92 96l6-2v9l14-3v28h-15l-4-4zm-5 65l2-12 20 1v21l3 4-10 11h-5l-3-5-1-6-5 2 1-5 3-2zm225 35l7-4 21 1 4 5v6l-4 7-16 1-6-3-7-3-1-6zm-126 4l6-1 3 13h-11zm-40 168l5-73 13 1v12l-5 60zm-579-30l6-5 22 2-8 12-6 2-14-2zm58 30l1-10 10 2v8z"/>
			<path id="Path 20" class="s1" d="m320 364h1v1h-1zm148 93h13v12l3 2-6 3-1 4-8 1-6-11z"/>
			<path id="Path 21" class="s2" d="m586 684l10-5 2 7 5 4v16l-7 2 1 8-5-1-2 4-8-1-4 13-6-1-1-5 1-6-3-5 3-2v-10l2 7 1-6 6-2 6-10zm121 12l7-3 3 7h15v12l-24-2zm-143 61l12-1 3-6 2 12 4 2 3-10 13 2 3-2 19 5 1 13-10 8-24 1-2 3h-20l-5-3zm-2 141l2-1 19 3 5 5v15l-14 8h-10l-4-4 4-5z"/>
			<path id="Path 22" class="s3" d="m327 476l2 12-7-2-3-5zm425 165l-2 1-4-6-1-18 3-7 4-1 6 9 4-9-1-8 5-3 3 1-1 6h5l2-6 4-1 5 9-4 28-5 3v-11l-6 3-10-3-1 8-1 1v1l-4-1zm-123-14l12-1 1 3-3 21-6 3zm59 23l17-2 2 6v8l-5 13 2 4 3-10 4-3-2-4 5-3 4 18-4 16-7 3-1-15-10-2v-8zm42 41l-3-16 10-12 4 10 6 5v10l-5-3-2 8zm-158 11l-4-10 4-21 5-2 9 15 1 7-6 10-6 2-1 6zm31-12l7-9h4l6 9v18l-4 15-1 3-1 3-6 2-3 11-7-1-1 5-5-1-4 9-3 10-4-2-2-12-3 6-12 1-2-11-8 7 4-23 2-6h3l8 1 1 5 6 1 4-13 8 1 2-4 5 1-1-8 7-2zm-68 177l-3-14-8-14 1-7h3l1 8 11 2 4 9-4 2v13z"/>
			<path id="Path 23" class="s4" d="m535 867l5-1 12 8h15l-3 23-2 1-22-1-4-15z"/>
			<path id="Path 24" class="s6" d="m332 476h8l4 4-9 4-3-2zm356 174l-1-11 8-12 6 2 3 6 1 13zm-125 74l-1-7 7-3 3 5-1 6zm75 73h5l2 6-3 4-5-1-2-6zm-98 33l5-5 1-7 6 11-2 8-3 4-3-1zm20-4l1-4-4-2 7-1 4 8-6 2zm-84 30l2 5 8 2 2 4-8 5-13-1-1-8 7-1z"/>
			<path id="Path 25" class="s7" d="m544 851l12-5 11 6 7-1-7 23h-15l-12-8v-13z"/>
			<path id="Path 26" class="s9" d="m629 627l3-17 9 3 1 16-1-3z"/>
			<path id="Path 27" class="s12" d="m632 610l4-7 5 5v5zm77 52l2 4-4 3-3 10-2-4 5-13zm-74 52l4-10 11-1-2 20 3 4-1 5-18 2v-7l4-4zm-91 126l3 1 3-4 6 2v7l-12 5-4-9zm16 84h-7l-8-8-1-16-4 1-1 5-3-1v-23l4 15 22 1 2 21z"/>
			<path id="Path 28" class="s13" d="m134 408v6l-5 5-11-1-6-10 16 2zm574 168h5l2 5 7-4 3 5-1 10 6-2 4 6 4 24-5 11v15h-5l-3-30-7 2-1 7-8-1-3-17-4-1zm50 60l1-8 10 3 6-3v11l5-3-2 11h-15v-11zm-54-1l12-3v11l-8 5-1 6-2-6zm48 6l1-4 4 1-1 4zm-20 59l-2-9 10 2-1 19h-7zm-273 13h1v1h-1zm129 41l4-9 5 1 1-5 7 1 3-11 6-2 2 11-4 4h-7l-1 10-3 2zm-512 22l2-2v2zm449 56l5-10 7 2 3 6 4 10-4 2-11-2-1-8zm27-3l2-3h6l2 3 6-2 6 15v9l-7 1-11-6v-7l-6-2zm-552 49h1v1h-1z"/>
			<path id="Path 29" class="s14" d="m735 432h11v3l-6 12h-6z"/>
			<path id="Path 30" class="s16" d="m488 340l19 2 1 7-6 7h-10zm147 374l-5-3-2-11v-23l5-18 7 5 7-1 1 6 8 9v15l-6 6v4l-11 1zm-557 62l9 2-7 7v13l1 6 9 1v7l-16 13-3-1v-29l-3-3v-8l8-8z"/>
			<path id="Path 31" class="s17" d="m60 717l22 3-6 6 3 5-6 1v4h-8l-38 12 3-15 5-6 11-9z"/>
			<path id="Path 32" class="s19" d="m112 408l-3-3-1-12 9-7 13-2 11 7 1 4v7l-8 6-6 2zm-49 60l15 2v16l-21 1-1-14z"/>
			<path id="Path 33" class="s13" d="m757 636h1v1h-1z"/>
			<path id="Path 34" class="s19" d="m611 695l8 1v3h-9z"/>
		</g>
	</g>
</svg>