<svg version="1.2" xmlns="http://www.w3.org/2000/svg" viewBox="0 0 1248 936" width="1248" height="936">
	<style>
		.s0 { opacity: 1;fill: #63cae8 } 
		.s1 { opacity: 1;fill: #75d4e4 } 
		.s2 { opacity: 1;fill: #fcdb7f } 
		.s3 { opacity: 1;fill: #cbecf1 } 
		.s4 { fill: #45767b } 
		.s5 { fill: #64a4a9 } 
		.s6 { fill: #42aff2 } 
		.s7 { fill: #4fbbd8 } 
		.s8 { fill: #55bff2 } 
		.s9 { fill: #8cdbe8 } 
		.s10 { fill: #f0d075 } 
		.s11 { fill: #ebd488 } 
		.s12 { fill: #ade3f2 } 
		.s13 { fill: #dcd8ac } 
		.s14 { fill: #e3d89e } 
		.s15 { fill: #b6e3e1 } 
		.s16 { fill: #e8e0af } 
		.s17 { fill: #daeff0 } 
		.s18 { fill: #ebf2ed } 
		.s19 { fill: #f7f3e5 } 
	</style>
	<g id="Background">
		<path id="Path 0" fill-rule="evenodd" class="s0" d="m533 1l-8 2-1-3h4zm0 0v-1h3v1zm27-1h1v1h-1zm71 35l1 3 7 2h13l4-6 16-9-3-16-5-2 1-7h4l-1 7 6 9v10l-15 14-4 10-4 3-15-5-8-9-5 1 4 3-18 2-1 3-4-9-26 2v-1h4l8-2h1l1 2 2-2 11-1 14-1 3-1h2 6zm179-33l-2 5 5 4 16-6 7 2 24 21 8 3 1 4 10 1 12 6 17 1 11-4 5-7 1-17-5 1v-4l-6-2-25-2-12-8h18l11 6 15-1 10 6-2 5 2 11-5 9-9 9-11 1h-19l-38-12-21-17-7 2-10-2-8 3-4-7 6-8 2-3zm4-1v-1h3zm400-1l-3 7-9 6-47 3 2 3-3-2-8 2-1-3-7-2 9-14zm-678 4v-3l2 2zm274-2v-1h2 1zm-250 4l-1-2h1v1zm-25 3v-2h1v5h-1zm24 0l1-2v2zm-24 5l1-2v5l-14 2-5 9 5 2-1 3 10-1v1l-1 1h-1-1-6l-12-1-4-4 4-13 5-2 4 2h8 1 2zm9 13l6-2 3 4-1-13 3-1v2 2 7 3l-3 1-1 1h-1l-1-1h-1l-1-1-3-1zm635 27l15-9 22-2 15-7 17-13v8h-7l-1 3-23 10 1 2h-7l-3-3zm-641-28l4-1-2 1zm19 59h3l-2-10 2-14-13-2v-5l6-1-1-8 8-7h2 8 1l1 1-11 5 1 32 3 10 12 10 19 6 18 1 11-3 1-4 12-5 25 5 8-14-2-5 3-3 7 3 9-1 3 3 7-2-5 7h5l-1 3-13 5 5 5-9 3h-1-4-2-1l-3-1h-2-1-2l-2-1h-3l-2-1h-8l-2-1-7-3-3 7-12 5-10 10-11 4-38-12v-3l-7-3-2-15zm21-44l-3-2h1zm201 81l-2-7 11-7 6-8v-28l14-11 21 1 4 3-7-2-21 2-6 6-2 8 2 6h3l1 9-11 16-10 3zm19 4l36 3 10-6 11-16h4l3-13-4-14-4-3-15 2-2-4 3-3-3-4 8 6 14 1 7 11 5 20-1 7-12 12-5 12 5 8 6 3 13 2 26-9 9 2 8-5 5 1 3-7h-3v-3l-19-18v-11h3v12l12 4-2 2 4 2 25 7 7 7 16 8-2 10-12 8-10 1-3 2-6 4-2 1-2 1-2 1-16 1-2-13-5-2 5-2 1-5-8-3-17 1-20 8-23 2-3-1h-2-1l-5-1h-1-1v-2l-8 2-2 1h-11l-2 4-3 1-2 1-3 1h-6l10-3 5-6 8-3 2-5-9-14-29-7 7 1h6zm-89-52l12 3 3 5-1 6 4-1 3 4-5-1h-3-1l-2-1 2-8zm21 19v-2l11 6v4l-5-3-2-1h-1zm11 8l5-1 8 4 2 8-4 16 1 11-4 12-3 1 9 14 14 5 7-7 20-1v1h-4l-8 2-4 1v4l-7 8-19-2-4-6-5-1-2-10-6-3h-1l-12-2v-4l-5 4-1-5h-4l-1 4h-6l-1-2 6-1-6-1v-1l7 1 1-5 12 2 8-9h7l3-6-2-15 3-7-1-5-1-2-2-1zm-35 49l-1 3-18 4-3-2 2-6 9 2 3-5h7l1 3zm515 214l8-1h2 1 1 1 2l1 2v-2h1l10 2v3l-2 3 2 1v17l-4-1-25 17h-4-2-5l-15 1h-1l-5 1h5 2v1h-4-7-5-10-2l-2-1h-4l-2 1h-14-2-1-1-1-1l1-2-3 2h-7-9-1 1l7 2-7 1h-1l-3-1v1h-2l-2 1h-4v-1l2-1h-3-3-2-3l4-2h-5-2-2-1-1-1-3l2 3-2 1h-4-2-2-1l-1 1h-1-1l-1 1h-1-1l-1-1h-1-1v1l-1 1h-1l-1-3-51 1h-1-1-1-8-4v-1l5-1-5-2h5l-2-2 34 2 11-2 2-3 5 2 8-1 6-1 1 3 10 1-7-4 12 3 3-4 9 2 1-2 2 3 1-4 11 1v3l4-3 27 2 4-3 13-1 2-5 7 2 4-3 30-2-9-2 14-1 6-6 7-1-4-4 13-3 1-5 6 1v-6l-17-1zm-2 1l-1-2h3v1zm-50 0v-1h2v1zm3-1h1v1h-1zm8 0h1v1h-1zm29 0h1v1h-1zm-1209 2l2-1h2 10 3 4 1 2 4l1 1v1h-1v1h4 1 7 2 4 1 1 1 1 1 1 1 1 2 1l1 1h1 4 5 2 4 2 1 2 3v1l-36 1-7 1v3l-13 1-7-2 1-2-12-4h6v-1h-11-3zm29-1h1v1h-1zm610 3l1-3h1 2 2 1 18 1l2 2v-2h1 3 1l7 2v1l-18-2-21 2zm48-2l-3-1h1zm10 0v-1h2zm440-1h1v1h-1zm-686 1h1v1h-1zm176 1l3-1h2l4 2h-3-1v1h-2l-3-1zm63 1v-2h6l-4 2zm284-1v-1h2v1zm96 0l-6-1h1 1 4zm9-1h1v1h-1zm11 1l-3-1h2 1zm1 0v-1h2zm-937 0h1v1h-1zm55 1v-1h5v1h-2zm20-1h1v1h-1zm307 0h1v1h-1zm6 1v-1h3zm30 1l4-2h1l1 1 1 1-1 1h-5zm32 0h-5l4-2h1zm1 0v-2h4v1l-3 1zm5-1v-1h1 2v1zm12 0l-2-1h2zm75 0l2-1v1zm-139 1h2v1h-1-1zm11 2v-3l2 1v1l-1 1zm10-2l2 1h-2zm105 0v-1h4v1zm-123 0h1v1h-1zm-388 1l-1 2-23-2zm33 0h-3 1 1zm539 1v-1h2v1zm129 0l-5 1 3-2h1zm-54 2l-1-2h1zm-529 0v-1h7l-2 1h-1zm443 0l-3-1h3zm79 0l-2-1h2zm2-1h1v1h-1zm34 0h-6 2 3zm-507 23l13 3 8-2 5 3 20-4 4 3 4-3 9 2 4-2-1-4h5l-3 4 6 2 20-2 37 5 6 4-6-1-5 4 14-3 1 3 27-1 1 4 2-3 17-1 13 1v3h22l2-3 2 3h-3l1 2 22-4 22 4 11-4 20 2 4-4 28 2 70-4 4 2v-3l9 4 85-2 5 3-5 4 9 1-1-2 16-2-1-2 8-3h10l2 5 4-1-2-2 3-3h4l1 3 12-1-2 3 2 2-6 2-3 2 14 2-14 1 2 3-7-3h-8l3 3-35-3h-1l-8 2-1-3 6-2-11 1v-3l-14-1-46 4-2-4-5-1-11 3-3-3-26-1-5 3-7-5-6 5-1-2-10 2-1-3-2 2-7 2v3l-1-3-5 2-8-2-9 4-9-4-39-1 13 6-19-1 7 1-1 2h-14l3 3h-5v-3l-20 1 21-2-1-5h-9l7 4h-13l5-3-8-2-29 3h-15l-6 3 2-4h5l-1-3h-5l-6 5-4-2 1-1-1 1h-28l-5 4-17-6-40 4-29-6-34 7 9 1 2 4-2 1-2-1-1-2-16 2-4 1 1-2-7 2h-12l-34 2-29-2 1 3 7 1h-2-4l-3 1-4-4-31 1-2-3-15-2-26 1-2 3-28-4-49 3-52-1-37-3-33-7v-21l22 1 1 3 10-1 2 3 51 6 173-8h1 3 2l1 1 21 1 13-4 1 3 1-3zm608 17l-4-3-6 2 1-4 7-1 5 3 6-1 1-3h8l-1-2 4 4h-5v4l-3 1zm51-3h-10l10-2zm198-1v-1h3v1zm-103 2h1v1h-1zm31 1v-1l2 1h-1zm-217 1v-1h2v1h-1zm63 0v-1h2v1zm6 0v-1l2 1h-1zm91 3v-1h1 1 1v1zm-512 4l-2 2 2-5 5 2-2 1zm366-3h1v1h-1zm-548 8h-2l2-1zm2 0v-1h4v1zm-90 5v-1l2 1zm-7 0h1v1h-1zm2 1v-1h3z"/>
		<path id="Path 1" fill-rule="evenodd" class="s1" d="m393 22l-11-12 4-6-2-4h36v22l-14 1-3-1h-4-3-1zm142-15v-4h-7l-6 5 1 3h-3l1-7-4-4h7l1 3 8-2h3v3 3zm96 28l17 1 12-6 4-12 5-1-2-7h-9l-2-3 3-7h2 1 3l-1 7 5 2 3 16-16 9-4 6h-13l-7-2zm183-34l3-1h60l12 8 25 2 6 2v4l5-1-1 17-5 7-11 4-17-1-12-6-10-1-1-4-8-3-24-21-7-2-16 6-5-4 2-5 3-1zm-254 0h1v1h-1zm-1 2h1v1h-1zm0 6h1v1h-1zm-37 25l-8 2-13-3 1-8 5-2-1-12h7l6 5-4-2-5 2-4 13 4 4zm13-20v-2h1zm20 1v-1h1l-1 3zm-15 11l2-1v1zm-2 1v-1h2zm4-1h1v1h-1zm13 3v-3l2 2zm-18-2h1v1h-1zm6 0h1v1h-1zm636 27l29-11 3 3h7l-1-2 23-10 1-3h7v2l-15 5-2 4h-6l-5 5-18 3-5-2v3l-23 6-4 4-5-2-1 4-9 3-47 9 65-20h3zm-555-19v-1l6 1zm-30 3l6-2h2l3 1zm-37 47l-2-21h-7l-12-8-8 1-4-7 8-5 11 3 8-3 2-6 7-1-8 7 1 8-6 1v5l13 2-2 14 2 10zm15-46l-1-1 3 1zm22-1l-2 2-1-2zm-16 3l-2-2 2 1zm214 69l11-16-1-9h-3l-2-6 2-8 6-6 21-2 7 2h2l1 1 1 2 3 4-3 3 2 4 15-2 4 3 4 14-3 13h-4l-11 16-10 6-36-3 24-2 21-8 6-14 7-7-1-12-3-3-9 2-8-2-7-15-18 1-6 5-1 6 8 19zm-86-35l3-1 12 7-2 8 2 1-5 1-7 8-7 3-14 1h-1l-1-1-3-1h-1-2v-1l9-3-5-5 13-5v1-1l1-3h-5l5-7 3-1zm259 21l11 6-2 4 11 5 30-2 8-7 10-2 2-3 2 2 8-6 15-2 17-9 31-7-7 5-21 3-17 8-1 3-4-2-12 4-11 7-11 2 1 3-10 4-22 1-7 5-10-1zm-421 19l-1-12 10-6 4-11 2 15 7 3v3l38 12 11-4 10-10 12-5 3-7 7 3-6-1v4l-6 3v3l-6 1 5 2 1-2-2 6-13 4-6 9-9 5-9-1-7-7-12-3-5-1h-4l-3-1h-1-7-1-2l-7-1zm186-22l-5-3 5 1zm192 2h1v1h-1zm20 1v-1h3zm-24 1l2-1h1l-8 5v7l6-1v3h5l4 6 24 9 11 8 7-3 3 6 4 1 3 8-3 4-8 4-4 7-1-2-7 2 12-8 2-10-16-8-7-7-25-7-4-2 2-2-12-4v-12l8-3zm-261 1v-1l2 1zm5 1v-1l2 1h-1zm75 2l-1-3 5 3v1h-2-1zm-71-2h1v1h-1zm3 1v-1l3 1zm6 1v-1h4v1zm66 2v-1l2 1zm-1 11l5-4-3 7 2 15-3 6h-7l-8 9-12-2-1 5-7-1-1-3h-7l-3 5-9-2-2 6 3 2 18-4 1-3 6 1-6 1 1 2h6l1-4h4l1 5 5-4v4l12 2-19 1-16-1-11 6h-7l-8-16 32-4 9-11 8 1 1-3 12-2zm39 8l3-9 10-3-9 6v6l8 4-7-1zm68 35l23-2 20-8 17-1 8 3-1 5-5 2 5 2 2 13 16-1-9 2-5 8-9 4h-1l-12 4-3 1h-5l-2-1h-1-1-1l-10-1h-1l-8 1-1-5 6-7 2 1 7-11h10l-3-10-9-1-22 5zm-21-2l8-2v2zm-15 5l2-4h11zm-74-1v-2l6 3 2 10zm210 2l10-1-1 3zm-151 2h1v1h-1zm-42 14l19 2 7-8v-4l4-1-4 11-8 9-6-1 2-2-6 2zm0 0l-6-2-3-5 5 1zm238 152v-1h1v2h-1zm2 0h1v1h-1zm-136 1h1v1h-1zm102 3l1-2 1 2v1h-2zm23-2h1v1h-1zm155 3h1v1h-1zm-73 1h1v1h-1zm-127 1h1v1h-1zm-51 4h1v1h-1zm10 3h1v1h-1zm-123 4h1v1h-1zm-69 18v-2h1v1 1zm274-1l-17-1h17zm39-1h1v1h-1zm12 1l-2-1h2zm30 0v-1h1 1 3v1zm7 0v-1h2zm10-1h1v1h-1zm60 1l3-1h2l11 1v1h-5-10-1-1l-1 1h-9l2-2h8zm100-1v2l-1-2zm11 2l-10-2h1 9zm-606 0v-1h5 3 1 1 1 1 1 1 1 1 6v1h-18-1-2zm26 0v-1h3v1zm12 0v-1h5v1h-1zm20-1h1v1h-1zm3 2v-2h1v1zm78-2h1v1h-1zm304 2l2-2h2v2h-2zm8 0l1-2h1 29l1 2h-14-1-1-1-5-2-4-2zm87-1l-4-1h4zm1 0v-1h17 4 3 4v1h-1-1-2l-7 1h-1l-4-1h-7-1zm38 0l2-1v1zm-1191 0h1v1h-1zm16 2v-2h1v2zm2 0l1-2h2 3 6 2 2l-1 2h-5-2-1-1-1l-4 1h-1zm58-2h1v1h-1zm518 2l6-2h2v1l-3 1zm10-1v-1h2 6l-1 3h-3zm35-1v2l-2-2zm12 2l-7-2h8zm8-1l-2-1h11 1v1h-1-6zm19-1h1v1h-1zm33 1v-1h1 1v1 1h-1zm-615 1l-2-1h2zm1-1h1v1h-1zm145 1v-1h3v1zm175-1h1v1h-1zm195 2l21-2 18 2h3 1 1v1h-14-1-24zm62-2h1v1h-1zm111 0h1v1h-1zm132 0h1v1h-1zm5 1v-1h2v1zm10 0l14-1v1h-1zm16 0v-1h14l-3 1h-4zm52 0v-1h2v1zm42 0v-1h9v1zm20-1h1v1h-1zm-1090 2v-1h3v1zm153-1h1v1h-1zm2 1v-1h3v1zm6-1h1v1h-1zm47 0h1v1h-1zm17 1v-1h4v1zm312-1h1v1h-1zm4 0h1v1h-1zm63 2v-2h1v2zm9-1v-1h7l2 1h1v1h-8zm86-1h1v1h-1zm3 2l1-2 5 2zm7 0l1-2h1v2zm27-2h1v1h-1zm7 1v-1h2v1zm170-1h1v1h-1zm8 1l2-1v1zm-881 0h-7 1 2 1 2zm566 1l3-1h1v1zm26-1h1v1h-1zm56 1v-1h2 2 3v1zm30 0l2-1h2zm70 0v-1h2 1 4v2h-4-3zm460 3l-2-1 2-3zm-514-2l1-1h1zm10-1h1v1h-1zm3 0h1v1h-1zm6 1v-1h3v1zm4 0v-1h1 1v1h-1zm9 0v-1h2v1zm54 1l2 1-2 1zm53-1h1v1h-1zm-43 2h5l-3 1zm15 0l3-1v1zm-111 0h1v1h-1zm79 1v-1h2v1h-1zm406 32l25-17 4 1v8l-4 3 4 1v1l-4 1-8 2h-16zm-26 1l15-1v3h-4l-1-1h-1-3-5zm22 0v-1h4v1l-1 1h-1l-1-1zm-23 1h-5l5-1zm47 0v-1h2v1zm-540 4l2-2 1 3 10-2 1 2 6-5 7 5 5-3 26 1 3 3 11-3 5 1 2 4 46-4 14 1v3l11-1-6 2 1 3 8-2h1l35 3-3-3h8l7 3-2-3 14-1-14-2 3-2 6-2 2 1h1v1l-2 2h5 2l5 1 4 1v1l1-1 4 3-11 3-1 3h-17l-5 3h-1l-5 1-6 1h-2-2-16-1-2-1-22l2-2-3-1-8 2 8 1-1 1-8 1h-2l-16 1h-1-4-1-1l-10 1h-3-1-2-2-3-2v1h-5-4-2-2-1-5-1-2v-1l-2 1h-2-1-1-3-4v1h-1-1-1-2-1-1-2l-7 1h-3l6-3-27 1h-32v-1l-1 1h-1-18-1-5l-2-1 5-3-9-5h-7v3l7 1v4l-17 1 2-3-6-5-5 2-14-2-5 4-16 2v4h12l-4 1v1l1 3-3 1v1h-1-5l-3 1-1 1h-2-1l-7 1h-1l-2-2-4 2h-2-4-1-1-1l-1-1-1-1h-9l1-2 20-3-1-4-81-5h-69l-5 1v3l-27 3-13-2-31 4-16-1-61 3-38-4-20 3-26-2-122 2-49-10v-18l33 7 37 3 52 1 49-3 28 4 2-3 26-1 15 2 2 3 31-1 4 4h2l1 1h1l3-1h2 2l-2-1-7-1-1-3 29 2 34-2h12 6l4-1 16-2 1 2h-4-2l-2 1h2 2 4 2l2-1-2-4-9-1 34-7 29 6 40-4 17 6 5-4h28l4 2 6-5h5l1 3h-5l-2 4 6-3h15l-2 5 2-2h3l2-1-5-2 29-3 8 2-5 3h13l-7-4h9l1 5-21 2 20-1v3h5l-3-3h14l1-2-7-1 19 1-13-6 39 1 9 4 9-4 8 2 5-2 1 3v-3zm302-2v-2h3l2 2zm119-1h9 7l-1 3h-6l-2-1zm38 0l2-1v1zm6 0v-1l2 1zm38-1h1v1h-1zm-12 2v-1h4zm-96 2v-1h2v1zm-182 1v-1h2 1v1zm51 0l3-1h1 1 1 3 1v1h-7zm13 0v-1h3v1zm112 0l2-1v1zm18 0l-1-1h2 1v1zm45-1h1v1h-1zm-150 2l-3-1h3zm15 0l51-1 1 3-6 1-12-1v3h-1l-8-3-14 3-16-2h-1-2-1l-2-3h8 1 1zm98-1h1v1h-1zm71 1v-1l3 1-1 1h-1zm-112 1h1v1h-1zm-66 2h1v1h-1zm-23 7h2-1zm-49 4h-4l4-1zm-19 1h12-3-1zm-23 1l-2-1h3v1zm2-1h1v1h-1zm-59 2h1v1h-1zm-196 5v-1h2v1zm-32 2l13-2 8 1-9 2-8 1zm0 2l-3-2h3zm-19 3l1-2v2zm-68 4l2-2 7 1-7 2h-2zm20 2v-1l2 1z"/>
		<path id="Path 2" class="s2" d="m1124 520l-4-34-6-2 7-4 127-1v457h-1076l11-16 14-7 30-8 10-11 9-4 15-1 11 3 10 7 10-2 13 7 18-2 20-11 23-7h12l11-6 36-1 17-5 6-7 20-10 16-2 7-5 16-1 19-11 30-8 8-6 33-7 6-5 82-27 14-11 10-18 14-8 9-15 26-18 29-15 38-14h25l23-6 54-28 17-4 39-19 33-8 18-8 24-4 18-10 7-12 17-16 16-14 6-10z"/>
		<path id="Path 3" fill-rule="evenodd" class="s3" d="m305 31l-9-1-1-10-5-8 8-6 15 3 7-3 9 3 12-3 19 12 5-1-1-5 4-5 11-7h2l-13 11 2 10-2 2 5 1-12 2 7 4 14 1-2-6h26l2 1h2 3l2-1 3-1h2 2v1l-4 2-8 4-3-2v3l-2-4-1 4-21 4h-3-12l-6-4-8 3-2-4-23 4-10-3-1 2h-1l-2-1-1-3-7 1h-1zm328-31l3 7h4l4 7 7 3-2 11-9 4-19-2-4 3-25 2-18-3 5-11-3-8 6-13zm-188 16v-1l7 1-4 3 2 3 11 1 7-3v1h-1l-2 1-1 1-2 1h-1l-17 1h-1l-4-1h-1-14v-1h8l2-1 5-3 2 2 2-1h1l1-1 2-1zm47 15l1-10-11-3 13 1 1 8zm-69-7h1v1h-1zm49 104v-12l21-7 9-11-2-12-12-7-7-10 3-8-4-1-1-4 4-9-2-6h3l8-10-7 11 1 11 7 16-4 1v6l13 6 7 21 30 8 2 2 2 2 1 1h1l11 3-11 1-3 3-1-4-9 3-24 3h-1l-1 1-1 1h-4l6-4-4-5 1-4-15-4-15 9zm621-28l8-5 64-9 19-7 40-25 24-5v13l-17 3-16 9-9 12-3 18-11 7-31 1-16-5-58 2-41 13-13 9-4-1-14 17 1 4-7 14-6 4-3 7v7l-5 8 6 3 1 7-10-1-11-4-1-4-15-4-58 7-13-3-44 1h-2-1-1l-6-1-2-1-34-6-12 2-15 5-9 14-14 5 3 2-11 2-11-4-2-4-37-1-5-3 4-5-2-3 5-5 5 2 6-7 5-18-22 3-18-3 28-1 10-5 20 1 3 4-1 9 7 10 22 6 16-1 36-10 12 8 24 4 11-2 53 1 12-5 10-9 37-6 23-15 14-15 2-8 19-16 17-8 17-2 3-1 1 3 1-4zm-377-1l11-2 12 8-9 18-23 4-17 13h-29l-10 4-15-1-12 3-6 8-2-2-6 4 8 4 16-2 6 5 15-2 19 6-45-4-42 4-9-39-11-8-8-1 20 4 13 26 13-2 1-7 10-12 21-4 31-19h37l-11 4 2 12 8 3 21-1 6-6 1-16zm-10 5l5-5h4zm542 71l-40 8-16 9-66-2-33 8-6 10-7 2h-10l-5-4 2-7-2-10 8-13v-5l3 1 9-7 46-3 6 3 10-5 24-3 10-7 4 1 7-8 13-3 11-19 7-5 25-3zm-692-57h1v1h-1zm-556 36l13-2 7-9 22-1 19-7 18-1 6-3 1-7h3l16 8h7l13 10 13 3 7 8 21 8 10 4 6 1 1 1h1l1 1h1l9 1 10 1 19 4v3l4-1 10 8 10 1h1l5 1h3l5 1 11 1 9 1h1l-1 2h3l1-2h2 4l24-2 6 13-6 6v4l4 2h-1l-1 1-2 2-5 1h-3-6l-2-2-4-3-6 1-2-4h-10l-5 4h-27l-15 5 9-6 22 1 2-3 15-3 3-3-5-8-4 2v-3l-10-2h-21l-3-4-6-1-5-7-61-14-27-14 1-2-19-3-11-9-18-3-37 3-28 17-5-2-23 7zm499-26l2-1v1h-1zm-3 1l2-1v1h-1zm-2 1v-1h2v1zm-9 2l-9-2 10 1h2v1zm3-1v-1h3v1zm-383 38l3-1h16v1h-4-5l-3 1h-7zm19 0l1-1 11 1 9 11 13 2 8 2 12-2 12 8-15 11 2 5 21 1 12 5-17-2h-3l-14-2-5-6h-6l-6-16-24-9-3-5-7-2h-1zm-23 2l1-1h3v1l-1 1h-1-4v-1zm-10 2l1-1h6v1h-2l-3 1h-3-1zm-8 2l5-1v1h-3zm-83 2l9 5 31 1 26-8h11v1l-2 1-2 1-31 6h-1l-41-1zm82-2h1v1h-1zm135 40h-6l-1-3zm6 3l-6-3 13 2zm968 27l4-6 3 3-1-2 17-6 9 1 20 10v9l-4 4-20 10v4l-8-1-4 3-3-2 1 3-4-2-13 4-25 13-22-2-29 2-12 7v7l6 3-3 4 50-5-4-3 8-2 42-1 19 3 30 12v19h-1l-12-2h-1-1-1-1-2l-3 1-6 1v-3l-10-8-17-4-13 1-37-3h-1-1-1l-2-1-2-1-1 1-18 4h-1l-2 6-22 4-3 4h-1-3l-3 1h-2-4-1-5-1-1-1-1-1-2l-1-1h-1-1-1-1-3-4-1l-1-1v-1l-2-1-1 1-1 1h-1l-1-1h-1-1l-5-1-1-3-1 1-1 1h-1-2l-1-2h-1-2-2-2-2-4-1-1-1-1-1-1l-1 1h-2-1-1-1-1-4-1-2-1l-1-1h-2v1l-1 1h-2-1-1l-10-6-49 3-50-4-11 2v-4l-4 5-1-3-2 2-2-2h-6l-61 11-2 3-5-2-17 9v4h-2l-1 1-2 1-2-1v-1l-1-1h-3-1l-1 1-1 2-1 1-1 1-2 1-1 1h-1-2-3l-1 1-1 1-2 2h-2l-2 1-15 3h-5-2l-6 1h-3-1l-3 1h-1-13-5-9-3-4-6-1-1-1-1-1-1-1-1-3-5-8-2-4l-15-3-22 3-34 2h-4-1l-11-1h-2l-7 1h-3l-6 1h-4-6l-8-1h-2-6-3l-8 1h-2-1-1-2-1l-19-1h-5-1-1-1-2-4-1-3-1l-5 1h-9-5-1l-1-1h-3l-1 1h-5l-8-1h-7l-9 1h-2-1-2l-3-1h-3-17-4-4-1-12-2-1-1-11-1-9-1-10-18l-2-1h-1-3-1l-3-1-3 1h-2-3l-1 1h-5-4-1l-3-1h-4-1l-8 1h-5l-8-1h-1-2-1l-3 1h-6-3-3l-1 1h-4l-5 1h-2-1-4-2-1l-5-1h-1-1-7-1-2v-2l-1 2h-2l-7-2h-5l-1 1h-2l-1 1h-4l1-2h-3-1l-1-1 34-5 52 3 21-7h9l4-2-2-3 19-3 67 1 31 4 17-5-7-9 2-4-2-6 3-4 31 4v3l-9 2 4 4-2 8 11 5h15l28-6 46 1 7-2 16-14h9l8 7h13l26-10 28 1 18-3 24 11h20l61-9 14-12 26-2 26 3 19-4h40l128-11 11 2 9 8h7l3-2-3-1 6-2-12-15-16-4v-8l4-5 18-9 40-15 85 9 33-7zm-1087 64l90-2 15 4h32l39-2 53 10v4l6 2-11 9-23-1-33 6-28-7-23-1-51 6-100-2-29 2-14 4-27-2v-20l4-1v-4l29 1 13-3 6 2-1-2 6-1 16 3 5-4zm-18 56v-1h18v1h-3-7-2-2-1-1-1zm19 0v-1h5v1h-3-1zm6 0v-1l12 1h-1-3-1-2-3zm13 0l16-1v1h-7zm-91 2h1v1h-1zm3 0h1v1h-1zm17 0h1v1h-1zm33 1v-1h2v1zm7 0v-1h1 5 1 1 4 4 1v1zm18 0v-1h1 1v1h-1zm1113 38h1v1h-1zm5 0h1v1h-1zm9 1h1v1h-1zm3 2h1v1h-1zm-12 2v-1h3v1zm6 0l1-1 1 2-1 1h-3-1zm-20 1l3-1v1zm-126 2l-1-2h2 3v1zm28-1v-1h1 4l-3 2zm108 1v-2h1v2zm12-2h1v1h-1zm-122 1h1v1h-1zm1 1h1v1h-1zm68 0h1v1h-1zm-106 3v-2l1 2zm108-2h1v1h-1zm50 1v-1h2v1zm-9 0h1v1h-1zm-219 2v-1h4v1zm56 0l3-1v1h-1zm-67 2l-1-2 5 1zm5-1l4-1v1h-1zm50-1h1v1h-1zm-10 2h1v1h-1zm-15 2v-1h2v1zm-16 1v-1h4v1zm-30 1h1v1h-1zm-1 1h1v1h-1zm-80 3h1v1h-1zm24 0h1v1h-1zm-62 2h1v1h-1zm2 0h1v1h-1zm17 1v-1h2 4v1zm-9 0h1v1h-1zm-8 1h1v1h-1zm1 1h1v1h-1zm-81 2v-1h2v1zm-38 1v-1h2 3v1zm-61 0h1v1h-1zm23 0h1v1h-1zm30 0h1v1h-1zm-24 2v-1h2v1zm17-1h1v1h-1zm-70 1h1v1h-1zm-52 2h1v1h-1zm-2 1h1v1h-1zm-15 1h1v1h-1zm5 1v-1h1l1 1zm6-1h1v1h-1zm2 1v-1l1 2h-1zm3 0h1v1h-1zm-29 1h1v1h-1zm-29 4v-1h1 1 4v1zm15 0v-1h2v1zm-48 1v-1h3 1v1zm24 0v-1h2 1v1zm18-1h1v1h-1zm2 0h1v1h-1zm-63 2h1v1h-1zm-39 1h1v1h-1zm-24 1h1v1h-1zm37 0h1v1h-1zm3 0h1v1h-1zm3 0h1v1h-1zm-74 5h1v1h-1zm-82 2h1v1h-1zm13 1v-1h2v1zm-26 2h-3l3-1zm-37 0h1v1h-1zm-54 1h1v1h-1zm58 0h1v1h-1zm3 0h1v1h-1zm4 0h1v1h-1zm2 1v-1h2v1zm16 0l4-1v1zm-86 0h1v1h-1zm58 0h1v1h-1zm2 0h1v1h-1zm-80 2h1v1h-1zm3 0h1v1h-1zm2 0h1v1h-1zm-43 3v-1h2v1zm-12 0h1v1h-1zm5 0h1v1h-1zm-56 2h1v1h-1zm2 0h1v1h-1zm3 0h1v1h-1zm27 1v-1h2zm-16 1h1v1h-1zm-42 2h1v1h-1zm-39 1h1v1h-1zm288 29h1v1h-1z"/>
		<path id="Path 4" fill-rule="evenodd" class="s4" d="m1009 329l1-1h19l1 2h4l2 1 5 1 1 2 1-1h2l1-1h1l2 2h9v1h7l2 2h1l2-2h5v1h7l1-1h8l1 1h5l1-1h2v3l2-2v-1l2-1h1l1 1h3l1 1h2l6-2 1-1h1l2 2 1-2h4v1l4 1v-3h1l1-1h2l2 1 1 1v1l1 1 1-1v-1h1l1-1h1l1 2 1 1 2-4h1v1l2 2h5l1-1h1l1-1h2v2l-2 2h2l1-2v-1h8v-2l1-1 2 1h3l2-1h1l1 1 2 1 5 2h1v-1h9l2-1 1-1h3l5 3h-8l3 2h5l2-1h1v1h9l1-1 2-1h4l2-1h2l1 2h17v27l-9 1h-99l-3 1h-48l-11-1h-18l-11 1h-5l-14-1h-87l-1-1h-1v-2l-8 2h-6l-2-1h-3l-3 1-5 2h-17l2-3h-6l1 3h-120l-33 1h-1l-9-1 3-4 2-1 8 1 3-4-4 1h-2v-1l1-1 9-1v-1l1-1v-1l1-1 5 2-3-4 1-1h3v1l1 2h4l1-1h2l2-1h5l1-1 3-1h1l1-1h8l2-2h7l1-1 2-1 1-1h6l1-1 3-1 3 3 1-1h2l4-4h1l2-1 5 1h7l1 1v1l1 2h3l3-3 1-2v-1h2v1l1 1h2l1 1h2v-3h4l-1-2 1-1h3l1 1v1l-1 1v1l1 1h1l2-1h1l2 2h1l1 1h1l4 1v-2h4l1 1h1l2-2 1 2-1 1h2l1-1h2l1 1v1h-1l-1 2 2-1h7l3 3 2-2v-1l1-1h10l1-1h5l1-1h1l1 1 1-1h3v1l1 1 1-1 3-1h2v-1h8l2-1h6l1-1h1l1-1h5l3-3h3l-1 2-2 1 1 1 1-1h2l1 1h5v-1h5l1-1v-1h2l1 1h2v-1h5l1 2h4v-1h-2l-1-2h3l3-1h4l2-1h6l1 1h1l1-1zm223 5v-1h3v1zm-500 27l-2 2h-3l2-2zm8 6h1v1h-1zm18 1l4-1v1zm272-1h1v1h-1zm-878 2v-1h12v1zm14 0v-1h13v1zm17 0v-1h2v1zm29 0v-1h4l2 1zm11-1h1v1h-1zm7 1v-1h15v1zm518 0l10-1v1zm86-1l1 2-4-2zm24 2l-9-2h14l-2 2zm10 0l-2-2h13l-8 2zm25-1h-3l3-1zm70 103h1v1h-1zm-116 8h1v1h-1zm-279 14l4-2h2v2l6 1-3 2v1l-5 1h-2l-1 1-4-1-1-1h-2v-1l-2-1-1-1v-1l2-1 2 3 3-2zm13-2h4l2 2h3v2h-4l-1-1-3-1h-1zm-403 37v-1l4 1zm-58 5h1v2h-1zm-5 2l1-1h2v2h-3zm227-169h-7 1 2z"/>
		<path id="Path 5" fill-rule="evenodd" class="s5" d="m993 330v-2h1v1 1zm41-1l1-1 1 3-2-1zm-38 1v-1h2zm8-1h1v1h-1zm2 0h1v1h-1zm-17 2v-1h2 1zm144-1h1v1h-1zm39 1l-2-1h2zm27 0l3-1v1zm-343 0h1v1h-1zm118 1l2-1v1zm8-1h1v1h-1zm150 0h1v1h-1zm11 1v-1h3 1l-2 4-1-1zm64 2l-5-3h1l5 1v1zm3 1l2-4 2 1-2 2-1 1zm-357-1l1-2h2l1 2zm115 0l3-2v1 1zm8-2h1v1h-1zm9 2l-1-2h1zm57 0v-2h1v1zm7 0l-2-2h2v1zm71-1l1-1h2v1l-1 2zm37-1h1v1h-1zm39 1v-1h2zm33 0v-1h2v1h-1zm4 0v-1h1 1v1zm-275 1l2-1v1l-1 1zm15-1h1v1h-1zm229 3l-3-2h5zm24-2v-1h2zm5-1h1v1h-1zm4 1v-1l3 1zm-273 0h1v1h-1zm27 0h-4 2 1zm97 1v-1h2 1v1zm53-1h1v1h-1zm22 0l-1 2h-2l2-2zm59 1v-1h2zm13-1h1v1h-1zm14 0h1v1h-1zm-403 3v-2h1zm3-2h1v1h-1zm18 0h1v1h-1zm17 1l2-1v3h-1zm187-1h1v1h-1zm13 0h1v1h-1zm9 0h1v1h-1zm6 0h1v1h-1zm5 1l-2 2v-3zm105 0v-1h2zm-341 0h1v1h-1zm9 1v-1l3 1zm60-1h1v1h-1zm131 0h1v1h-1zm13 0h-4 1zm-211 1h1v1h-1zm54 0h1v1h-1zm-48 2l-4-1h3 1zm10-1h1v1h-1zm33 0h1v1h-1zm3 0h1v1h-1zm6 1v-1h2 1zm-42 0h-2 1zm40 0h1v1h-1zm-36 2l-2 1 1-2zm-91 1h1v1h-1zm101 1h1v1h-1zm-119 2h1v1h-1zm-24 2h1v1h-1zm15 0h1v1h-1zm-17 3l1-2h1l3 4zm7 0l-1-2h1v1zm7-1v-1h2zm-3 0h1v1h-1zm-13 3h1v1h-1zm-9 3v-1h3 2 1 1 2zm-1 0h1v1h-1zm2 2l4-1-3 4-8-1v-1h2zm-3-1h1v1h-1zm-6 4v-1h2zm-2 1l2-1-3 4h-1-2l-1 1h-5l-1 1h-3v-1l1-1v-1h1 3 1v-1h1l1-1h3l-2 2h3zm201 1l8-2v2h-3-1l-1 1-2-1zm-39 2l-1-3h6l-2 3h-1zm25-2l3-1-1 1zm7 0l-1-1 2 1zm-12 2l5-2v1h2 5 1 1 3 2v1 1h-1-1-12zm32-1h3-2zm293 0l9-1v1zm-535 1v-1h1v2h-1zm7 0l1-1h2l1 1 1 2h-8-1v-1l3-1zm233 0v-1h2v1zm7 0l-2-1h9v1h-1l-5 1zm28-1h1v1h-1zm39 1l-10-1h10zm12 0v-1l14 1zm19 0l11-1v1zm16 0v-1h2v1zm13 0v-1l11 1h-2zm15 0h2-1zm32 0h11-8zm28 0l-11-1h27v1h-2-3-1-4l-3 3h-9l1-2h5zm18 0v-1h27v1h-17-1-4-3-1zm31 0v-1h3v1zm8 0v-1h4v1zm-479 1v-1l9 1h-1-4zm10 0l33-1v1h-4l-8 2-4 1-10 1h-1l-2-2h-2l-1-1h-1zm41 0v-1h98v1h-11l-2 1h-8-1-1-2l-1 1-19-1-2-1h-3-1-3-10l-2 1h-1-14l14 1h1l5 1h1l6-2h3 1l1 2 4 2-1-2h12 1 2l9 2-7 1h-1-1-1l-3 1h-2-8-5-8l-2-1h-1l-3 1h-1-2-2l-16-2v-2h-4-1-5 1 2v1l-3 2-4-2h-5l-8 1v-1-1h-6v-1l8-1h5v1l3-1h3 5zm-6 0v-1h4v1zm105-1h1v1h-1zm-849 3l2-2h3 2 1 3l-1 2h-2-1-2-1-2-1zm43-1v-1h1 4 1 1l-1 1-1 1h-4zm10 1l1-2h1 1 1 1 2l-1 2h-3-2zm853-1h3 1l3 1h1 4 2l-29 1v-1h2 1 1 2l7-1h1zm235-1l1 2h-7l2-2h2 1zm-1072 2v-1h3 1v1zm23-1h1v1h-1zm755 1l4-1h2 3l5 1v1l-3 1h3l-19 1h-1-1-1l8-2zm14 1l2-2h6l2 2-4 1h-3-3zm245-2h-3 1 1zm-922 2v-1h5l2 1v1h-5zm17-1h1v1h-1zm8 1v-1h2v1zm4 0l3-1h18 4 3 8 11 2 8 10 1 18 3 1 7 8 1 4 4 17 3 3 2 1 2 9 6l3 2 1-2h5 5 1 3 1 1 5 9 4l1 2-13 2h-8v-3l-8 3-34-3-105 3h-1l-12-1h-1-3-2v-1h-5-4zm213-1h-7 1 1 1 1zm49 2l-8-2h6 8 6l1 2zm222-1v-1h5 2v1h-1l-1 2 2-1h3l1-1h1l3 1 1 1v1h-2-1l-7 1h-1-3l-19-3h6l4-1h2 1 3zm12-1h1v1h-1zm116 0h1v1h-1zm116 1v-1h1 2zm57 0l-2-1h2zm1 0v-1l2 1zm-973 0h1v1h-1zm5 1v-1h1 4v1zm7 0v-1h3 1v1zm6-1h1v1h-1zm3 1v-1h3 1 3 2 5 17 1 1l-4 2h-4-15-1-1-2l-3-1zm35 1l-1-2h1 25 1 1 2 8 1v1l-14 1h-3-19zm50-1v-1h2v1zm15 0v-1h1 1 1 1v1zm6 0v-1h2 1 2 4 1 2 5 5 1 1 3v1h-1-5-1-1l-10 1h-1zm39 0v-1h1 4 1v1zm534 0v-1h3l-2 1zm103 1l2-2h3l2 2zm-688 0v-1h4v1zm575 0v-1h5v1zm8-1h1v1h-1zm3 1l1 2h-5l3-2zm89 1h1v1h-1zm246 39l-3-2h1 1 1zm2 0v-2h2l-1 2zm-182 1h4-3zm7 0l10 1h-8l-1-1zm184 0l2-1v1zm9 1v-1h2v1h-1zm-43 1h1v1h-1zm22 4l2-1v1 1h-2zm12 0v-1h1l1 1zm3-1h1v1h-1zm120 1l8-1h2 2l1 1h2 3 1 1v1h-1-2-1-1-2-1-3-9zm-236 5l2-1v1zm17-1h1v1h-1zm-34 3v-1h1 1v1zm-693 5v-1h4v1h-3zm612-1h1v1h-1zm-57 2h22-4l-2 1h-6-10zm26 0h16-1-3-1-2-7-1zm20 0l6-1v1h-1-1zm-260 5l17-1v1h-1l-4 1h-6l-8-1zm19 0v-1h1 1l2 1zm102 0h4-2-1zm26 0h4-1zm-35 1h2-1zm-148 2l4-1h1 12 1l3 2v1h-1-5-1-1-4-6l-1 2h-1l-1-3zm25 1l8-1v1h-4-3zm613-1h1v1h-1zm-3 3v-1h2v1zm-702 4l3-1-2 2zm3 2l7-2h2l3 1h9l2-1h1l1 1v1h-1l-3 1h-1l-2-1zm480 21l-1-1h2 1v1h-1zm-49 5v-1h3v1zm-946 2h-2l2-1zm1 0v-1h2v2zm896 3v-1h2v1h-1zm-16 1v-1h5 2v1h-3-2zm-41 1h1v1h-1zm-51 4h1v1h-1zm-138 4l1-1h3v2h-1-1-2zm-98 4l1-1h1l3 2v1l-3 2-2-3zm7 0v-1h4v1l-4 2v-1zm17 0h1v1h-1zm-5 1h1v1h-1zm6 0h1v1h-1zm-28 1h1v1h-1zm22 1l-6-1h1 1 1 2 1zm-73 7l-2-1h2zm-386 34v-2h1v2zm-6-1h1v1h-1zm4 0h1v1h-1zm-101 3l2-2v2zm96-2h1v1h-1zm4 0h1v1h-1zm2 0h1v1h-1zm-3 2l-2-1h2zm-102 2h-5l3-2h1 4v1l-2 1z"/>
		<path id="Path 6" class="s6" d="m805 5l-6 3-6 14 12 13v6l-18 11-9 10 2 20-2 3-3 3-24-2-15 3 2-2-5 1-8-11-10-5-16 3-17-2-16-13 2-9 2 1-2-3 5-7v-11l5-3 1-12 4-7-1-9h130v1h-2l-3 1zm283-5l-22 16-14 5-1 5-12 13-21 8-3 7 4 5 7 3 23-22 8-2 75 3 21-7 18-1 3 6-11 5 2 2-14 2-3 5-1-4-11 2-1 3-4-2-27 11-33 3-15 10-28 4-16 9-16 1-20-6h-13l-23 3-4 3-12-1 2 3-9-1-11 6-13-2-8-6-1-6 12-17 32-14 10-10 4-21-3-4v-13l-6-4zm-829 370h1v1h-1zm13 1h1v1h-1z"/>
		<path id="Path 7" fill-rule="evenodd" class="s7" d="m1214 364v-1h4l1 2h2l17 1v6l-6-1-1 5-13 3 4 4-7 1-6 6-14 1 9 2-30 2-4 3-7-2-2 5-13 1-4 3-27-2-4 3v-3l-11-1-1 4-2-3-1 2-9-2-3 4-12-3 7 4-10-1-1-3-6 1-8 1-5-2-2 3-11 2-34-2h-3l-10 2h10l5 2-5 1h-3-14-1-2l-2-1h-3-1-2-1-3-1-1-1v-4h5l-4-4 1 2h-8l-1 3-6 1-5-3-7 1-1 4 6-2 4 3h-14-1-4l-10-1h-1-1-1-4-2-2-1l-2-1-2-2 2-3-12 1-1-3h-4l-3 3 2 2-4 1-2-5h-10l-8 3 1 2-16 2 1 2-9-1 5-4-5-3-85 2-9-4v3l-4-2-70 4-28-2-4 4-20-2-11 4-22-4-22 4-1-2h3l-2-3-2 3h-22v-3l-13-1-17 1-2 3-1-4-27 1-1-3-14 3 5-4 6 1-6-4-37-5-20 2-6-2 3-4h-5l1 4-4 2-9-2-4 3-4-3-20 4-5-3-8 2-13-3-40-1-1 3-1-3-13 4-21-1-1-1h-2-3-1v-2l-5 2v-4h4l-1-3 5-2h-7l1-4-6-1-7 1 3 3-8 1 1 3-3 1 1 3 7-2v3l-16 1-14-2h3l-3-1 7-1-1-2h5l1-3h-4l-1-5-16-2 19-3 30 1 1-3 10 2-1-3h5l-2 3h4v-4l16 2 4-2 3 2 1-2h1l1 2 5-2-4-1h-7-18v-1l105-3 34 3 8-3v3h8l13-2-1-2h1 1 3l1-1h4 1v1h7 2 19 1 2 1 1 2 8 5l8 2h13l-1-2h4 6 7l1 1h1 3 1l3-1h2 2 3 1 4 6 5 1 2 5l-4 2h-1l-2-1h-1l-1 1h-2-1-2-1-1-2l-3 1h3 1 1 1l8 1h1l1-1h2 5 1 2l-2-1-1-1v-1h9 3 3 2 8l-4 2h5 1 1 4 5 8 7 2 1 12 24 1 14 4 7 7 6 1 2 1l19 3 3 1 1-1 7-1h1 2 2v-1h1 5 3 1 1l-3 2h5l-1-2h7 2l8-1h5l4 2 3-2v1h3 4l16 2 2 1h1 1l1-1 3-1 1 2 2-1h8l2 1 3-1h8 6v-1h1 1l7-1h3 7 3 1l-3 2 5-1v-1l19-1h3 3l4-1h10 1 7 2l29-1h1 6 1 13v1l3-1h7 4l3-1h20 2 1 2 1 10 2v1l2 1h1 2l-2-1h-1v-1h15 5 14l6 1h9l1-1h1 4 2l3 1h1l2-1h2 2 4 2 5 1 1 1 14 1 9 3v-1h10l-1 2h9l3-3h4 1 3 2v1l-2 2h7l-1-2v-1h3l4 1h1 4 1 7l4 1h1l7-1h2 1 1l1-1zm-16 0v-1h4v1zm7 0v-1h5v1h-1zm-36 0v-1h2v1zm52 0v-1h8zm-521 1l1-1h1 1v2h-1l-1 1h-1-1l-2 1h-2-3l4-2h1l2-1zm471-1h1v1h-1zm-1171 2v-1h2zm29 0l1-1h1 3l-2 2h-3zm13 1l1-2h1v2zm3 0v-2h2l-1 2zm598-2h-2 1zm36 2l1-2h4l3 1h3v2h-2-4-1-1-3zm457-2h1v1h-1zm-922 3v-1h2v1zm9 0l-2-1h4v1h-1zm7 0v-1h3v1zm4 0v-1h5 2v1zm9 0v-1h4 1l-3 1zm163-1l-1 2-3-2h1zm203 0h1v1h-1zm13 1v-1h5v1h-4zm-565 0h1v1h-1zm2 1v-1h2 1 1v1zm9 0v-1h1 1v1zm6 0v-1h2v1zm3 0v-1h2v1zm31 1l4-2h1l1 2zm-26 0v-1l3 1zm56 0l14-1h12 2 7v1h-24zm39 0v-1h2 4 2l8 1zm17 0l10-1v1h-1-1-1zm11-1h1v1h-1zm40 2l-34-2h1 6 5 1 6 15 4 5v1h-5l-1 1h-2zm14 0l-3-1h3zm1 0v-1l12 1v1h-6zm876 37l3-2-1 2zm58 0v-1h5v1h-1-1-1zm-104 3l-2-3h3l3 2v1zm4-1v-2h2v2zm3 0l1-2h5l-4 2h-1zm7 0h3l-2 1h-1zm3 1v-1h3l-2 1zm9 0v-1l3 1h-1l-1 1h-1zm4 0l7-1v1zm-8 1l2-1v1zm-42 1h1v1h-1zm-715 11l7-2-1 2zm21 0v-1h2v1zm6 0v-1l2 1zm-103 5l3-1v1h-1zm7 0v-1h2v1zm-4 0h1v1h-1z"/>
		<path id="Path 8" fill-rule="evenodd" class="s8" d="m536 1v-1h24v2l-1 1v1l1 2v1l-1 2v1l-4 4v1l-3 1 1 13-3-4-6 2-2-2-4 1-1 1v1l-1 1v1h-1l-1 1h-1l-1 1h-1l-10 1 1-3-5-2 5-9 14-2v-13l2-1zm-3 0l-5-1h5zm94 42l-4-3 5-1 8 9 15 5 4-3 4-10 15-14v-10l-6-9 1-7h13l1 9-4 7-1 12-5 3v11l-5 7 2 3-2-1-2 9 16 13 17 2 16-3 10 5 8 11 5-1-2 2 15-3 24 2 3-3 2-3-2-20 9-10 18-11v-6l-12-13 6-14 6-3-6 8 4 7 8-3 10 2 7-2 21 17 38 12h19l11-1 9-9 5-9-2-11 2-5-10-6-15 1-11-6h38l6 4v13l3 4-4 21-10 10-32 14-12 17 1 6 8 6 13 2 11-6 9 1-2-3 12 1 4-3 23-3h13l20 6 16-1 16-9 28-4 15-10 33-3 27-11 4 2 1-3 11-2 1 4 3-5 14-2-2-2 11-5-3-6-18 1-21 7-75-3-8 2-23 22-7-3-4-5 3-7 21-8 12-13 1-5 14-5 22-16h59l-9 14 7 2 1 3 8-2 3 2-2-3 47-3 9-6 3-7h34v23l-17 13-15 7-22 2-15 9-3 1h-3l-57 12-24 10h-10l-15 5v3l-7 3-28 5-19 11-15 4-11-1-2-5-13-7h-30l-1 1h-3l-4-2h-8l-2 1h-2l-1 1h-1l-2 1h-1l-8 3h-3v11l19 18v3h3l-3 7-5-1-8 5-9-2-26 9-13-2-6-3-5-8 5-12 12-12 1-7-5-20-7-11-14-1-8-6-1-2-1-1h-2l-4-3-21-1-14 11v28l-6 8-11 7 2 7 5 3 29 7 9 14-2 5-8 3-5 6-10 3h-1l-20 1-7 7-14-5-9-14 3-1 4-12-1-11 4-16-2-8-8-4-5 1v-4l-11-6-3-4-4 1 1-6-3-5-12-3-3 1-5 1-3 1-7 2-3-3-9 1-7-3-3 3 2 5-8 14-25-5-12 5-1 4-11 3-18-1-19-6-12-10-3-10-1-32 11-5h3l3 2 26-2 4 9 1-3zm185-42v-1h2v1zm-5 1l3-1v1zm-230 365h1v1h-1zm-577 25v-24h8l12 4-1 2 7 2 13-1v-3l7-1 36-1h67l23 2 1-2h31v-1h1v1h1v-1h5l34 2h3l1-1h7l3 1h1l6 1h25v1l-4 2-16-2v4h-4l2-3h-5l1 3-10-2-1 3-30-1-19 3 16 2 1 5h4l-1 3h-5l1 2-7 1v1l14 2 16-1v-3l-7 2-1-3 3-1-1-3 8-1-3-3 7-1 6 1-1 4h7l-5 2 1 3h-4v4l5-2v2l-173 8-51-6-2-3-10 1-1-3zm567-23l1-1h1v3l-8-1 1-1zm-9 1h-3l3-1zm2-1h1v1h-1zm11 1v-1h1l1 1zm-275 3l2-1 4 1-5 2zm-1 0l-1 2-3-2zm-78 21l-3-1v1z"/>
		<path id="Path 9" fill-rule="evenodd" class="s9" d="m393 22l-20-7 10-15h1l2 4-4 6zm13 1l14-1v-22h17l-1 18-13 5-3 1h-2l-3 1zm133 88l-10-5-3-5 7-3 1-4h-10l-6-6-8-2 1-8-7-2-1-16 8-7-7-7 8-5v-3l-17-1v-5l2 1 3-5v-8l-12-4-4-13-5-3h38l4 4-1 7h3l-1-3 6-5h7v4 2 3 2l-5 2h-2-1-8l-6-5h-7l1 12-5 2-1 8 13 3 8-2h6 1 1l1-1v-1h1l-1 4-15 2-2 4 32 1 3-8h-3l-4-7h-4v-1l2-1h2l1 1 1 1 3 1 1 1h1l1 1h1l1-1 3-1 2-1-2-2v-7-2l1-3v-1l1-1 1-1 1-1 1-1v-2-2-1-1-1l1-1v-1h4l-1 6 4 2 5-8h5l-9 8 2 4h-5l-3 3 2 2-5 3v4l9 1-6 9 13 4 24-2-6 2h-3-1l-8 2h-4l-2-1h-1-1l-3-1h-1-8-2l-7 1-2 6-8 3-11-3-8 5 4 7 8-1 12 8h7l2 21v1l-4 11-10 6 1 12h-1l-2-2zm85-77h19l13-6 1-16-5-1v-8l3-3h4l-3 7 2 3h9l2 7-5 1-4 12-12 6-17-1h-1zm-88-5l1-1h1l-2 2zm-1 1h1v1h-1zm-2 2v-1h1 1zm575 43l47-9 9-3 1-4 5 2 4-4 23-6v-3l5 2 18-3 5-5h6l2-4 15-5v5l-2-2-7 7-17 4-5 4-22 2-12 4-9 7-14 3v-1l-1 1-28 4-20 9-36 10-27 13-10 1-26 20h-13l-6 4-10 17 1 3-8 4-11 13-10 4-16-1-14 6v4l-13 9-16 1 12-4h1l9-4 5-8 9-2 2-1 2-1 2-1 6-4 3-2 9 2 1-3 7-2 1 2 4-7 8-4 3-4-3-8-4-1-3-6-7 3-11-8-24-9-4-6h-5v-3l-6 1v-7l8-5h1l1-1h1l2-1h2 4 2l2 1 2 1h1 2 1l3-1h2 1 1 14l2 1 11 21 10 1 7-5 22-1 10-4-1-3 11-2 11-7 12-4 4 2 1-3 17-8 21-3zm-506-39l22-2v1h-2l-3 1-14 1zm190 74l19-14-8-19 1-6 6-5 18-1 7 15 8 2 9-2 3 3 1 12-7 7-6 14-21 8-24 2h-1-6l-8-4v-6zm-83-11l7-8 5-1h1 3l5 3 3 4h1l2 1 1 3-13-10-13 8zm-132 20l12 3 7 7 9 1 9-5 6-9 13-4 2-6-1 2-5-2 6-1v-3l6-3v-4l6 1 2 1h8v1l-13 4 1 6-10 13-14 3-5 4-6 3-7 10-10 2-1-12-8-9zm85-20l-3-1h3zm4 1l-3-1h1 2zm1 0v-1h2v1zm8 1l-2-1h2zm4-1h1v1h-1zm62 3l-2-1h2zm-1 11l3-5-2-6h2l1 2 1 5zm-50 49l-5 2-22-2-7-4-14 1-6-5 10-5 12 4 4-12 35 1 8-3 8-11 20-4 7-11-3 14-12 2-1 3-8-1-9 11-32 4 8 16zm-146-47v-1l3 1h-2zm12 2l-2-1h2zm1 0v-1h7zm-508 54l-2-6h3v-3l-4-3 3-2v-9l4-7 31-4 6 5 7-2 11 9 2-2 14 6 17 2 10 7 11 2 4 8h4v4l-3 4-9 1-10-3-4-11-3-1-33 1-3 1-4 1-9 2h-1l-39 2zm775-16l2-1h8 1 1l5 1h1 2l3 1 7 3 22-5 9 1 3 10h-10l-7 11-2-1-6 7 1 5 8-1-10 3-18-3 4-15 4-4-4-9-16-2-35 8-5 2-3 6 2 5-5 6-15 5-16-3v-4l-11-8-7-15 8 11 3 5 6 2 8 8 6-2-2 2 6 1 8-9 4-11 8-2h4l1-1h6l3-1 2-1 3-1zm-134 7l11-6 16 1-9 2-6-2zm27-5l19-1h1v2zm278 171h1v1h-1zm10 0h1v1h-1zm-17 1h1v1h-1zm180 2h1v1h-1zm64 0h1v1h-1zm-261 1h1v1h-1zm16 0h1v1h-1zm73 1h1v1h-1zm15 1h1v1h-1zm-7 1h1v1h-1zm-230 4l-1-2h1zm81-2h1v1h-1zm-123 4h1v1h-1zm-84 21v-1h2v1zm207 0v-1h2v1zm-217 1v-1h1 1v1h-1zm256 0v-1h4l17 1 1-1h1 1 4 21 1l10 1 1-1h9l2 1h14 5 11 5 2l2-1h7 1l1 1h9l-2 2h-4-1-1-9-4-1-1-14-5-15-2-2-10-1-2-1-2-20-14-2l-14 1h-1-6-1v-1-1l5-1zm-958 1v-1h28v1h-4-2-1-4-3-10-2zm37 0v-1h2v1zm3 0v-1h9v1h-2-2-1-1zm22 0l1-1h3l2 1h7v1 1h-2l-4 1h-1-4l-1-1h-1-1zm18-1h1v1h-1zm508 1l1-1h2l8 2h1 4v1h-1-8-2-3-3-9-1-1-5v-1h13l1-1zm33 0l3-1h4v1l-6 2h-2-7v-2zm13 0v-1h8v1h-1-1zm30 0v-1h4v1h-1-2zm7 0v-1h9v1h-8zm14 0v-1h11v1zm12 0v-1h1 1 1v1h-1zm9 0v-1h4l-3 1zm10 1l-1-2 3 1v1zm14-2h1v1h-1zm44 1v-1h2v1zm6-1h1v1h-1zm100 0h1v1h-1zm2 1v-1h4zm22 1l-8-2h1 9 5 3l5 1 6 2h-2l-2 1h-7v-1l-1-1h-1zm185 0v-2h4 1l-1 2h-2-1zm36 0l-1-2h1 3l-2 2zm-1044 0l1-1h4l-1 2h-2-1-1zm10 1l1-2h2v2h-1zm10-1v-1h3v1zm4 0v-1h1 1 3 1v2h-1-1-4zm11 0l2-1h1zm489 1v-2h5l1 2h-1-1zm25-1v-1h2v1zm73 0l1-1h1 1l1 1h1l2 1-1 2h-1l-5-2zm31 1l1-2h4v1l-3 1zm47-1v-1h1l4 1zm32 1l-14-1h14zm1-1l2-1h10v1l-6 2h-1l-5-1zm15-1h1v1h-1zm-782 3l4-1-1 1h-1-1zm79-1v-1l2 1zm28 0v-1h1l3 1h-3zm79 0v-1h1 5v1h-5zm33 0v-1h4v1zm7 0v-1l8 1zm29 0v-1h10v1zm11 0v-1h9 1 11v1h-3zm22-1h1v1h-1zm24 1v-1h17v1zm83 0v-1h3v1zm10-1h1v1h-1zm86 1l3-1v1 1h-3zm9 0v-1h2v1zm10 0v-1h6v1zm184-1h1v1h-1zm34 1v-1h3zm118 0l2-1-2 2zm10 1l-2-2h3 8 1v1 1zm26-1l6-1h1zm16 0l-3-1h3zm1 0v-1h4v1zm-943 1v-1h11v1h-6zm25 0v-1h1 3v1zm14 0v-1h2 1 1v1zm14 0v-1h5v1h-2-1-1zm95 0v-1h1 1v1h-1zm7 0v-1h2 1v1zm4 0v-1h4v1h-2zm45-1h1v1h-1zm492 1l1-1h1 1 1l-1 2h-7v-1h2zm12 1v-2l9 1-2 1h-6zm31-2h1v1h-1zm3 1v-1l2 2v1h-2v-1zm132 0l2-1v1zm-267 1v-1h3l2 1zm13 0v-1h4l3 1zm10 0v-1h3 3 1l5 1zm101 1l1-2v1zm5-2h1v1h-1zm20 1l2-1h1l4 1v1h-7zm489 32l-4-1 4-3zm-4 2l4-1v1zm-24 2h16l1 2v1l-5-1-2-1h-1-4-1zm-12 3v-3h5 2v1zm11-3h1v1h-1zm-27 2v-1h1l1 1zm-32 1v-1h4v1zm-25 3l1-3h2 1v3zm55-2l-7-1h7zm0 0l4-1h2l2 3h-6-1zm-93 1h1v1h-1zm7 1l-2-1h2zm48 0l4-1-1 2h-1-1-1zm-237 1v-1h3 1 1 1 1v1zm60-1h1v1h-1zm115 1v-1h4l-1 1zm16 0l-3 1 1-2h1zm12 0v-1h1 1 7 1l-6 1zm-205 2h-5l2-2h1zm53-2l-5 2-25-2h14 13zm41 5l-23-5h14l3 1h4l2 3zm72-5h1v1h-1zm35 2l-2-2h2v1zm-38-1h1v1h-1zm111 1l1-1-1 2zm-113 0h1v1h-1zm-150 2l-4-1 33 1 6 4-10 5h10l-7 2h-2-1-2-5-1-5l-1-1-4 1h4 1v1h-7-1-12-15-1-2-2-1l5-3h17l1-3 11-3-4-3zm87 0l16 2 14-3 8 3h-4l1 2h-3-1-5-1l-4 1h-1-2-2l-6-2-4 3h-1l-4-5h-4v-1h2zm39 2v-3l12 1-8 2h-1-1zm12-2l6-1v1zm43 1h-8l8-1zm1-1h2v1h-1zm-14 2l1-1v1zm-43 0h1v1h-1zm-67 5l12-2-2 1-5 1h-1-2zm12-1v-1l2 1zm14-1h1v1h-1zm-32 2h6v1h-1-3l-1-1zm-1 1l-7 1 7-2zm-335 10v-4l-7-1v-3h7l9 5-5 3h-1-1zm-49 3h-12v-4l16-2 5-4 14 2 5-2 6 5-2 3h-2l-13 2h-3-1-12zm245-7l-8-1 8-2 3 1-2 2zm53-1l5-1h-3l2 1v1h-3zm-36 2l2-1v1zm19 0v-1h2v1h-1zm3 0v-1h3v1h-2zm-875 30v-30l49 10 122-2 26 2 20-3 38 4 61-3 16 1 31-4 13 2 27-3v-3l5-1h69l81 5 1 4-20 3-1 2h9-1l-2 1h-9l-3-1h-2l-7-1-3 1 1 1v1l-1 1h-3l-1 1h-3l-2-1h-1v-1h-1l-4 1-1 1h-1l-2 1h-1-1-1l-2 1h-5-1l-3 1h-1-3-4-1-2-1-2-1-2-1-1-1-4l-3-1h-1-1-3-8-4l-1 1h-4-1-1-1-4l-1 1h-1-1-1l-6 1h-1l-3 1h-2l-2 1h-2-1l-3 1h-1-1-1-1-1-1-1-2-1-2l-3-2-1 1v1h-1-2l1-2h-8-1-1-1-2-1-1l-8 1-1-1-24 3 4-2h-12l4 3h-2-12-1l-18-2-9 6 2-5h-3v5h-7-2-1-1-3-1-2-1l-1-1h-2-1l-1 1h-2-2-4-2-4l-3-1h-1-1-7-4-2-2-11l-5-2-2 2h5v1h-4-1-1l-1 1h-1-1l-2 1h-2-1-2l-4 1h-1-2-1-1-1-2-1-5l-4 1h-10-2-3-1l-3 1h-4-2-1-1-2l-4 1h-1-1-1-4-1l-3 1h-1-1l-9 1h-1-1-1-2l-4 1h-3-12-2-2l-3-1h-1-11-27l-1 3h16-1l-4 1h-1-1-1l-13 1h-1-2-8v1h-4l-4-1h-5-1-1-2-1-3-12v-2h25l-14-2-8-2h-1-1-1-2v-1l1-1-1-1zm827-29l8-1h1v1h-8zm10 0v-1h10v1zm-28 1l16-1v1h-8-7zm-17 1l10-1v1zm11-1h1v1h-1zm-151 2h18-6l3 2-4 1h-1-1l-5 1-1 1h-7-1l-4 1h-3-2-1l1-2-3 2h-2-3-1l-3-1h-1-2-1l-2-1v-1l9-2h6l4-1h1 2 4 5zm52 0l27-1-6 3h-9-2-3-1l-1-1h-1-1-1zm51 0l2-1v1h-1zm24 0v-1h2v1zm-94 1l-13-1h32v1h-2-1-2-7-6zm59-1h1v1h-1zm-16 2l7-1h1v1h-1-1-2-1zm-120 2v-2l4 2h1v1h-1-1-1-1zm-18 3v-2h6 4 1 1 5v1l-3 1h-1-5-1-4-1zm17 0l1-1h1 1l-1 2h-1zm-22 1l3-1v1h-1-1zm-6 1h5-2-2zm-3 1l3-1v1h-1-1zm8-1h1v1h-1zm-26 3l4-2 2 2-2 1h-1-1-1-1zm7 0l7-1v1h-1-4zm-44 1v-1h2 18v1h-2-15-1zm23 0l3-1v1h-1-1zm-536 26h1v1h-1z"/>
		<path id="Path 10" class="s10" d="m1007 468l3-1h2v2h-1-1-3zm-123 11l-1-1h3v1h-1zm-293 233l21-6 11-7 11 2 12-2 36-13 9 1 23-10 6-14 9-1v-3l5-1 15 2 14-3 25-10-2-4 3-1 37-3 26-9 37-5 44-17 73-9 18-6 73-30 7-11 13-11 6-21h1l-2 25-6 10-16 14-17 16-7 12-18 10-24 4-18 8-33 8-39 19-17 4-54 28-23 6h-25l-38 14-29 15-26 18-9 15-14 8-10 18-14 11-82 27-6 5-33 7-8 6-30 8-19 11-16 1-7 5-16 2-20 10-6 7-17 5-36 1-11 6h-12l-23 7-20 11-18 2-13-7-10 2-10-7-11-3-15 1-9 4-10 11-30 8-14 7-11 16h-172v-39l16-5 30-19 43-8 7-8 9 3 16-4 6 2 6-12 16-15 11-6 12-3 60 2 10-8 26-11 33-7 19-8 24-2 29-13 43 8 74-15 14-14 1-10-6-8 20-6 31-4 40-14z"/>
		<path id="Path 11" fill-rule="evenodd" class="s11" d="m1118 457v-1l3 1zm129 5h1v1h-1zm-180 6l6-3-1 3zm-62-1h1v1h-1zm2 1v-1h3zm5 1v-2h2l-1 2zm-6-1h1v1h-1zm125 5l52-1h28l37 1v6l-127 1-7 4 6 2 4 34h-1l-6 21-13 11-7 11-73 30-18 6-73 9-44 17-37 5-26 9-37 3-3 1 2 4-25 10-14 3-15-2-5 1v3l-9 1-6 14-23 10-9-1-36 13-12 2-11-2-11 7-21 6h-1l-40 14-31 4-20 6 6 8-1 10-14 14-74 15-43-8-29 13-24 2-19 8-33 7-26 11-10 8-60-2-12 3-11 6-16 15-6 12-6-2-16 4-9-3-7 8-43 8-30 19-16 5v-84l17-2 21-22 29-8 44-8 20 1 44-5 37-19 18-5 39-3 19-3 8-5 38-5 22-8 39-3 3-1-3-2h17l28-6 35-22 14-1v-3l11-3 7 1 6-8 10-1v-3l53-8 30-13h6l17-11 32-7 15-12v6l6-1 22-13 50 9 43-4 5 2 34-6 15 2 19-4 31-17 40-3 37-9 24-2 26-13 28-5 15-6 14-12-1-10 11-8 3-19-6-10-18-10 4-1-2-3-9-2 8-3h2l2-1h22l2-1h21l4-1zm-169-1h1v1h-1zm2 1v-1h2v1zm-7 0v-1h3l-1 1zm-18 1l-9-1h9zm12-1h1v1h-1zm-46 5l-2-1h2zm2 0v-1h1l2 1zm-28 0h4l1 1v1h-5zm7 1v-1h3v1zm10 0v-1l2 1zm-34 1v-1h2v1zm6 0v-1h2v1zm6 0v-1h4v1zm11-1h1v1h-1zm-315 21v-1h2z"/>
		<path id="Path 12" fill-rule="evenodd" class="s12" d="m380 25l2 6-14-1-7-4 12-2-5-1 2-2-2-10 13-11h2l-10 15 20 7h2 1 3 4l3 1 9 2-2 1h-3-2l-2-1h-26-1zm43-2l13-5 1-18h42l5 3 4 13 12 4v8l-3 5-2-1v5l17 1v3l-8 5 7 7-8 7 1 16 7 2-1 8 8 2 6 6h10l-1 4-7 3 3 5 10 5-30-8-7-21-13-6v-6l4-1-7-16-1-11 7-11 4-4-1-8-13-1h-3l-10 2h-1l-7 3-11-1-2-3 4-3-7-1v1l2 2-2 1-1 1h-1l-2 1-2-2-5 3-2 1h-8zm177 13l-24 2-13-4 6-9-9-1v-4l5-3-2-2 3-3h5l-2-4 9-8h4l-6 13 3 8-5 11 18 3 25-2 4-3 19 2 9-4 2-11-7-3-4-7h-4l-3-7h22l-3 3v8l5 1-1 16-13 6h-19l-22 2zm-27-36l-5 8-4-2 1-6zm-153 24l3-1v1h-1zm116 6l2-2h4l4 7h3l-3 8-32-1 2-4 15-2 1-4h1l2-1zm624 37l14-3 9-7 12-4 22-2 5-4 17-4 7-7 2 2v11l-24 5-40 25-19 7-64 9-8 5-22 5-1 4-1-3-3 1-17 2-17 8-19 16-2 8-14 15-23 15-37 6-10 9-12 5-53-1 10-3h1l10 1h1 1 1l2 1h5l3-1 16-1 13-9v-4l14-6 16 1 10-4 11-13 8-4-1-3 10-17 6-4h13l26-20 10-1 27-13 36-10 20-9 28-4zm-449 32l13-8 13 10 1 1h1l2 1 2 6-3 5-7 11-20 4-8 11-8 3-35-1-4 12-12-4-10 5 6 5 14-1 7 4 22 2 5-2 12-5 6 2 9-2 20 1 7 15 11 8v4l16 3 15-5 5-6-2-5 3-6 5-2 35-8 16 2 4 9-4 4-4 15 18 3-11 2-24-4-12-8-36 10-16 1-22-6-7-10 1-9-3-4-20-1-10 5-28 1-19-6-15 2-6-5-16 2-8-4 6-4 2 2 6-8 12-3 15 1 10-4h29l17-13 23-4 9-18-12-8-11 2h-1zm-95 29l5-4 14-3 10-13-1-6 13-4h2l3 1h1l3 1h1 2 3 1l2 1h4 1 2 1l3 1 1 1h1l14-1 7-3h2l-5 5-1 1h-37l-31 19zm-144 0l2-9 15-9 15 4-1 4 4 5-6 4-2 1h-1l-2 1h-2l-1 1h-2-3l-2 1-10-1-1-1-2-1zm71-13h1v1h-1zm13 4l-11-3h2l7 1 2 1zm0-2h1v1h-1zm1 1l7-1h1l3 1h4l5 1 7 3 8 9 1 12 10-2 7-10 6-3-10 12-1 7-13 2-13-26-20-4h-2zm-557 42l23-7 5 2 28-17 37-3 18 3 11 9 19 3-1 2 27 14 61 14 5 7 6 1 3 4h21l10 2v3l4-2 5 8-3 3-15 3-2 3-22-1-9 6h-1l-13-2-7-3-12-5-21-1-2-5 15-11-12-8-12 2-8-2 9-1 3-4v-4h-4l-4-8-11-2-10-7-17-2-14-6-2 2-11-9-7 2-6-5-31 4-4 7v9l-3 2 4 3v3h-3l2 6 3 2 39-2v1l-2 1h-1l-5 1h-1-2-3-11l-26 8-31-1-9-5zm108 8l33-1 3 1 4 11 10 3-13-2-9-11-11-1h-1zm-7 2l4-1v1h-3zm-9 2l9-2v1h-2l-1 1zm1043 144l1 2v-3l2 1 2 1h1 1 1l37 3-1 3 14 1-3 2 5 5-4-2-4 4v1h-1v-3l-5 1-2-1-1-1h-1l-2 1h-1l-2-1h-2l-1 1-1 1v1h-3-3-1-1v-1l-1-1-1 1h-1l-1 1-1 1h-5l-1-1-1-1v-1l-1-1-1 1h-3l-1 1-1 1h-1-2l-1-1-2-1-1-1h-1l-1 1-1 1v3l-4-1v-1h-4v-1h-2l-1 1h-1l-1 1-6 2h-2l-1-1h-1-2l-1-1h-1l-2 1v1l-2-1h-2-1l-1 1h-2-1l-1-1h-1-1l-1-1 3-4 22-4 2-6h1zm-277 7l2 2 2-2 1 3 4-5v4l11-2 50 4 49-3 10 6-1 1 1 2v1h-2v-2l-1-1h-1-1l-1 1h-1-1l-1 1h-1v-1l-1-1-2 1-1 1h-1l-1-1-4-1v4h-1-2l-1-1-1-1-1-2h-3l-1 1-1 1-1 1h-1-1-3l-1 1h-1l-1 1h-3-3-2-1l-1 1h-1v-1h-1l-1 1h-1l-1-1-1 1v1h-1-1-1-2v1h-1l-1-1-1-1h-1l-1 1h-1-1-1-1l-1 1h-4l-1 1h-2-2-6l-1 1v1l-1 1h-1-1l-1-1-1-1h-3-2-2v-1-1l-1-1h-2-1v-3l-2 1-1 1-1 1h-1l-1-1-3-1-1 1-1 1h-3l-1-1h-1l-1-1-1-1h-1-1l-2 1h-1l-1-1v-1l1-1v-1l-1-1-1-1h-1l-1 1h-1l-2 1-1 2v3h-2l-1-1h-1l-1-1h-1v-1h-2l-1 1v2l-1 1-1 1-1 1h-2-1v-2l-1-1-1-1h-2-3-1-1l-5-1-2 1h-1l-1 1-1 1-1 1-1 1h-2l-1 1-2-2-1-1-3 1-1 1h-2-1l-1-1-1 1h-1l-1 1-2 1h-1-1l-1 1h-5l-1 1-1 1h-3-2-3-1l-1 1-3 1h-1l-1 1h-1l-1-1h-1v1h-1-2v-4l17-9 5 2 2-3 61-11zm129 7h1v1h-1zm98 4h3-2zm-26 0h1v1h-1zm2 0h1v1h-1zm15 1h4l-1 1h-3zm6 0l3-1v1h-2zm-15 1v-1h1v1 1h-1zm13 0v-1h2v1zm-197 2h1v1h-1zm-134 15l2-1v1 1h-2zm-721 12v-1h3v1h-1-1zm6 0v-1h3v1zm5-1h1v1h-1zm10 1v-1h3v1zm11 0v-1h3l-1 1zm8 0l-2-1h2zm8 0v-1h4v1zm195 0l3-1 3 1h1 3 1l2 1h18v1h-8-2-11l-8-1h-3-4v-1h3zm361 0v-1h2v1zm64-1h1v1h-1zm-583 2v-1h3v1l3-1h3v1l2 1h1 1 2l5-1v-1h7l-3 1 2 2h-25l-1-1zm31-1h1v1h-1zm11 1v-1h5v2h-2zm64 0l3-1h1 2 1l7 1v1h-3-1-4-4-5-2-5-1-1v-1h3 3zm28 0v-1h1 4l3 1h1 4 5 1v1h-18zm285 0l7-1h2v1l-3 1h-1-1-7v-1zm72 0l1-1v2h-1zm7 1l-1-2h3v2zm-468 1l1-2 3 1h4v1zm9-1v-1h2v1h-1zm87 0v-1h8v1h-4-2zm73-1h1v1h-1zm22 0h1v1h-1zm2 1v-1h2v1zm14-1h1v1h-1zm5 1v-1h4v1zm21 0v-1h3v1zm20 0v-1h7v1h-1zm21 0v-1h3v1zm24-1h1v1h-1zm12 0h1v1h-1zm2 1v-1h5v1h-2zm39 0v-1h3 6 2v1h-6zm47 0v-1h6v1h-2-3zm8 0v-1h3v1zm4 0v-1h4v1zm10 0v-1l5 1zm6 0l2-1v1zm-537 0h1v1h-1zm2 1v-1h2v1zm3 0v-1h2v1zm3 0v-1h2v1zm10 0l1-1h1v1h-1zm11-1h1v1h-1zm8 1l4-1v1h-3zm13-1h1v1h-1zm84 1v-1h1 2 1 2v1zm7 0v-1h7v1h-1zm8-1h1v1h-1zm21 1v-1h4 1v1zm757 57h-10l10-5h4l1 3zm-581 30v2l-2-2zm-356 17l-10 1-6-3 3-3 1 1-1 1v1h2 1 1 1z"/>
		<path id="Path 13" fill-rule="evenodd" class="s13" d="m1231 335v-1h1 1v1zm-21 0h1v1h-1zm-284 28v-1h1 1v1h-1zm5 0v-1h2 1l-1 1zm6 0l1-1h3l1 1h1v1l-2 2h-3-1-1-1l-2-1v-1l3-1zm9 0h1v1h-1zm-184 4l8-2v1zm95-1h1v1h-1zm390 45v-2h1v2zm-7 5h1v1h-1zm3 1v-1h2 1v1zm-19 21v-1h1 1l3 1 1 1h4l4 1h-5-1l-1 2-5 4h-10l-2-1 2-2 10 1 2-1-2-2v-2-1h-1zm-2 1l1-1h1zm-2 1l2-1v1 1h2zm-22 4l2-1h2v2h-2-2-1v-1zm-18 0h1v1h-1zm3 1v-1h2zm12 0l-3-1h3zm-29 1l2-1h1l3 2-13 1 7 1-2 3h4l1-3 7 1 1 3v-4l9 2 2-3 6 1 4 2-13 2 1 3h4l-11 2-7-2 1 4 11-1 1 3-54 1h-1l-7 1-5-3 1-1v-1-2h2 2l-1-2h1 2 3v-1h2l1-1 4 1 1-2h-4v-2-2l1-1h3 2 4 1 4 2 1l3-1zm9 0l-2-1h3l3 1h-3zm39 5v-3h8v5l5 1 4-3h-7l8-2 1-3h15v3l-10-1-1 3h-5v4l-6 1h-5v-4l-4-1h-1-1zm-92-2l1-1h4 4v2l-6 1-1-1h-2zm68 7l12-4h2l3 3 10-1 1 4 18-1 12 3v1l-1 1h-2l-4-2-4 5h-15l1-2-15-1v-1l-3-2-15 4-3-3 8-2zm-70-1v-1h2v1zm-3 0h1v1h-1zm-7 2l2-1h2v3l-2 2-11-2h-1l-6-2h6 1zm-33 2v-1h2zm-3 0h1v1h-1zm45 1l-4-1h4zm-48 0h1v1h-1zm137 2h-2l2-1zm-167 1l-4-1h4zm26-1h1v1h-1zm-37 1h1v1h-1zm5 1l-3-1h3zm-7 0h1v1h-1zm-6 2v-1h5zm-18 0h1v1h-1zm8 1v-1h1 1 2l-2 1zm-9 1l-3-1h2zm-27 1v-1h2zm28-1h1v1h-1zm2 1h1v1h-1zm4 0h1v1h-1zm18 0l-4 2h-2l2-2zm-72 1h1v1h-1zm18 0h1v1h-1zm-14 2v-1h1 4 3l-2 1h-2-1-1zm-21 0h1v1h-1zm12 1l-2-1h1 2v1zm-29 1v-1h3zm31 0l1-1h3 2v1zm13 0v-1h2zm-179 11h4l-1 3 3 1 10-1-6 1-1 5 41-2 19-4 40 4 22-6 15 1 25-6 24 2 30-3 17-3-6-1 1-2h6l1 4 18-1-8 3 31 21-6 10-3-1-4 5-20 11-4-1-18 12-5-1-11 7-5 1-2-3-13 5-6-7 8-2-7-6 2-1-2-3-7-1 4-3-22-2 8-4h-37l-28-4-39 5-20-1-4-1 4-2-24-3-4-2 3-5h-6l-115 12-16 5v3h-19l-1 3-12 2h-49l-18 5-33 2-30 8-102 1-20 3-23 9-29 3-16 7-19 5-9-1-6 5-8 1-14-3-17 1-14-6-6 3 3 2-2 2-5-4-3 4-24 3-7 4h-22l-9-3-39 8-10-3-7 2-3-4-10 2-11-3v5l-4 1-1-7 4-1v-4h8l8-8 6 2 12-14 16-4 5-2 1-5 38 1 6-1-2-2 2-2 10 1v-4l1 4 16-2 21 6 13-7 19 1 21-7h16l6-2 3-5 5 1v1h1l7 2-4 1v3l4-3 7 1 3-1-2-3 4-1h1 1 2l2-1 17-3h1l3 3 4-2 1 3 5-3 1-5-3-1 5-2-1 5h4l1-3 3 5h4 4l-2-2 6 1v1l6-1-2 6 13-1v3h-6l-1 3-6 1-2 4v-6l-7-4-11 5-42 3-20 1-7 6 3 7h11l-3 3 5-2 10 2 16-7 4-8 33 2-4 2 25-5 29 3 37-1-6 2 33-1-4-1 2-2 46-8 54-5 24-7 17 1 10-2 9-7 28-10h30l4-4 7 3 6-4 5 1 3-5 1 1-1-1-2-1 7-2 8-1h2 1l1 2v-2h4l-3 2h5l-2 2 12 1 1-3-6-1 4-2h3 3 1 2 1l3-1 3 3 1-2zm165-11v2l-2-2h1zm-35 0h1v1h-1zm-6 2v-1h5zm164 0l2-1v1zm-172 1v-1h5v1h-1-2zm-24 0h1v1h-1zm15 1v-1h2v1zm-20 1v-1h2v1zm4-1h1v1h-1zm28 1v-1h1 2v1h-2zm-91 1v-1h3v1zm41 0l4-1h1l1 1h1l-22 4v-4h1 4 1l1 1 1-1h1zm10-1h1v1h-1zm22 0h1v1h-1zm3 1v-1h2zm-107 3l3-2h1l5 1 1 1 1 1h2l1 1 1-1 4-1 12-1 14 2v1h-15-1l-3 2v-2l-13 2-8-4-3 1zm45 1l7-2-4 3zm-149 2v-1h2l2 1-2 1h-1zm80 0v-1h3l-1 2h3l-5 1zm-101 1l1-1v1l-1 1zm4 2v-2h1v2zm22-2h1v1h-1zm-28 2l2-1v1zm27-1h1v1h-1zm-30 1h1v1h-1zm8 0h1v1h-1zm-12 1h1v1h-1zm3 0h1v1h-1zm30 0h1v1h-1zm-117 3l-3-2 3 1zm6-1v-1l2 1zm3 0l3-1h1l-3 1zm7 0v-1h2v1zm4 0h1v1h-1zm-27 2v-1h2zm7 0v-1h2v1zm9-1h1v1h-1zm2 1v-1h2v1zm10-1h1v1h-1zm2 0h1v1h-1zm-32 2v-1h1v1zm45 0h1v1h-1zm-109 7v-3h1 3v3h-1-1-1zm6-2l1-1h2v1zm28 1v-1h2v1zm-51 3l2-1h4v1l-3 2-3-1zm7-1h1v1h-1zm5 1v-1h1v1zm-19 1l4-1h1l2 1v1h-2l-1 1h-1l-3-1zm-151 1l1-1h1 1v1l1 1h1l2 1 1 1 2 2-1 1h-1l-1-1-6-2-1-1-3 1v1l-1 1v1h-1-1l-1-2-1-1v-1l1-1v-1h1 3 1 1zm-13 2l2-1 1 1-1 1h-1-1zm118 0v-1h1v2 1h-1zm-2 5l-2-1h2zm-17 4v-3h2 2 1l4 1-3 2h-2-1zm-8 1l-4-2 3-1h2l2 2-1 1zm-57 0l2-1h3l-4 6zm-11 6l2-2 1 2zm-17 2l-1-2 6-1-1 3h-1-1zm13 0l2-1v1zm-136 2l-2-2 4 1v1zm-13 0l8-1v2h-1l-4-1v1h2v1h-4zm27 0l3-1 1 2h-1-2l-8 4h-7l2-2h5l1-1 3-1 1-1h1zm38 0v-1l5 1zm-72 1l6-1-2 2h-3zm149 1l2-1 1 2h-3zm-206 3v-2h3 1l3 3v1h-2-1l-1 1 1 1 2 1-7 4 1-2-6 1 1-4v1l7-1v-1l-1-2zm9 0l2-2 1 2-1 1h-1-1zm27 1l-8 1v-4h4 1 1 1zm-28 0h1v1h-1zm-102 2v-1h4l-1 3v-2l-2 2h-4v-1h1 1zm101-1h1v1h-1zm2 2l1-1h1l-4 2v-1h1zm-22 1l1-1h2v2l-1 2-2-2zm-90 1l4-1h1l-3 2h5zm10 0v-1h2zm-18 2l1-1h4v1l-2 1h-1-2zm11 6l1-1h1 3l-4 3h-3zm-11 151l16-3 39-15 34-1 54-7 49-14 28 1 39-13-2-3 4-6 22-5 20 3 5 4-5 1 5 1 34-5 29 5 9 3 7 9-17 24-20 11-41 2-10 6-33 7-40 15-39 21-35 10-19 4-84 5-49-14z"/>
		<path id="Path 14" fill-rule="evenodd" class="s14" d="m933 363l1-1 2 1-3 1zm4-1h1v1h-1zm4 0h1v1h-1zm2 1h1v1h-1zm279 76l2-1h1l1 1v2h-1l-1-1h-2zm-104 17v-1h1 1 2l1 2h-2zm13 7l54-1-1-3-11 1-1-4 7 2 11-2 5 2-8 2 3 3 15-4 3 2-2 1h2l15 1-1 2h-1-1-1-2-3l-4 1h-1l-1-1-2-1h-2l-3 1h-1-6-1l-2 1h-3-7-12-1-12l-3 1h-1-1-1l-1 1h-15l-1-1h-2-2l-25 1h-2-15-5-1-2-7l1-3-6 3v1h-2-1-26l-1 1h-2-1-4l-1-1h-1-4-4l-2 1h-1-1l-3-1 1-2 2-1h6l5-1h1l1-1h1l1-1h1l3 1 1-1v-1h1l4 1h3 4 3 1 1 9l2-1h1l1 2v-2h1l1 1v-1h-1v-1h4l1-1h1 1l1-1h1 1l2-1h5l4-1h6l6 2h1l11 2h6l5 3 7-1zm-17-4v-3h2 1 1v1h1v2h-4zm131 4v-1h2v1zm-239 4h1v1h-1zm64 1h1l-1 1zm-65 0h1v1h-1zm2 2v-1h3v1zm204 2l18-3 19 2v2zm-237-1l1-1h1l1 2-9 1h-2v-1l2-1zm157 2l26-3h1l2 1h1l22 1zm-177-1v-1h1 1 1 3v1h-3zm-15 1l1-1h2 3 1 3l2 1v1h-1-2l-1 1h-6l-1-1h-1zm13 0v-1h1 1v1l-1 1h-1zm7 0l1-1h2v1l-1 1h-2zm-37 1l3-1h5l9 1-15 1-3 1h-2l-8 2h-1l-2-1v-1h3l5-1h1l1-1h3zm40 0v-1h1 1 2v1zm115 2v-1h2zm-25 1l5-1h18l-8 3 9 2 2 3-4 1 18 10 6 10-3 19-11 8 1 10-14 12-15 6-28 5-26 13-24 2-37 9-40 3-31 17-19 4-15-2-34 6-5-2-43 4-50-9-22 13-6 1v-6l-15 12-32 7-17 11h-6l-30 13-53 8v3l-10 1-6 8-7-1-11 3v3l-14 1-35 22-28 6h-17l3 2-3 1-39 3-22 8-38 5-8 5-19 3-39 3-18 5-37 19-44 5-20-1-44 8-29 8-21 22-17 2v-69l49 14 84-5 19-4 35-10 39-21 40-15 33-7 10-6 41-2 20-11 17-24 8-5 3 2 10-5 2 3 15-7h17l7-4 8 2 11-8 9-1 18 8 6-2-4-3 13-2-6-3 12-1-3-3 16-2 10-5 2 2 10-5v3l3-1 14-13h6l3 4 14-11 22-8 32-1 34-13 49-4 57-10 21 2 3-2 11 4h14l27 7 46-12 42 1 12-3 20-11 13-5 2 3 5-1 11-7 5 1 18-12 4 1 20-11 4-5 3 1 6-10-31-21 8-3zm-156 1v-1h1 6l2 1h1v1h-8zm-35 1h1v1h-1zm3 1v-1h2v1zm3-1h1v1h-1zm3 1v-1h4v1zm8-1h1v1h-1zm6 0h1v1h-1zm2 1v-1h2v1zm3 0v-1h2v1zm-91 4h1v1h-1zm31 1v-1l3 1zm-169 2v-1h2 1v1zm22 0l2-1h1v1 1h-1l-1-1zm72-1v2l-1-2zm6 2h-5l3-2h2zm-106 0l2-1h3v1l-2 1h-2-1zm106 0l5-1 6 1-1 3-12-1zm-76 1l1-1h1l1 3 1 1h4 1 2l7-1h1l4-1h3l3-1h1 1 1l1-1 18 1 2 1-3 5-5-1-6 4-7-3-4 4h-30l-28 10-9 7-10 2-17-1-24 7-54 5-46 8-2 2 4 1-33 1 6-2-37 1-29-3-25 5 4-2-33-2-4 8-16 7-10-2-5 2 3-3h-11l-3-7 7-6 20-1 42-3 11-5 7 4v6l2-4 6-1 1-3h6v-3l-13 1 2-6 9-2 1-3h3 1 2l3-2h2l2 4 1-5 5 4 1-5 13-1 4-3 1-1h3 1l13 1 1-3h2 1 1 1 1 2 1l3 1 7-1 3-2h1 1 4 1l4-1 3-1h1 2 4l2-1 2 1v1l10 1v-3l1-1h1 1l2 1 3 2v-2h2 2l11-1h3l5 1 4-1 4-1h1 3 1l2 1h1v-1h1l4 1h1l2-1 5-1v-1l3-2v-1h1 1l3 1 1 1h4l2-1 5 1h2l3 2 11-2h2l2-1 1 1h11l3-1h15 1 1l2-1 1-1h1 1 8 1 4 1l8-1h6l1-1 1-1zm-31 0h1v1h-1zm-2 2v-1h2v1 1h-1zm-93 2h1v1h-1zm16 0h1v1h-1zm5 0h1v1h-1zm9 0h1v1h-1zm15 2l1-1h1l4 1-6 1zm-46 1v-1h1 1v1zm2 1v-1h1l2 1h-1zm4 2l-1-1h1 1v1zm-87 7v-1l3 1zm-55 7v-1l2 2zm-6 2v-1h2zm-17 3l-2 2v-2zm-48 4l2-1h1v2h-1-2zm10 0l6 2-5 3-1-3v-1zm20 1l2-2 2 2zm-70 5l1-2h2 1 1l2 2 7-2h2l3 1-4 1 2 3-3 1-7-1h3l-1-2-2 1zm23-1v-1h1 1zm-16 4l-4 3v-3l4-1zm-198 5h1v1h-1zm-2 1h1v1h-1z"/>
		<path id="Path 15" fill-rule="evenodd" class="s15" d="m423 23h1v1h-1zm63 108l2-1v1zm-362 37h1v1h-1zm-23 2h1v1h-1zm-10 2h1v1h-1zm1044 144l1-1v3zm45 4l13-1 17 4 10 8v3 1l-1 1h-1-7v-1l1-1 2-2-2-1-2 4h-1-2l-1 1h-4l2-2h3l1-1v-1l-5-1-1-1-3 1-1 1h-2l-1-1-5-5 3-2-14-1zm-188 8h2-1zm195 5l4-4 4 2 1 1v1h-2-2-3zm-15-2v-1l2 1zm-318 1l2-1v1zm113 3v-4l4 1-3 2v1zm80-3v-1l2 1zm134 0l5-1v3zm-139 2l-1-2h1zm184-1l3-1v1h-1zm5-1h1v1h-1zm4 1v-1l12 2v1h-4-1-1-7v-1h1 3zm-263 0h1v1h-1zm16 0h1v1h-1zm150 1v-1h2v1h-1zm22-1h1v1h-1zm60 1l6-1v1h-4zm11 1l-1-2h1v1zm-173-1h1v1h-1zm27 0h1v1h-1zm-19 1h1v1h-1zm2 0h1v1h-1zm-129 2v-1h2zm-14 2h1v1h-1zm-160 10v-1h2v1zm-5 1v-1l2 1zm2 0l2-1v1zm-24 8l2-2 1 1h2zm-4 1l2-1v1zm-15 3l15-3v1l-2 1h-3-3l-1 1h-1l-1 1h-3zm-128 2l22-3 15 3h-4l-3 1h-8-3-5l-1 1h-4-1zm123-2h5v1 1l-1 1-3-1-1-1zm207 0l1-1h2 1l1 1v1h-5zm-218 1h3-1-1zm3 0l6-1v1l-1 1h-1-4zm222 0v-1h3v1zm-371 3l34-2h-2l-1 1h-3l-1 1h-13l-2 1h-1l-5-1zm128-2h13-1-1zm14 0l3-1v1h-1-1zm247 0l1-1h2l2 1 1 1v1h-2-4-1-3-1l2-2h1zm-915 1v-1h3v1zm21 0v-1h8v1h-2zm16 0v-1h8v1h-1zm13 0v-1h5v1h-4zm23-1h1v1h-1zm6 0h1v1h-1zm30 1v-1h1 1 1l1 1v1l-1 2h-2-1-1l-2-2zm86 0l8 1h-1zm315 0l11 1h-3-2-6zm87 0v-1h4v1h-2zm99 0l1-1h2l1 1h4l-1 2h-5l-1 1h-3-1-2-2l-9-1h-1l-2-1h8 2 3l1-1zm155 0l4-1h8 2l8 2h-3-6l-2 1-5-1h-3-2l-4 1-2 1h-11-3-5v-1-1h1 8l2-1h11 1zm-788 2v-2h7v1 1h-1-1zm17 0v-2h2v1l-1 1zm5-1v-1h2zm6 0v-1h1 1 9v1l-5 1-2-1h-1-1zm22 0l1-1h3l-1 2zm16 1v-2l7 2h-1-4-1zm9 0l1-2v2zm70-1l8-1v1zm531 0v-1h4 2 4 1v1h-3-3zm56 0v-1h3v1zm4 0v-1h3l2 1 19 1 1-1h2v1 1h-8-2-1-12-3zm95 1l-6-2h12 1 1l2 1-6 1h-2-1zm-587 0v-1h12v1h-8zm13 0v-1h4v1zm28 0v-1l3 1zm8 0l9-1v1zm16 0v-1l8 1h-5zm33 0l5-1v1h-1zm18-1h1v1h-1zm6 1v-1l19 1zm26 0l8-1v1zm19 0v-1l8 1zm18 0l6-1v1zm29-1h1v1h-1zm184 1l3-1 1 1-1 1v1h-3-1v-1h1 1v-1zm-697 0h1v1h-1zm13 0h1v1h-1zm2 1v-1h2v1zm8-1h1v1h-1zm11 1v-1h2 1 4 1 1v1h-3-2-1-2zm10 0v-1h2 1v1zm27-1h1v1h-1zm62 0h1v1h-1zm8 0h1v1h-1zm2 1v-1l5 1h-2-2zm15 0l5-1v1zm547 1l-3-1h1 1 2v1zm22 0l-4-1h6v1zm470 36l8-2h4v2l-4 1-1 1h-1l-1-1h-2l-1 1h-1zm-17 1l1-1 4 1v1l-4 3v1h-1-1l-3 1-2 1h-1-1v1h1 1 1 1 1v2h-1l-1 1h-1l-1-1h-4-1-6l-1 1h-13v-1-1l1-2-3-1v1 1h-1-2l-1-1h-1l-1-1-1-1v-1l-1-1h-1-5-1-3-6l-1 1v1h-2l-1 1h-2l1-2-4 1h-1v1h1 1v1h-1-1l-1 1h-2l-1 1h-2l-1 1-12 1-1 1h-1l-1-1-1 1h-7l-2-1-3-2 1-1h2l3-2 6-1h1 6 4v-3h1 1 1 2 14 2 4 2 2 10 5l7 1 1 2h1 6l-2-3h1 1 1 3 1 1 4l7-2h1l1 1h1zm11 1v-1l2 1zm2 1v-1l5 1 4 1 1 1 2-1h3v2l-1 1h-1-1l-2-1-1 1h-1l-1-1-1 1h-1l-1-2-1-1zm7 0v-1h2 1v1zm-142 3l1-1h1 3l2 1-1 2 3-1h2 4l2 2v1 1h-1l-1 1h-3v-1h-1-2-1l-8 1h8 2v1h-12v-1-1l-2 1-1 1v1h-1-1-1-1l-1-2h-8l-1-2-2 1-1-1v-1h1l1-1h1 1l1-1h2 2 4l1 2 1 1h4l1-1v-1h-2v-1l1-1h2zm129 1l3-1h3 3l-3 2h-1l-3 1h-2zm-313 2l-2-2h1 3 7 1 8 4 1l25 2 5-2h7 2 1 3 1 1 2 1l23 5h1v1h-2l-4 1h-1l-5-1 1 2h2l2 1h1v1l-4 1h-1-10l5-1h2 2l-2-1-12 2h-6-1l-7 2 7-1h2 1 3v1h-1-3-1-1l-1 1h-4-1l-1 1h-9-3-4l7-2 5-2-1-3h-4l-6-4-33-1-5-1zm202-1v-1h1 1v1h-1zm-1 0h1v1h-1zm71 2v-1h1 1v1h-1zm-117 1v-1h1 1 3 1 1v1h-1-2-2zm170 0v-1h2v1zm-184 2l8-2h6l-1 1-3 1-5 1-2 1h-1l-1-1h-1zm174-1v-1h8zm13 0v-1h1 1v1zm5-1h1v1h-1zm-234 2v-1l4 5h-1-4l-1-1h-1-1v-1h1 2 1l1-1zm215-1h1v1h-1zm-181 3l-1-2h4v1l-1 1h-1zm4-1v-1h2v1h-1zm194-1h1v1h-1zm-227 4l4-3 6 2v1h-9zm32-3h1v1h-1zm-17 2l4-1h1 5v1zm16-1h1v1h-1zm-41 2v-1h1l1 1h1 1v1h-4zm-25 2v-1h2v1h-1zm3 2v-1h1v2h-1zm-49 2v-1h5v1zm14 0v-1h2zm-54 1v-1h2v1zm5 0v-1h15 8v1zm-8 1v-1h1 1 1zm-38 1v-1h4 1 2v1 1h2v1 1h-3l-1-1-1-1h-1l-1-1zm8-1h1v1h-1zm2 1v-1h7v1h-6zm9-1h1v1h-1zm4 1v-1h1 2v1zm-42 0h1v1h-1zm11 1v-1h6zm-22 1v-1h2v1zm40 0v-1h1v1zm-63 0h1v1h-1zm2 1v-1h4v1h-3zm-23 1v-1h3v1zm-118 3l4-1-3-2h6 1 1l13 1v1h-5-1-2-7l-1 1h-1-3zm41-2v-1l2 1zm41-1h1v1h-1zm12 1v-1h2v1zm-21 1v-1h1 1v1zm-20 1v-1h9 3 3v1h-8-5-1zm-60 1l5-1v1h-4zm-43 1v-1h3 4l2 1zm22 1l3-2-1 2h-1zm8 0l4-1v1zm-36-1h1v1h-1zm3 1v-1h1v2 1h-1-1zm16 0v-1l3 1h-2zm-28 1h5v1h-3-1zm6 0l3-1v1l1 1v1h-2l-1-2zm-16 1v-1h1 1 2v1zm-3 0h1v1h-1zm-3 2v-1h2v1zm-6 0h1v1h-1zm-4 1h1v1h-1zm-67 2l4-1h1v1zm42 0v-1h1 1 1v1zm9 0v-1h2v1zm6 0l2-1h1v1h-1zm-51 1v-1l2 1zm49-1h1v1h-1zm-100 3l3 1h-3zm36 0l2-1v1zm-9 1l3-1v1zm-56 1v-1h4v1h-3zm-10 1l6-1v1zm-4 1l3-1v1zm-76 3l24-3 1 1 8-1h1 1l2 2v-2h1 1 1 8l-1 2-2 1h-6-1-8-1l-1 1h-5-4-1-1l-1 1h-3l-1-1h-3-2-6-1zm50-2l1-1 3 2h-4zm-54 3l-4-3h12l-4 2-1 1h-1-1zm70-2l3-1v1zm-120 6h7v-5h3l-2 5 9-6 18 2v1h-7-3-2l-1 1-3 1h3v2h-2-1l-1-1-4 1h-1-1l-1 1h-3-1-4l-1-1h-2zm101-5v-1h2v1zm10 0v-1h2v1zm5-1h1v1h-1zm-80 3v-1h12v1zm-99 2h-5l2-2 5 2h-1zm-224 13v-14l9 6-3 3 6 3 10-1 14 2h-25-2-1l-2 1h2 1l2 1h12-20l-1-1zm254-12v-1l3 1zm-41 2l2-1v1zm-9 1l4-1v1zm-18 1l4-1v1zm10 0v-1h2v1zm-29 1l3-1v1zm-14 1l4-1v1zm-11 1l3-1v1zm-11 1l9-1v1zm-55 3h-16l1-3h27v1zm24-2v-1l3 1zm22 0l4-1v1zm-51 3l4-1v1zm-16 1l13-1v1zm-28 1v-1h2v1zm9 0v-1l4 1zm8 0v-1h8zm274 28h1v1h-1zm3 1h1v1h-1z"/>
		<path id="Path 16" fill-rule="evenodd" class="s16" d="m1225 437l1-2v2zm9 2l5-1 9 4v4h-15l-1 3-8 2h7l-4 3-5-1v-5h-8v3h3l4 1v4h5l6-1v-4h5l1-3 10 1v11l-12-3-18 1-1-4-10 1-3-3h7l-3-2-6 2-12 4h-4l-1-3 13-2-4-2-6-1-2 3-9-2v4l-1-3-7-1-1 3h-4l2-3-7-1 13-1-3-2h4l2 1v3l1-3h3l-3-1 4-1v1l3 2v-2l2-1 5-2 2 2 3 1h3 2l3 2 3-2h-4v-2h4 1 4 1l8-3 4 1h1 1l2 2-2 1-10-1-2 2 2 1h10l5-4 1-2h1 5zm-53 6v-1h2v1zm14 0v-1h2v1zm-74 4h1v1h-1zm10 4l1-1h4l-1 2zm-6 2l3-1v1zm-13 6l2-2h1l4 1-1 1zm110 4h15l4-5 4 2v1h2 1v8l-19-2-18 3h-4-21-1-1-1l-22-1h-1l-2-1h-1l-26 3h-3l-4 1h-21l-2 1h-3-4-2-3-10-2l-2 1h-18l-5 1h-3l-18 1-1-4h-6l-1 2 6 1-17 3-30 3-24-2-25 6-15-1-22 6-40-4-19 4-41 2 1-5 6-1-10 1-3-1 1-3h-4l2-2 8 4 13-2v2l3-2h1 15 3l4-3-7 2-14-2v-2h3 23v4l22-4h1 2 1 1 2 4 4 1 1 1 3 1 1 2 1 2l2-1h3 2 8 1l-11 3 18-2-5-1v-1h1 1l8-2h2l3-1 15-1h1l1 1h6l1-1h2l2 2v-2h1 6 2 1 4l2-1 9-1-1-2v-1l2-1 16 3 6-4 3 1h1l1 1h1l1 1h3l1-1h1 1l3 1h1 1l2-1h4l-2 2h2l4-2h1l1 1h4 1 2l1-1h26l-5 2 11-1v-1l1-1h1 7l-1 2 7 1 2-3h15 2l25-1h2 2l1 1h15l1-1h1 1 1l3-1h12 1 12 7 3l2-1h1 6 1l3-1h2l2 1 1 1h1l4-1h3 2 1 1zm-155-4l4-1v1zm-36 2l2-2-1 2zm10 0v-1l3 1zm25-1v2l-1-2zm-38 2l2-1v1h-1zm7-1h1v1h-1zm-19 3l6-1v1zm-16 1l4-1v1h-2zm5 0v-1h7v1h-2-3-1zm62 2v-1h3v1zm-110 2v-1l4 1h-1zm8 0l9-1v1h-6zm-19 1h4-1zm-10 1l3-1v1zm-28 3l3-1v1zm-11 1l6-1v1zm-35 2l12-1v1h-4-2-1-1-2zm18-1v-1h14v1h-5-3-3zm-62 1h4l-4 1zm58 0v-1h2v1zm-28 1v-1l2 1h-1zm-67 1l3 2 2 1v1l-1 2-3-3v-2zm16 3l6-1-4 1h-1zm-45 2l8-1v1h-2-4-1zm13 1h-3l1-2h6zm-83 0h1v1h-1zm35 1l25-1-7 2zm-66 2l2-1v1zm10-1h1v1h-1zm21 3l1-2v1zm-98 0v-1l2 1h-1zm-10 0h1v1h-1zm13 0h1v1h-1zm65 0h1v1h-1zm-76 1h1v1h-1zm29 1l5-1-1 2zm-15 2v-2h2v1zm12-1l2-1-1 1zm-3 1l3-1 1 1 6-1 4 1-11 2zm-81 4v-4h4l-3 4zm41-3l-2-1h2zm-25 2l2-2 4 3-11 1v-1zm27 0v-2h1v1l1 1v1zm-18 1l9-1v1l-4 1zm9 0v-1h4zm-53 2v-2h3l1 2zm6-1h12v3l-10-1v-1-1zm20 0l2-1v1zm0 0v2l-3-2zm-32 2v-1h1 1 1zm-11 0h1v1h-1zm2 1v-1h4v1zm5 0v-1h4zm-361 48l-16 4-12 14-6-2-8 8h-8v4l-4 1 1 7 4-1v-5l11 3 10-2 3 4 7-2 10 3 39-8 9 3h22l7-4 24-3 3-4 5 4 2-2-3-2 6-3 14 6 17-1 14 3 8-1 6-5 9 1 19-5 16-7 29-3 23-9 20-3 102-1 30-8 33-2 18-5h49l12-2 1-3h19v-3l16-5 115-12h6l-3 5 4 2 24 3-4 2 4 1 20 1 39-5 28 4h37l-8 4 22 2-4 3 7 1 2 3-2 1 7 6-8 2 6 7-20 11-12 3-42-1-46 12-27-7h-14l-11-4-3 2-21-2-57 10-49 4-34 13-32 1-22 8-14 11-3-4h-6l-14 13-3 1v-3l-10 5-2-2-10 5-16 2 3 3-12 1 6 3-13 2 4 3-6 2-18-8-9 1-11 8-8-2-7 4h-17l-15 7-2-3-10 5-3-2-8 5-7-9-9-3-29-5-34 5-5-1 5-1-5-4-20-3-22 5-4 6 2 3-39 13-28-1-49 14-54 7-34 1-39 15-16 3v-149-1-1h11l-2 2h3l4-3 4-1 2-3 10 1 1 3 24-2 2-5 9 5 1-3 11 1 3-3 12 3 3-3 2 2 1-2v-2h5l-1 4 6-1-1 2 7-4h1l4-2v-2l1-1 4 1v1h1 1l3 2v-3h-3v-2l4-3 5 1 1 1v4l8-1h3l2-3v3l8-1 5 3 7-6 2-2h1l1 2 1 3 13-2-2 2h7l8-4h2 1l18 1 3-5 2 2 6 1-2 3 7-3h5l-5-1 26-3 37-4h1 2 3 1l10-1 3-1h1 10 4 1l1 5 4-6 4-1h2 4l10-2 2 3 3-4 26 2-3 1 4 2v2l2-2 1-1-2-2 7-1v3l-1 3-9 2-6 1v-1l-6-1-2 2h-4l-3-5-1 3h-4l1-5-5 2 3 1-1 5-6-2v1 1l-4 2-3-3v-2h-1l-2 1v1h2l-17 3h-1-1v1h-2-1-1l-3-1v-1l2-1h3l-1-2-2 2-2 1-2 1-7 2-2-2 1-3-6 1 1 2-1 2-1-1-5-1-3 5-6 2h-16l-21 7-19-1-13 7-21-6-16 2-1-4v4l-10-1-2 2 2 2-6 1-38-1-1 5zm348-47l-2-1h2zm-10 1l3-1v1h-1zm-158 0h1v1h-1zm115 2h-2l2-1zm23 0l14-2-1 3zm27-1l1-1h2 3l-7 1zm-163 0h1v1h-1zm-4 2h1v1h-1zm118 1l17-1-4 3-13 1-1 5-5-4-1 5-2-4 2-1h-2v1h-2l-4-1 10-2 2 1 2 1-2-2h-2l4-2zm-241 17l3-1 2 2-5 1zm-3 2h1v1h-1zm-62 5l-3-3h3zm29 0l-1-3 4 3zm-29 0h1v1h-1zm-105 3h1v1h-1zm-8 3l3-1 7 1h1l-11 1zm-5 0h1v1h-1zm0 3v-1h2z"/>
		<path id="Path 17" fill-rule="evenodd" class="s17" d="m305 31l-10 1-5-10-9-2-7-6-20-2-7-7 1-5h131l-11 7-4 5 1 5-5 1-19-12-12 3-9-3-7 3-15-3-8 6 5 8 1 10zm164-11l10-2h3l11 3-1 10-8 10h-3l2 6-4 9 1 4 4 1-3 8 7 10 12 7 2 12-9 11-21 7v12h1l2 1 1 1 9 2-9 1-8-5-3-14 9-10 10-4 1-6 3-1-10-11-4-17 1-11 12-27-6-6h-13v-1zm-47 4h1v1h-1zm2 1v-1h14zm-41 11l21-4 1-4 2 4v-3l3 2 8-4-9 6h-10l-13 6zm-76-5l7-1 1 3zm22 4l23-4 2 4 8-3 6 4h12l-2 3-12-3-6 3-10-5zm-11-1l1-2 10 3-6 2zm532 159l44-1 13 3 58-7 15 4 1 4 11 4 10 1-1-7-6-3 5-8v-7l3-7 6-4 7-14-1-4 14-17 4 1 13-9 41-13 58-2 16 5 31-1 11-7 3-18 9-12 16-9 17-3v9l-8-1-1 3-15 4-8 10v6l7 10 25-2v12l-25 3-7 5-11 19-13 3-7 8-4-1-10 7-24 3-10 5-6-3-46 3-9 7-3-1v5l-8 13 2 10-2 7 5 4h10l7-2 6-10 33-8 66 2 16-9 40-8v4l-30 4-24 10-27 1 1 3-4-3v3l-7 3-11-3-2 3-1-2-25 2-35 11-24-2-5-18 4-12 8-9 16-6 26-4 33 1 11-3 30-13 17-15-5-8-18-4-73-1-17-3-57 21-9 15v12l-7 17 1 8-4 15-17 2-33-10-15 3h-41l-12-4-20 2zm-144-89l9-5h1l16 2-1 16-6 6-21 1-8-3-2-12 11-4zm-629 10l17 4 12 10 40 17 20 16-21-8-7-8-13-3-13-10h-7l-16-8h-3l-1 7-6 3-18 1-19 7-22 1-7 9-13 2v-8l17-5 32-3 4-7 10-3 1-4zm455 8l9-3 1 4 3-3 11-1h1 2l8 1 11 8 9 39 42-4 45 4 18 3 22-3-5 18-6 7-5-2-5 5 2 3-4 5 5 3 37 1 2 4 11 4 11-2-3-2 14-5 9-14 15-5 12-2 34 6-32-2-21 10-20 16-13 5h-63l-26-4-10-7v-4l19-13 1-13-4-1 1-2-14-3-34 4-29-1-12-5-4-5-9-27-8-8-52-6zm-31 6v-1h4zm-3 1v-1h1 1zm-2 0h1v1h-1zm-5 2v-1h2 1zm-3 1v-1h3zm-383 38h7l-7 1zm19 0l-4-1h4zm81 0l9-1 12 3-2 2zm-107 3v-1h1 4zm92 37h-13l-22-7-9 1-6 5-11-1-1-3 6-2v-3l11 1-3-4 2-14-7-2-5-9 3 5 24 9 6 16h6l5 6zm-97-36l3-1v1zm-5 1v-1h1 1zm160 10l-10-1-10-8-4 1v-3zm-171-9v-1h3 2v1zm6 0v-1h2zm-41 8l31-6-18 8-55 1v-4l41 1zm250 5l18-5 15 1 9 4 1 5 6 3v4l-17 9 2 2h-6l-4-2v-4l6-6-6-13zm-6 0l-1 2h-3l1-2zm-55 28l15-5h27l5-4h10l2 4 6-1 4 3h-12l-3 2 1 4-3-1-1 4-5 2h-15l-16-7h-23l7-1zm-38-7l17 2 1 3h6l6 3zm-193 97l72-2 13 2 31-4 67 1 17-3-1-2 14-5 21-1 27 6 61 5 6 5 3-2-1 5 6-1 1 3 13 2 34-6 41 8 10-5 22-2 49 9 13-8 11-2 62 2 52-4 22 7 63 2 43-11 23 1 35-8 26 2 20-4 9-3 10-9-14-11 2-4 8-3 47-3 10 3h26l30-8 16-1 1-3 8-1 3-5 17-6 89-2 50-5 30-11 30 1v49l-24 7-1 3 4 9 21 5v16l-30-12-19-3-42 1-8 2 4 3-50 5 3-4-6-3v-7l12-7 29-2 22 2 25-13 13-4 4 2-1-3 3 2 4-3 8 1v-4l20-10 4-4v-9l-20-10-9-1-17 6 1 2-3-3-4 6-8 6-33 7-85-9-40 15-18 9-4 5v8l16 4 12 15-6 2 3 1-3 2h-7l-9-8-11-2-128 11h-40l-19 4-26-3-26 2-14 12-61 9h-20l-24-11-18 3-28-1-26 10h-13l-8-7h-9l-16 14-7 2-46-1-28 6h-15l-11-5 2-8-4-4 9-2v-3l-31-4-3 4 2 6-2 4 7 9-17 5-31-4-67-1-19 3 2 3-4 2h-9l-21 7-52-3-34 5h-1-1-1l-16 1h-1l-12-1h-1-5-1-18-5-1-4-8-2-3-3-8-3-9-1-2-3-3-3-28v-25l27 2 14-4 29-2 100 2 51-6 23 1 28 7 33-6 23 1 11-9-6-2v-4l-53-10-39 2h-32l-15-4-90 2-26 1-5 4-16-3-6 1 1 2-6-2-13 3-29-1v4l-4 1zm88 61v-1h3 2v1zm1156 38l4-1v2h-4zm-19 1v-1h4v1zm7 1l-2-1h2zm5 0v-1h1l1 1h3v1h-1zm5 0v-1h1 1zm-10 2v-2l3 1 1 1-1 1h-3zm-72 0l1-1h6v1h-4l-1 1h-2zm10-1h1v1h-1zm6 0h1v1h-1zm66 1v-1h2zm-65 0h1v1h-1zm48 2l4-2v1l-3 1zm-7-1h1v1h-1zm24 1v-1l2 1zm5-1h1v1h-1zm-94 1h1v1h-1zm85 0h1v1h-1zm-149 2l4-1h2v1l-1 1h-4zm27 0v-1h1l2 1h-2zm95-1h1v1h-1zm17 1l3-1h1 1v1l1 1h2v1h-8l-1-1h-1v-1zm-114 0h1v1h-1zm-38 2l2-1v2h-1-1zm164-1h1v1h-1zm2 1v-1l3 1h-2zm-175 1l1-1h2l-1 2h-2zm148-1h1v1h-1zm32 0h1v1h-1zm-160 3v-2l1 2zm20-2h1v1h-1zm-101 2v-1h2 4v1h-1-2-1zm47-1h1v1h-1zm6 1l5-1h2v1zm33-1h1v1h-1zm38 0h1v1h-1zm110 0h1v1h-1zm3 0h1v1h-1zm2 1v-1h2v1zm-248 1l4-1h1 3v1h-1l-2 1h-1l-2-1zm15-1h1v1h-1zm31 2v-1h3zm4-1h1v1h-1zm-18 2v-1h2v1zm-23 0h1v1h-1zm9 1v-1h1 1v1zm-31 0h1v1h-1zm-2 1h1v1h-1zm-7 1h1v1h-1zm-77 4v-1h2v1zm27 0v-1h3v1zm-38 1h1v1h-1zm-25 2v-1h1 1v1zm4 0v-1h6v1 1l-6 1v-1zm7-1h1v1h-1zm-46 1h1v1h-1zm-19 2v-1h1 1v1zm56-1h1v1h-1zm-78 2v-1h2v1zm-35 0h1v1h-1zm2 1v-1h2v1zm3-1h1v1h-1zm3 0h1v1h-1zm11 1v-1h3v1zm-84 1v-1h6v1zm21-1h1v1h-1zm32 1v-1h2v1zm3-1h1v1h-1zm-72 2v-1h7v1zm9-1h1v1h-1zm32 1v-1h3v1zm21 0v-1h2v1zm-70 0h1v1h-1zm55 0h1v1h-1zm-109 2h1v1h-1zm3 2v-2h1v2zm14-2h1v1h-1zm4 1h1v1h-1zm9 1v-1h2zm-45 1v-1h4v1zm11-1h1v1h-1zm-18 1h1v1h-1zm14 1v-1h3 1v1zm9-1h1v1h-1zm-29 2v-1h2v1h-1zm2 1v-1h2 1zm-9 1v-1h2zm-6 1v-1h4v1zm-57 0h1v1h-1zm11 1v-1h2v1zm20 0l-2-1h2zm3-1h1v1h-1zm14 0h1v1h-1zm4 1v-1h2v1zm560-1h1v1h-1zm9 2v-2h1v2zm-673 1h1v1h-1zm32 0h1v1h-1zm-54 1h1v1h-1zm34 1v-1h2v1zm3 0v-1h2v1zm3 0v-1h2v1zm3 0v-1h4v1zm-52 0h1v1h-1zm-7 1h1v1h-1zm-10 2h1v1h-1zm-24 2l2-1v1zm11-1h1v1h-1zm5 0h1v1h-1zm-65 2h1v1h-1zm3 1v-1h1 1zm-30 1v-1h2v1zm-86 1h1v1h-1zm15 1v-1h2zm14-1h1v1h-1zm20 1v-1h2v1zm36 1v-2h1zm-32 0v-1h2v1zm3 0v-1h3v1zm4-1h1v1h-1zm-68 1h1v1h-1zm56 1l1-1v1zm1 0l1-1h1l1 1v1h-3zm3-1h1v1h-1zm-68 2v-1h2v1zm-18 1v-1h5v1zm9-1h1v1h-1zm2 1v-1h2v1zm-42 1h1v1h-1zm-19 2h1v1h-1zm-52 1h1v1h-1zm7 0h1v1h-1zm2 1v-1h2v1zm14 2v-1h2v1zm-42 1h1v1h-1zm-43 1h1v1h-1zm540 17v-1h2v1zm-254 13v-1h3v1zm-2 0h1v1h-1zm-2 2v-1h1 1v1zm-3 1h1v1h-1zm-290 28l2-2v1l-1 1z"/>
		<path id="Path 18" fill-rule="evenodd" class="s18" d="m47 296l28-9 1-8h7l3-5 37-4 26-7 27 4 45-4 28 4 13 4 14 11 17 5 17-2 18-8 19-1 11 7-1 9-7 5 1 4h12l9-4 52 2 21-7 51 4 31-4 72 5 45-4 34 8 51-2 39-8v-6l7-8v-4l-12-9v-8h-9l-5-4-6 1-10 8 7 7-2 4-17 4-21-2 13-13v-3l-8-3 1-3 8-2 1-3 10 2 20-3 3-2-2-7-21-3-38 4-10 8 1 6-19 3-38-5-2-6-14-11 5-14-10-8-4-13-5-5h-25l-8-6-7-13 2-21-6-7-25-16h-19l-24 8h-9l-15-7-4-6-1-11 13-31 3-34 3-4v-8l-5-3-1-5-28-3-14 3-8 7-39 11-15-1-8-4-24 3h-9l2-3-10 3 5-3h-7v4l-7 4-3 11-8 5-38 1-20-9-13-2-18-10-2-12 16-24 1-10h32l-1 5 7 7 20 2 7 6 9 2 5 10 10-1h1 1l8 2 2 1h1l5 3 6-2 21-1 10 5 6-3 12 3 2-3h3l3 3 13-6h10l9-6 4-2h1 1l14-1h1l4 1h1l17-1h1l2-1 1-1 2-1h1 13l6 6-12 27-1 11 4 17 10 11-3 1-1 6-10 4-9 10 3 14 8 5 9-1h3l3-1 3-1h2l1-1h1l2-1h1l4-1 1-1 1-1h1l52 6 8 8 9 27 4 5 12 5 29 1 34-4 14 3-1 2 4 1-1 13-19 13v4l10 7 26 4h63l13-5 20-16 21-10 32 2 2 1 6 1h1 1 2l22 2 20-2 12 4h41l15-3 33 10 17-2 4-15-1-8 7-17v-12l9-15 57-21 17 3 73 1 18 4 5 8-17 15-30 13-11 3-33-1-26 4-16 6-8 9-4 12 5 18 24 2 35-11 25-2 1 2 2-3 11 3 7-3v-3l4 3-1-3 27-1 24-10 30-4v6l-33 3-25 9 2 2-9 4v3l-26 9-22-4-32 4-44-2-11-5-10-26-5 3-11 17-19 7-21-1-9-5h-10l-29 7-26 2-13-11-16-2h-30l-2 3-3-2-35 7-6 8 7 5 18 3 27-4 10 2 6 11-4 15 10 2 48-3 79 2 43-13 64-2 31-8 45-1 28-8 33 2v8l-30-1-30 11-50 5-89 2-17 6-3 5-8 1-1 3-16 1-30 8h-26l-10-3-47 3-8 3-2 4 14 11-10 9-9 3-20 4-26-2-35 8-23-1-43 11-63-2-22-7-52 4-62-2-11 2-13 8-49-9-22 2-10 5-41-8-34 6-13-2-1-3-6 1 1-5-3 2-6-5-61-5-27-6-21 1-14 5 1 2-17 3-67-1-31 4-13-2-72 2v-12l35-1 7 1-2 3h3v-3zm1201-195l-25 2-7-10v-6l8-10 15-4 1-3 8 1zm-1248 0l18-1 25 11h14l7-5h27l14 8 9 10 20 8 11 1 13 7 6 10 14 12 55 5 21 13 29 3 49-4 21 2 14 5 5 8-1 7-13 10v4l6 5h13l17-6h21l17 3 15 9 19 2 4 3 18-1 14-7 22-2 20 8 3 9-4 10-9 6-23 5-7 6-14 2-13 7-14 1-15-12-5-8 1-7-5-4-51 8-38-7-71-2-31-10-9-7-24-4-17-7-109 1-15-5-11-9-63-2v-13l55-1 18-8 2-1 2-1h5 1l2-1h3l2-1h3 3v-1h2l5-1h1l1-1 7-1 3-1h5l4 1h1l7 2 5 9 7 2-2 14 3 4-11-1v3l-6 2 1 3 11 1 6-5 9-1 22 7h13 3l30 8h23l16 7h15l5-2 1-4 3 1-1-4 3-2h12l2 2h6 3l5-1 2-2 1-1h1 6l-2-2 17-9v-4l-6-3-1-5-9-4-15-1-18 5h-4-2-3-1l-9-1-11-1-5-1h-3l-5-1h-1l-24-11 2-2-12-3-9 1-10-1-9-1h-1l-1-1h-1l-1-1-6-1-10-4-20-16-40-17-12-10-17-4-13 10-1 4-10 3-4 7-32 3-17 5zm0 175v-23h27l13 12 1 9-15 5h-19zm1248 23l-21-5-4-9 1-3 24-7zm-28 111l4-3h1 4 1l2 1v2h-3l-4 2v2l-1-3h-4zm22-2l2-1h4v1l-1 1h-3-2zm-75 2v-1h3v1zm4 0v-1h5v1zm5 0h1v1h-1zm43 1h1v1h-1zm-41 1h1v1h-1zm61 1v-1h1 1 1 2 1zm-88 0h1v1h-1zm61 0h1v1h-1zm21 1v-1h3 1 1 1l1 2h-2-2-2zm-8 0h1v1h-1zm-111 1h1v1h-1zm71 0h1v1h-1zm56 0h1v1h-1zm-172 3l1-2h2zm7-1l-2-1h1 1zm110-1h1v1h-1zm-120 2h1v1h-1zm63 0h1v1h-1zm111 1l-3-1h3zm1 0v-1h2v1zm6-1h1v1h-1zm-242 1h1v1h-1zm3 0h1v1h-1zm3 0h1v1h-1zm39 0h1v1h-1zm4 0h1v1h-1zm-52 2l2-1-2 2zm47-1h1v1h-1zm-18 1h1v1h-1zm-14 1h1v1h-1zm-32 2v-1h1v2h-1zm-2 0h1v1h-1zm-3 2l-3-1h3zm4-1h1v1h-1zm-15 1h1v1h-1zm-28 1h1v1h-1zm8 0h1v1h-1zm-21 1h1v1h-1zm-40 2h1v1h-1zm-23 1h1v1h-1zm-7 1h1v1h-1zm14 0h1v1h-1zm-62 2v-1h7zm-22 0h1v1h-1zm17 0h-2 1zm-53 1h1v1h-1zm3 0h1v1h-1zm5 1v-1h5zm10 0l-2-1h2zm3-1h1v1h-1zm-81 2v-1h7zm15 0l-3-1h2 1zm34-1h1v1h-1zm2 0h1v1h-1zm-66 2v-1h2v1zm3 0v-1h5zm30-1h1v1h-1zm24 0h1v1h-1zm-71 2v-1h2zm55 0v-1h5zm-62 0h1v1h-1zm-31 2l-2-1h2zm22-1h1v1h-1zm-18 2l-2-1h2zm1 0v-1h3zm8 0l-2-1h1 1zm-27 0h1v1h-1zm-12 1h1v1h-1zm5 0h1v1h-1zm6 0h1v1h-1zm-33 2h1v1h-1zm4 0h1v1h-1zm-10 2h1v1h-1zm-48 1h1v1h-1zm22 0h1v1h-1zm19 0h1v1h-1zm-65 2h1v1h-1zm-62 2h1v1h-1zm32 0h1v1h-1zm14 1v-1h3zm-51 0h-3 1 1zm-42 4h1v1h-1zm10 0h1v1h-1zm5 1v-1h1 1zm-35 0h1v1h-1zm-32 2v-1h1 1v1zm20-1h1v1h-1zm-46 2v-1h3zm-3 0h1v1h-1zm-84 1h1v1h-1zm14 1l-2-1h2zm-20 0h1v1h-1zm56 0h1v1h-1zm-65 2h1v1h-1zm62 0h1v1h-1zm4 0h1v1h-1zm-73 1h1v1h-1zm-33 1h1v1h-1zm-10 1h1v1h-1zm-14 2v-1h4v1zm5-1h1v1h-1zm-41 3h1v1h-1zm-35 2h1v1h-1zm-5 1h1v1h-1zm-35 1h1v1h-1zm540 16h1v1h-1zm15 1l2 1h-2zm-280 13l2-1v1h-1zm5 0v-1h2v1h-1zm-6 0h1v1h-1zm6 3l3-1v1zm-9 11l1-5 6-3h1l8 3-2 4-10 1h-1zm-3 0l1-2v2zm-176 14l-2-3 4 1v2 1h-1z"/>
		<path id="Path 19" fill-rule="evenodd" class="s19" d="m0 101v-101h216l-1 10-16 24 2 12 18 10 13 2 20 9 38-1 8-5 3-11 7-4v-4h7l-5 3 10-3-2 3h9l24-3 8 4 15 1 39-11 8-7 14-3 28 3 1 5 5 3v8l-3 4-3 34-13 31 1 11 4 6 15 7h9l24-8h19l25 16 6 7-2 21 7 13 8 6h25l5 5 4 13 10 8-5 14 14 11 2 6 38 5 19-3-1-6 10-8 38-4 21 3 2 7-3 2-20 3-10-2-1 3-8 2-1 3 8 3v3l-13 13 21 2 17-4 2-4-7-7 10-8 6-1 5 4h9v8l12 9v4l-7 8v6l-39 8-51 2-34-8-45 4-72-5-31 4-51-4-21 7-52-2-9 4h-12l-1-4 7-5 1-9-11-7-19 1-18 8-17 2-17-5-14-11-13-4-28-4-45 4-27-4-26 7-37 4-3 5h-7l-1 8-28 9-4-1v3h-3l2-3-7-1-35 1v-19l7 3h19l15-5-1-9-13-12h-27v-53l63 2 11 9 15 5 109-1 17 7 24 4 9 7 31 10 71 2 38 7 51-8 5 4-1 7 5 8 15 12 14-1 13-7 14-2 7-6 23-5 9-6 4-10-3-9-20-8-22 2-14 7-18 1-4-3-19-2-15-9-17-3h-21l-17 6h-13l-6-5v-4l13-10 1-7-5-8-14-5-21-2-49 4-29-3-21-13-55-5-14-12-6-10-13-7-11-1-20-8-9-10-14-8h-27l-7 5h-14l-25-11zm1111 132l-64 2-43 13-79-2-48 3-10-2 4-15-6-11-10-2-27 4-18-3-7-5 6-8 35-7 3 2 2-3h30l16 2 13 11 26-2 29-7h10l9 5 21 1 19-7 11-17 5-3 10 26 11 5 44 2 32-4 22 4 26-9v-3l9-4-2-2 25-9 33-3v33l-33-2-28 8-45 1zm51 178l1-1h13l1 1h1v1l1 1h2l1 1h2l3 3h13l1-1h11l1 1h2l1-1v-2l-1-1-1 1h-1v-1l2-1h4l1-1h4l1 3 1 1h1v3h10l3 1h8v23l-9-4-5 1h-4l-1-1-3-1v-2l-1 2h-1l-2 2-2 1-8 3h-12l-2 1h-6l-2-2-5 2h-5l-4 1h-8l-2 1h-13l-3 1h-17l-1 1h-10l-1 1 1 1h2l1 1 6-1h1v2l-2 2h-2l-3 1h-2l-1-1h-2l-1 1h-2l-1 1h-4l-2 1h-22l-4 1h-7l-1 1h-2l-1 1h-2l-4 1-1 1h-2l-2 1h-18l-3-1h-5l-1 1h-3l1-2-2 2h-1l-2 1-1 1h-5l-6 1h-12l-4 1-6 4-16-3h-2v2h-2l-9 1h-4l-4-1h-1l-1 1h-1l-1 1h-14l-3 1h-14l-1 1h-4l-1 1h-5l-3 1h-5l-6 1h-18l-1 1h-4l-12 1h-2l-4 1h-6l-2-1-1 1h-29l4-1h-7v3l-12 1-6 1h-2l-2-2-5-1h-1l-3 2-3-2v1h1v2l-3 1h-19l-8 1h-2l-8 1-25 1-1 1h-3l-3 1h-3l-4 1h-1l-7 1h-7l-1-1-1-3v-1l-1-1h-1l-2-1h-2v1l1 1h1l1 1h1v1l-1 1-1 2h-6l-8 1h-15v-2l2-2h6l1 1 1-1h1v-2h-1v-1h-3l-1 1h-3l-2 1-1 1-2 1h-1v1h1l1 1v1l-1 1-2 1h-17l-3 1h-11l-1-1-2 1h-2l-4-1 1-2-5 1h-1l-2 1-3 1h-2l-5-1v-1l-2-1h-1l-1-1h-2l-2-1h-2l-2 2h-4v-1l3-1h-1l-3 1h-1l-2-1h-4v1h-2l-3-1h-1l-1 1v1h-3l-1 1v2l2 1h2v2h-9l-9 1h-3l-4-3-2 2-5 1h-2l-2 1h-3l-2-1h-1l3-4h-4v4l-1 1h-12l-2 1-1-2v-1h-2l-1 1v2h-2v-3h-4v4h-15l-2 1h-3l-4 1-3 1h-6l-14 2h-4l-1 1-17 1v-3h-1l-2 1h2v2l-4 2-10 2h-5l-7 1h-2l-26-2-3 4-2-3-10 2h-6l-4 1h-3l-2 1h-16l-3 1 2-4-8-3v-1l1-1v-1h4l6 2 1 1h1l1-1-3-3-2-1-3-3-1 1h-7l-2 1h-2l-1 1-2 1v1l1 1 2-2h2v1l1 1 1 2h1l-6 3-1 5h-2v-2l-1 2-37 4-26 3v1l-7 3 2-3-6-1-2-2-3 5-18-1-1-2-3 1h-2l-1 1-3 1-1 1h-5l-13 2-1-3h4l1-1h2l5-1h2v-1l-4-1-3 1-8 1h-1l-6 1 1 1h3l-7 6-5-3-8 1v-3l-2 3-4-3h-7l-1-1-5-1-4 3-4-1 2 3-4-1-1-2-3 3h-1v-3h-7v2l1 1 1 2v1l-7 1v-1h-7l-1 1v1l-3 3-12-3-3 3-11-1-1 3-9-5-2 5-24 2-1-3-10-1-2 3-4 1h-4l-1 1h-11v-4l2-1h1l2-1 11-1 4-2 1-3h-4l-2 2h-2l-1 1-4 1-3 1h-5v-65h2l1 1h23l1 1h2l1-1h5l1 1h8l8-1h18l1-1h4l1-1 12-2 1-1h5l1 1h15v2h3v-1h-2v-1h15l2-1h12l1-1h10l1-1h8l1-1h9l1-1h32l1-1h6l1-1h5l1-1h2l1-1h5l1-1h11l2 1 2-1h12l1 1h21v1h-2l-1 1 1 1h3l1-1v-1h12l1 1h8l1-1h10l1-2v-1h2l3-1h25l2-1h11l1 1h4l1-1h11l1-1h19l1-1h6l1 1h2l1-1h1l1 1h2l2-1h3l1-1h2l2-1h5l1-1h6l1-1h9l1-1h4l1-1h15l1 1h10l1 1h13l3-1h4l1-1h8l1-1h1l2-1h1l1-1h5l1 1h12l1-1h15l2 1h4l1-1h12l1 1h5l1-1h6l1-1h1l2-1h2l1-1h3l1 1 3-1v-1h1l1-1h12l1 1h10l2-2v-2h11l2 1h2l2 1h1l3-1h3l2 1 2-1h7l1-1h8l1-1h6l2-1h15l5-1h7l7-1h5l3 1h3l1 1h6l1 1 5-1h11l1-1h8l1-1h16l5-1h3l2 1h3l1-1h14l1-1h21l7-1h10l1-1h19l6-1h4l2 2h1l1 1h5l6-1 2-2h14l1-1h4l3-1h32l1-1h12l1-1h7l1 1 2-1h17l1-1h5l1-1h1l3 1 1-1h3l1 1v1h1v-4h12l4-1 2-2h1l1-1h2v1l-2 2 1 1h10l1-1h13l1-1h11l3-1h1l1 1h1l2-2h3l1 1h2l2-1h7l1-1h2l3-2h2l2 1h11v2h5l1-1h14l1-1h4l1-1h1l1-1v-1h1v1l3 2 2 1h8l1 1 2-2 12-1 1-1h2l1-1h3l1-1h1l1-1h3l1-1zm77 2l6-1h3v4h-3l-3-1h-2zm-230 7v-1h2v1zm-25 4h1v1h-1zm-120 7h1v1h-1zm319 14v2l-3-2zm23 0l-3 2-3-2zm-30 1l-1 3v-3zm26 6l6-2 3 2zm-115 16l-2 3-7-1 1-2zm-17 2l-11 1 5-2h6zm-156 10l-18 2 11-3h2zm-128 4l3-1-2 2h-1zm-223 15h1v1h-1zm-256 8h1v1h-1zm-178 28v-1h3v3zm1069-90h-3 2z"/>
		<path id="Path 20" fill-rule="evenodd" class="s0" d="m559 2h1v1h-1zm-1 8h1v1h-1zm-1 1h1v1h-1zm-2 2h1v1h-1zm-13 12h1v1h-1zm-5 1h1v1h-1zm6 0h1v1h-1zm-7 2h1v1h-1zm91 15h1v1h-1zm322 52h23l13 7 2 5 11 1 15-4 19-11 28-5 7-3v-3l15-5h10l24-10 57-12-65 20-31 7-17 9-15 2-8 6-2-2-2 3-10 2-8 7-30 2-11-5 2-4-11-6-2-1zm-114-30h1v1h-1zm-138 22h1v1h-1zm-1 1h1v1h-1zm4 7l-1 4-9-1zm221 0h1v1h-1zm20 0h1v1h-1zm-251 63h1v1h-1zm524 206h1v1h-1zm-104 1h1v1h-1zm25 0h1v1h-1zm50 0h1v1h-1zm22 0h1v1h-1zm-506 1h1v1h-1zm-19 1h1v1h-1zm-176 2h1v1h-1zm58 0h1v1h-1zm105 0h1v1h-1zm-468 1h1v1h-1zm107 3v-1h3v1zm494-1l2 2h-4zm5 1h1v1h-1zm6 0h1v1h-1zm-795 1h1v1h-1zm177 1h1v1h-1zm231 2l2-2-1 2zm4-1h8-3l-2 1h-1-1zm-394 3h1v1h-1zm376 9l-2 2-5-2 2-3zm4-3l7 3-4 2zm-22 2l2 3h-3zm3 0h1v1h-1zm3 0h1v1h-1zm26 1h1v1h-1zm-47 2h1v1h-1zm44 1h1v1h-1zm-56 3h1v1h-1zm35 1h1v1h-1zm-175 1h1v1h-1zm733 3l6 2-6 1zm95 1h1v1h-1zm-276 1h1v1h-1zm237 1l5 1-6 1zm42 0l4 3-5-1zm-577 1h1v1h-1zm388 0h1v1h-1zm245 0h1v1h-1zm-30 1h1v1h-1zm-12 1h1v1h-1zm-500 2l2 3h-4zm3 0l2 2-2 1zm4 0h1v1h-1zm457 0h1v1h-1zm-117 1h1v1h-1zm0 2h1v1h-1zm48 0h1v1h-1zm-268 1h1v1h-1zm236 0h1v1h-1zm-164 1h1v1h-1zm3 0h1v1h-1zm-383 2h1v1h-1zm616 1h1v1h-1zm3 0h1v1h-1zm-371 1h1v1h-1zm200 0h1v1h-1zm-269 1h1v1h-1zm319 2h1v1h-1zm-444 1l8 3-4 1zm10 3h1v1h-1zm149 0h1v1h-1zm-368 1l7 2-8 1zm-131 3h1v1h-1zm157 1h1v1h-1zm-12 1h1v1h-1zm40 1h1v1h-1zm-29 1l6 2-5 1zm-63 3h1v1h-1z"/>
		<path id="Path 21" class="s1" d="m560 6v-1 2zm-4 6h1v1h-1zm-29 3h1v1h-1zm20 14h1v1h-1zm-13 1h1v1h-1zm15 0h1v1h-1zm2 0h1v1h-1zm-19 1h1v1h-1zm-2 2h1v1h-1zm-2 1h1v1h-1zm162 47h1v1h-1zm31 9h1v1h-1zm226 5h1v1h-1zm-265 1h1v1h-1zm20 52h1v1h-1zm3 1h1v1h-1zm211 0h1v1h-1zm-82 6h1v1h-1zm74 29h1v1h-1zm-48 1h1v1h-1zm282 146h1v1h-1zm-164 1h1v1h-1zm163 0h1v1h-1zm3 2h1v1h-1zm-324 2h1v1h-1zm114 0h1v1h-1zm-127 3h1v1h-1zm10 0h1v1h-1zm24 0h1v1h-1zm54 2h1v1h-1zm86 22h1v1h-1zm84 2h1v1h-1zm15 0h1v1h-1zm-1005 1h1v1h-1zm5 0h1v1h-1zm662 0h1v1h-1zm-728 1h1v1h-1zm13 0h1v1h-1zm697 1h1v1h-1zm61 0h1v1h-1zm-207 1h1v1h-1zm270 1h1v1h-1zm2 0h1v1h-1zm-138 37h1v1h-1zm404 3l-7-1 8-1zm2-2h1v1h-1zm-98 1h1v1h-1zm-315 1h1v1h-1zm486 0h1v1h-1zm-291 1h1v1h-1zm22 0h1v1h-1zm195 0h1v1h-1zm-48 1h1v1h-1zm9 0h1v1h-1zm-184 1h1v1h-1zm181 0h1v1h-1zm-547 1h1v1h-1zm541 0h1v1h-1zm-439 3h1v1h-1zm301 2h1v1h-1zm99 0h1v1h-1zm6 0h1v1h-1zm-678 1h1v1h-1zm-289 2h1v1h-1zm125 0h1v1h-1zm783 1h1v1h-1zm-88 6h1v1h-1zm-247 4h1v1h-1zm79 2h1v1h-1zm-113 4h1v1h-1zm-7 1h1v1h-1zm-74 3h1v1h-1zm-7 2h1v1h-1zm-11 1h1v1h-1z"/>
		<path id="Path 22" class="s2" d="m1099 568h1v1h-1z"/>
		<path id="Path 23" class="s3" d="m374 23h1v1h-1zm1 1h1v1h-1zm4 0h1v1h-1zm245 0h1v1h-1zm-246 1h1v1h-1zm-141 7l8 6v4l-1-3-4 1v-4l-9 3-1-5zm-9 3h1v1h-1zm18 5h1v1h-1zm459 64h1v1h-1zm477 8h1v1h-1zm-1099 11h1v1h-1zm392 6h1v1h-1zm-434 55h1v1h-1zm1022 14h1v1h-1zm-565 32l3-1h2 14 2 1l3 7-4 4-1 8-4 2h-2l-37 8-6-9v-9l9-6 3-1h1l10-2h3zm685 12h1v1h-1zm-8 2h1v1h-1zm9 0h1v1h-1zm-116 5h1v1h-1zm4 0h1v1h-1zm-48 58h1v1h-1zm-975 5h1v1h-1zm1067 8h1v1h-1zm-693 8h1v1h-1zm785 4h1v1h-1zm-790 6h1v1h-1zm-277 26h1v1h-1zm-1 3h1v1h-1zm1103 39h1v1h-1zm-29 3l1-1 1 2zm-54 0h1v1h-1zm17 0h1v1h-1zm58 0h1v1h-1zm-54 1h1v1h-1zm57 1h1v1h-1zm3 0h1v1h-1zm5 0h1v1h-1zm-115 1h1v1h-1zm2 0h1v1h-1zm-38 1h1v1h-1zm115 0h1v1h-1zm-262 1h1v1h-1zm141 0h1v1h-1zm5 0h1v1h-1zm117 0h1v1h-1zm-136 1h1v1h-1zm139 1h1v1h-1zm-85 1h1v1h-1zm2 0h1v1h-1zm-119 1h1v1h-1zm43 1h1v1h-1zm62 3h1v1h-1zm-149 4h1v1h-1zm25 1h1v1h-1zm-132 4h1v1h-1zm-192 6h1v1h-1zm-165 11h1v1h-1zm-195 12h1v1h-1zm-10 3h1v1h-1zm-10 1h1v1h-1zm5 0h1v1h-1zm4 0h1v1h-1zm8 0h1v1h-1zm-80 37h1v1h-1zm-66 4h1v1h-1zm9 5h1v1h-1z"/>
		<path id="Path 24" class="s4" d="m724 363h1v1h-1zm194 0h1v1h-1zm-189 5h1v1h-1zm90 0h1v1h-1zm27 0h1v1h-1zm-555 1h1v1h-1zm334 115l1-1h1 1v1l-1 1h-3v-1zm10 0h1v1h-1zm-45 1h1v1h-1z"/>
		<path id="Path 25" fill-rule="evenodd" class="s5" d="m1009 328h1v1h-1zm4 0h1v1h-1zm2 0h1v1h-1zm-156 2h1v1h-1zm288 0h1v1h-1zm31 0h1v1h-1zm-318 1h1v1h-1zm97 0h1v1h-1zm89 0h1v1h-1zm113 0h1v1h-1zm39 0h1v1h-1zm-242 1h1v1h-1zm24 0h1v1h-1zm157 0h1v1h-1zm11 0h1v1h-1zm-288 1h1v1h-1zm95 0h1v1h-1zm24 0h-2 1zm10 0h1v1h-1zm129 0h1v1h-1zm9 0h1v1h-1zm42 0h-4 3zm1 0h1v1h-1zm-65 1h1v1h-1zm137 0h1v1h-1zm-413 1h1v1h-1zm118 0h1v1h-1zm21 0h-2 1zm90 0h1v1h-1zm21 0h1v1h-1zm30 0h1v1h-1zm110 0h1v1h-1zm-338 1h1v1h-1zm50 0h1v1h-1zm166 0h-3 2zm121 0h-8 1zm-340 1h1v1h-1zm2 0h1v1h-1zm54 0h-2 1zm2 0h1v1h-1zm131 0h1v1h-1zm-256 1h1v1h-1zm31 0h1v1h-1zm37 0h1v1h-1zm8 0h1v1h-1zm43 0h1v1h-1zm-42 1h1v1h-1zm23 0h1v1h-1zm-73 1h1v1h-1zm82 0h1v1h-1zm150 0h1v1h-1zm-174 2h1v1h-1zm3 0h1v1h-1zm-110 1h1v1h-1zm246 0h1v1h-1zm-247 1h1v1h-1zm-16 4h1v1h-1zm375 1h1v1h-1zm-97 4l3 2h-4zm-120 3h1v1h-1zm77 0h1v1h-1zm68 0h1v1h-1zm-128 4l-5 1v-3l-6-1h12zm2-3h5l4 4h-8zm63 1h1v1h-1zm77 0l5 1-2 2h-11zm-142 1h1v1h-1zm55 0l4 2-4 1zm62 0h1v1h-1zm34 0h1v1h-1zm-174 1h1v1h-1zm-163 1h1v1h-1zm181 1h1v1h-1zm119 0h1v1h-1zm-148 4h1v1h-1zm195 0h1v1h-1zm35 0h1v1h-1zm-404 1h1v1h-1zm-296 1h1v1h-1zm80 0h1v1h-1zm224 3h1v1h-1zm14 0h1v1h-1zm-336 7l11 1-10 2zm762 35h1v1h-1zm-65 9h1v1h-1zm-187 4h1v1h-1zm-100 4h1v1h-1zm-163 3h1v1h-1zm106 0h1v1h-1zm-127 1h1v1h-1zm-137 13h1v1h-1zm-471 28h1v1h-1zm582 8h1v1h-1zm-227 9l2-1h2 4 1v1h1v2h-2-1-4-1zm-69 1l1-1h1l5 2h-3-1-1-2zm230 2h1v1h-1zm26 0h1v1h-1zm-22 2h1v1h-1zm6 2h1v1h-1zm-463 13v-2h1v2zm-47 16l1-1h3 1l1 1-5 2h-1l-1 1-3 1h-1l-3-1 1-2h1 1zm118 0h1v1h-1zm-153 9l3-1h1v1 1 1h-4z"/>
		<path id="Path 26" fill-rule="evenodd" class="s6" d="m591 56l28 18-1 3-11 4-13-2-13-8-2-12 4-4zm0-1h1v1h-1zm329 37h1v1h-1zm-675 278h1v1h-1zm3 0h1v1h-1zm95 1h1v1h-1zm165 1h12l3 3h-16zm17 2h1v1h-1z"/>
		<path id="Path 27" fill-rule="evenodd" class="s7" d="m1231 363h1v1h-1zm2 0h1v1h-1zm-80 1h1v1h-1zm-508 1h1v1h-1zm463 0h1v1h-1zm-477 2h1v1h-1zm-583 1h1v1h-1zm3 0h1v1h-1zm371 0h1v1h-1zm-335 1h1v1h-1zm178 3h1v1h-1zm-45 5h1v1h-1zm-3 6h1v1h-1zm28 5l2 2-4 1zm-32 5h1v1h-1zm193 3h1v1h-1zm770 2h1v1h-1zm-12 1h1v1h-1zm-769 4l7 1-2 2-15 1zm-42 1l2 2h-3zm703 2h1v1h-1zm-674 1h1v1h-1zm350 0h1v1h-1zm3 0h1v1h-1zm162 0l1 2h-3zm196 0h1v1h-1zm26 0h1v1h-1zm84 0h1v1h-1zm-332 1l12 1-2 3-9-1zm221 0h1v1h-1zm-498 1h1v1h-1zm413 2h1v1h-1zm-491 1h1v1h-1zm497 0h1v1h-1zm2 0h1v1h-1zm61 0h1v1h-1zm-4 1h1v1h-1zm-465 3h1v1h-1zm-256 6h1v1h-1zm-87 10h1v1h-1zm320 6h1v1h-1zm2 0h1v1h-1zm-16 2h1v1h-1zm-7 1h1v1h-1z"/>
		<path id="Path 28" fill-rule="evenodd" class="s8" d="m518 20h1v1h-1zm502 44h6l1 4-7 2zm-266 102h1v1h-1zm-196 204h1v1h-1zm12 0h1v1h-1zm8 0h1v1h-1zm-557 2h1v1h-1zm282 0h1v1h-1zm5 1h-2l2-1zm3 0v-1l3 1zm81-1h9v4l-9 1zm25 4l-6 1-3-4v4h-3v-5h35l1 4h-11l-3 1 1-2-2 2-8-1zm40-4h1v1h-1zm-179 2h1v1h-1zm-17 9h1v1h-1zm-2 1h1v1h-1zm-26 2l2 3-7-1zm109 2h1v1h-1zm-82 3h1v1h-1zm5 5h1v1h-1z"/>
		<path id="Path 29" fill-rule="evenodd" class="s9" d="m661 0h1v1h-1zm234 20h14l6 11-7 6-23-6 1-8zm-393 44h1v1h-1zm657 3h1v1h-1zm-422 34h1v1h-1zm-51 1h1v1h-1zm-53 1h1v1h-1zm-142 14h6v3l7 3-20 6-4-8zm-367 34h1v1h-1zm762 6h1v1h-1zm22 26h1v1h-1zm-23 4h1v1h-1zm-2 1h1v1h-1zm145 139h1v1h-1zm-34 1h1v1h-1zm40 0h1v1h-1zm-1 1h1v1h-1zm99 1h1v1h-1zm2 0h1v1h-1zm12 0h1v1h-1zm56 0h1v1h-1zm-223 1h1v1h-1zm152 0h1v1h-1zm-158 1h1v1h-1zm72 0h1v1h-1zm-83 1h1v1h-1zm187 0h1v1h-1zm6 0h1v1h-1zm-206 1h1v1h-1zm9 0h1v1h-1zm5 0h1v1h-1zm126 0h1v1h-1zm-229 1h1v1h-1zm75 0h1v1h-1zm161 0h1v1h-1zm-164 1h1v1h-1zm5 0h1v1h-1zm-118 1h1v1h-1zm104 0h1v1h-1zm-105 1h1v1h-1zm64 0h1v1h-1zm34 0h1v1h-1zm-113 1h1v1h-1zm11 1h1v1h-1zm-36 5h1v1h-1zm-24 2h1v1h-1zm17 0h1v1h-1zm2 0h1v1h-1zm-21 3h1v1h-1zm-27 11h1v1h-1zm-6 1h1v1h-1zm4 0h1v1h-1zm-12 1h1v1h-1zm7 1h1v1h-1zm9 0h1v1h-1zm224 0h1v1h-1zm-864 1h1v1h-1zm2 0h1v1h-1zm632 0h1v1h-1zm126 0h1v1h-1zm-748 1h1v1h-1zm13 0h1v1h-1zm814 0h1v1h-1zm11 0h1v1h-1zm-209 1h1v1h-1zm9 0h1v1h-1zm48 1h5-2-2zm-17 0h1v1h-1zm22 0h1v1h-1zm412 38h1v1h-1zm14 0h1v1h-1zm2 0h1v1h-1zm20 0h1v1h-1zm3 0h1v1h-1zm-113 2h1v1h-1zm12 0h1v1h-1zm57 0h1v1h-1zm6 0h1v1h-1zm-53 3h1v1h-1zm34 1h1v1h-1zm1 1h1v1h-1zm19 1h1v1h-1zm-95 1h1v1h-1zm-14 1h1v1h-1zm-47 3h1v1h-1zm-38 2h1v1h-1zm-295 8l6 2h-9zm-61 2h1v1h-1zm103 0h1v1h-1zm45 1h1v1h-1zm-131 2h1v1h-1zm70 1h1v1h-1zm-160 6h1v1h-1zm-6 4h1v1h-1zm-27 1h1v1h-1zm3 0h1v1h-1zm-213 12h1v1h-1zm2 0h1v1h-1zm15 0h1v1h-1zm-291 14h1v1h-1z"/>
		<path id="Path 30" fill-rule="evenodd" class="s10" d="m590 484h1v1h-1zm-49 197l3 1-4 1zm-27 5l4 3-4 1zm-9 2l8 1v5h-3l2-3-8 2-2-4zm23 3h1v1h-1zm62 20h1v1h-1zm-315 41l3 1-6 2zm21 1h1v1h-1zm-30 1l1 2h-3zm29 0h1v1h-1zm-24 3h1v1h-1zm-22 5l5 2-3-1-2 3zm-8 4l2 2-5 1z"/>
		<path id="Path 31" class="s11" d="m936 362h1v1h-1zm288 78h1v1h-1zm-163 25h1v1h-1zm-12 1h1v1h-1zm26 0h1v1h-1zm-498 31h1v1h-1zm2 3h1v1h-1zm11 212h1v1h-1zm-322 29h1v1h-1z"/>
		<path id="Path 32" class="s12" d="m313 14l28 1 11 10 5-1v3l-30 6-12-8 1-6h-4v-3l4-1zm847 51h1v1h-1zm-1 1h1v1h-1zm-329 26l8 3 5 7-3 13-20 8-20-1 2-2-2-7 4-8zm-294 3h1v1h-1zm-1 1h1v1h-1zm558 4h1v1h-1zm-425 5h1v1h-1zm-3 46h1v1h-1zm-370 50l9 4-7 2-3-2zm821 118h1v1h-1zm-265 3h1v1h-1zm140 7h1v1h-1zm204 2h1v1h-1zm-431 17h1v1h-1zm-13 3h1v1h-1zm-163 13h1v1h-1zm-4 1h1v1h-1zm15 0h1v1h-1zm-438 1h1v1h-1zm-98 1h1v1h-1zm916 45h1v1h-1zm-566 39h1v1h-1zm17 1h1v1h-1zm-52 2h1v1h-1zm2 0h1v1h-1zm-15 1h1v1h-1zm9 0h1v1h-1zm17 0h1v1h-1zm-12 1h1v1h-1zm3 0h1v1h-1zm23 0h1v1h-1zm-280 11h1v1h-1zm3 0h1v1h-1zm4 1h1v1h-1z"/>
		<path id="Path 33" fill-rule="evenodd" class="s13" d="m1211 334h1v1h-1zm-5 1h1v1h-1zm-275 29h1v1h-1zm-173 2v-1l2 1zm100-1h1v1h-1zm-4 1h1v1h-1zm317 54v-1l2 1zm-54 2l-1-2h2 1v1l-1 1zm-35 0l1-1h2l1 1zm36 0l1-1h1v2h-2zm3 1v-2h1v1 1zm-41 0l-3-1h3l1 1zm43-1h1v1h-1zm-71 7v-1h1 1v1zm168 6v-1h2v1h-1zm-10 1v-1h2v1h-1zm4-1h1v1h-1zm4 1v-1h1 1v1zm-425 4v-1h4v2h-3zm-119 3l1-1h1l1 2v1 1 1h-2l-1-1zm565-1l4 2h-5zm-570 4v-3h1v2zm537-3h1v1h-1zm5 0h1v1h-1zm-547 3v-1h3v1h-1zm-4 1v-1h3 1v1zm549-1v3l-3-1zm15 3h1v1h-1zm-499 1h1v1h-1zm392 7h1v1h-1zm-122 4l-2-2h1 1 1l1 1-1 1zm-25 0h1v1h-1zm65 1h1v1h-1zm209 0h1v1h-1zm-114 1h1v1h-1zm78 2h1v1h-1zm12 0h1v1h-1zm-52 1h1v1h-1zm-255 1h1v1h-1zm2 0h1v1h-1zm45 1l2-1v1h-1zm173-1h1v1h-1zm16 0h1v1h-1zm2 0h1v1h-1zm-235 2v-1h1 1v1zm113 0h1v1h-1zm5 0h1v1h-1zm3 0h1v1h-1zm120 0h1v1h-1zm-141 1h1v1h-1zm144 0h1v1h-1zm-342 3l1-1h1l-1 1zm64-1h1v1h-1zm-408 2l1-1v3zm387 0l-3 1 1-2zm100-1h1v1h-1zm49 0h1v1h-1zm-547 1h1v1h-1zm23 1h3l-2 1zm223 0l1-1h2l1 1h1 1 4l-1 2h-5l-1-1-3 2h-1l-3-3h1zm231-1h1v1h-1zm7 0h1v1h-1zm31 0l2 3-4-1zm-511 1h1v1h-1zm278 1l2-1 1 1h3v1h1l2 2-2 1h-1l-2 1v1h-1l-2-1-1-1-1-1h-1-1-1l3-2v-1zm71 0l-4-1h1 2 1zm-142 1v-1h1l2 1h1 1l2 1-1 1h-1-1l-1 1-3-1v-1zm-195 0h1v1h-1zm192 2v-1h2v1h-1zm-309 0h1v1h-1zm269 3l2-3v5h-4l-1-1h-1-1-1-1v-3zm36-2h-2l2-1zm45-1h1v1h-1zm14 0h1v1h-1zm121 0h1v1h-1zm-176 2l-1-1h1 1 1v1h-1zm-198 3l2-3 1 1v1l-1 1-3 1zm118-2h6l1 1h2l1 1-5 2v-2l-1-1h-1-1-2-1v-1zm190-1h1v1h-1zm-294 4l-2-3h1 1 2v1 1 1zm100 0h-7l3-3 4 1v1zm48-2l3-1-1 3-1-1zm-173 1v-1h4v1l-1 1h-3zm159 0l1-1h2v1l-1 1zm-7 0h1v1h-1zm3 1v-1h2v1zm17-1h1v1h-1zm-174 2l1-1h1l-3 3v-2zm175-1h1v1h-1zm27 0h1v1h-1zm-178 3v-2h2zm6-2h1v1h-1zm53 0h1v1h-1zm72 0h1v1h-1zm59 2l1-2 1 1v1h-1zm2-2h1v1h-1zm-349 2l1-1h1 2l-1 1-1 1h-2zm350-1h1v1h-1zm6 0h1v1h-1zm126 0h1v1h-1zm-475 3l-1-2h1v1zm72-2h1v1h-1zm58 3l1-3h1l1 2v1l-1 1h-1zm23-1l2-2v2zm166-2h1v1h-1zm154 0h1v1h-1zm-728 2v-1h2v1zm218 0h-2l2-1zm-270 1h4l-1 1h-1l-1 1-2 1v-2zm181-1h1v1h-1zm123 2v-1h7v1l-1 1-1 1zm67 0v-1h1 1zm69 0v-1h2l-1 2h-1zm94-1h1v1h-1zm38 1v-1l2 1h-1zm52-1h1v1h-1zm-322 1h1v1h-1zm70 3l-2-3h1l2 2v1zm77-2l2-1v1zm-148 0h1v1h-1zm1 2v-1h2zm394-1l1 2h-3zm-694 1h1v1h-1zm435 2h1v1h-1zm-235 2v-1h1 1v1h-1zm335-1h1v1h-1zm-354 2v-1h1 1 1zm250 0l1-1h1l1 1h1v1l-1 1h-1v1l-2-1zm-365 1h1v1h-1zm124 1h5l-1 1h-2-1zm8 1v-1h1 2 1l-1 2-1 1h-1l-1 1h-1v-2zm-32 0h1v1h-1zm20 0h1v1h-1zm-63 3v-1h1 1v1zm43 2v-3 1zm-20-1v-1h2v1zm156 0v-1h1 1 1v1l-1 1h-1zm80 0l1-1 1 1v1zm51-1h1v1h-1zm2 0h1v1h-1zm-296 4l-4-2 5-1v3zm-48-2h1v1h-1zm-14 1h1v1h-1zm9 2v-2l2 1v1h-1zm-8 1v-2h1 1v1 1zm100 2l1-4v2 3h-1zm-89-2v-1h1 1l-1 1zm529-1h1v1h-1zm-522 3v-2h1v2zm126-1v-1h2v1zm8 0v-1h3v1h-1zm-12 1v-1h1 1v1h-1zm-117 1v-1h3v1 1l-1 1-2-1zm147-1h1v1h-1zm-67 1h1v1h-1zm28 1v-1h2v1l-2 1zm150 1l-3-1 4-1zm13-2h1v1h-1zm-190 1h1v1h-1zm171 1l-1 2-5-2 6-1zm-286 1v-1h1v1 1h-1zm292-1h1v1h-1zm1 1h3l-1 1zm-281 2l1-1h1 1v4 2l-2-3-1-1-1-1zm250 3l-1-4 2 3zm-272-2l2-1h1l-1 2-1 1h-1l-1-1zm28 0l5-1v1 2h-1l-1 1h-2l-1 1h-2v-2zm209-1l2 1-2 2-5 2 1-4zm29 0h1v1h-1zm-256 2l1-1h1l2 1 2 2v1l-2 1-2-1v1h-2v-1zm315-1h1v1h-1zm-109 1h1v1h-1zm47 0h1v1h-1zm11 0h1v1h-1zm44 0h1v1h-1zm-301 2l1-1h1l1 1v1h-3zm50 0l1-1h1 1 1l1 2v1l-1 1h-3l-1-1-1-1zm244-1h1v1h-1zm-131 1h1v1h-1zm18 0h1v1h-1zm15 0h1v1h-1zm116 0h1v1h-1zm-321 2l-1-1h1 1v1zm239-1h1v1h-1zm-273 2v-1h3v1zm-1 0h1v1h-1zm5 0h1v1h-1zm-10 2v-1h2 3zm6 1l5-2h1 2v2zm235-2h1v1h-1zm-244 2l1-1-1 2zm-1 2v-1h1l3 1v1h-3-1zm5 0l3-1v1h-1zm207-1h1v1h-1zm-54 1h1v1h-1zm-72 1l2 2-3 2zm42 1l1 2h-3zm-45 1h1v1h-1zm26 0h1v1h-1zm23 0h1v1h-1zm-158 2v-1h2 1zm116-1l4 4-4-1zm216 0h1v1h-1zm-333 2v-1h1v2h-1zm5-1h1v1h-1zm117 1h1v1h-1zm23 0h1v1h-1zm221 0h1v1h-1zm80 0h1v1h-1zm3 0h1v1h-1zm-311 1h5l1 3h-6zm48 1h1v1h-1zm-149 4h1v1h-1zm70 0h1v1h-1zm-2 1l2 2-2 2-2-2zm10 0h1v1h-1zm173 1h1v1h-1zm-199 1h1v1h-1zm-112 1h1v1h-1zm115 33h1v1h-1z"/>
		<path id="Path 34" fill-rule="evenodd" class="s14" d="m927 363h1v1h-1zm299 75h1v1h-1zm-5 2h1v1h-1zm-60 16l9 1v3l-10-2zm-33 1l7 4h-8zm-9 2h1v1h-1zm106 2l7 2-7 1zm22 0h1v1h-1zm-333 6h1v1h-1zm270 5h1v1h-1zm-473 7h1v1h-1zm2 0h1v1h-1zm12 0h1v1h-1zm16 0h1v1h-1zm139 0h1v1h-1zm-131 2l2-1v1zm-3 1v-1l2 1zm-156 1h1v1h-1zm3 1v-1h1 1l1 1h-1zm31-1h1v1h-1zm-37 2v-1h3v1 1h1v1h-1-2v-1zm28 0v-1h1 1v1 1h-1-1zm13-1h1v1h-1zm47 2h1v1h-1zm104 0h1v1h-1zm-103 1h1v1h-1zm-67 2l3-1 1 2h-4zm128 1h1v1h-1zm13 0l1 6-3-3zm8 0l-2 3-1-3zm-20 1l3 2-4 1zm31 0h1v1h-1zm-189 1h1v1h-1zm172 0h1v1h-1zm-6 1h1v1h-1zm-11 3h1v1h-1zm-184 3h1v1h-1zm-57 2h1v1h-1zm13 0h1v1h-1zm-34 5h1v1h-1zm181 3h1v1h-1zm-272 7h1v1h-1zm16 1h1v1h-1zm3 0h1v1h-1zm-14 5h1v1h-1zm-14 1h1v1h-1zm10 5l-2-3 4-1zm-14-3l3 2-4 1zm8 0l3 3h-3zm-4 1h1v1h-1zm-64 1h1v1h-1zm21 0h1v1h-1zm30 0h1v1h-1zm14 0h1v1h-1zm13 0h1v1h-1zm-49 1h1v1h-1zm-29 2h1v1h-1zm89 3h-2l1-3zm-285-1h1v1h-1zm192 1h1v1h-1zm-191 2h1v1h-1zm186 6h1v1h-1zm74 0h1v1h-1zm-212 20l9-1 1-4 7 3 3 3 4-1-1-2 4 1-2 5h5l-4 5h-4l-15-2-1-3-10-3zm27-2h1v1h-1zm-57 5h1v1h-1zm60 0h1v1h-1zm-41 9h1v1h-1zm400 40h1v1h-1zm232 5h1v1h-1zm-302 10h1v1h-1zm48 42h1v1h-1zm-15 5h1v1h-1zm-240 68h1v1h-1zm-207 38h1v1h-1z"/>
		<path id="Path 35" fill-rule="evenodd" class="s15" d="m444 15h1v1h-1zm0 4h1v1h-1zm49 110h1v1h-1zm-395 42h1v1h-1zm1042 145h1v1h-1zm2 1h1v1h-1zm-131 10h1v1h-1zm-13 1h1v1h-1zm5 0h1v1h-1zm174 1h1v1h-1zm-320 1h1v1h-1zm129 0h1v1h-1zm-10 1h1v1h-1zm5 0h1v1h-1zm3 0h1v1h-1zm58 0h1v1h-1zm116 0h1v1h-1zm10 0h1v1h-1zm65 0h1v1h-1zm-262 1h1v1h-1zm72 0h1v1h-1zm113 0h1v1h-1zm-203 1h1v1h-1zm96 0h1v1h-1zm-205 1h1v1h-1zm218 0h1v1h-1zm46 0h1v1h-1zm78 0h1v1h-1zm-338 1h1v1h-1zm18 0h1v1h-1zm226 0h1v1h-1zm-256 1h1v1h-1zm14 0h1v1h-1zm17 0h1v1h-1zm7 0h1v1h-1zm-37 1h1v1h-1zm32 0h1v1h-1zm4 0h1v1h-1zm48 0h1v1h-1zm3 1h1v1h-1zm-122 1h1v1h-1zm-2 1h1v1h-1zm100 0h1v1h-1zm-105 2h1v1h-1zm-25 4h1v1h-1zm-11 1h1v1h-1zm-11 6h1v1h-1zm-7 1h1v1h-1zm-1 1h1v1h-1zm-122 5h1v1h-1zm33 3h1v1h-1zm2 0h1v1h-1zm2 0h1v1h-1zm2 0h1v1h-1zm-410 1h1v1h-1zm-141 1h1v1h-1zm48 0h1v1h-1zm111 0h1v1h-1zm57 0h1v1h-1zm128 1h2-1zm299 0l9-1v1l-4 1h-1-1zm99 0v-1l2 1zm64-1h1v1h-1zm-803 1h1v1h-1zm24 0h1v1h-1zm18 0h1v1h-1zm55 0h1v1h-1zm41 0h1v1h-1zm137 0h1v1h-1zm32 0h1v1h-1zm4 0h1v1h-1zm63 0h1v1h-1zm-370 1h1v1h-1zm81 0h1v1h-1zm925 53h1v1h-1zm-37 1h1v1h-1zm3 0h1v1h-1zm35 2v-2h1v2zm2-1v-1h1l1 1h-1zm-70 0h1v1h-1zm72 0h1v1h-1zm-120 3h3v1 1h-1l-1 1-1 2h-1l-1-2v-1l1-1zm3 0h1v1h-1zm50 1l1-1 1 3h-3-2v-1h1l1-1zm-63 1h1v1h-1zm-5 3v-2h1l1 2zm-280 6h1v1h-1zm-62 3h1v1h-1zm8 0h1v1h-1zm-135 8h1v1h-1zm622 0h1v1h-1zm-626 1h1v1h-1zm-74 3h1v1h-1zm-14 1h1v1h-1zm-27 4h1v1h-1zm-130 6h1v1h-1zm4 0h1v1h-1zm-58 1h1v1h-1zm-92 5l1-1h2l1 1h3v1zm9 0h1v1h-1zm2 0h1v1h-1zm-128 1h1v1h-1zm3 1h1v1h-1zm2 0h1v1h-1zm75 1h11-2-1-1-1-5zm19 1h12-8-1zm-76 4h5-1zm196 25h1v1h-1zm-65 2v-1h2v1h-1zm160-1h1v1h-1zm-96 1h1v1h-1zm-68 3l1-1h1v1zm3 1l5-1h1 2v1l-5 1 4 2-1 1h-2-1-1-1-1-1l-1-1zm155-1h1v1h-1zm-160 2v-1h1v2h-1zm13 2v-3h1v1 2zm-1 0h1v1h-1zm42 1h1v1h-1zm41 1v-1l2 1zm-198 16h1v1h-1zm-37 8h1v1h-1zm7 0h1v1h-1zm-1 1h1v1h-1z"/>
		<path id="Path 36" fill-rule="evenodd" class="s16" d="m1219 434h1v1h-1zm-10 1h1v1h-1zm3 1v-1h2v1zm3 0v-1h3v1zm8 1h1v1h-1zm6 1h1v1h-1zm-553 4v-1l1 3zm-2 0h1v1h-1zm-11 3h1v1h-1zm-4 1h1v1h-1zm5 1v-1h2v1zm13-1h1v1h-1zm538 4h1v1h-1zm-67 2h1v1h-1zm16 0l-1 2-3-2zm-34 1h1v1h-1zm49 0l4 2-6 1zm-60 1h1v1h-1zm3 0h1v1h-1zm-6 1h1v1h-1zm-132 1h1v1h-1zm216 0h1v1h-1zm-100 1h1v1h-1zm-107 2h3-1-1zm83-1h1v1h-1zm-3 1h1v1h-1zm27 0h1v1h-1zm-142 1h1v1h-1zm37 1h1v1h-1zm71 0h1v1h-1zm142 0h1v1h-1zm-156 1h1v1h-1zm34 0h1v1h-1zm9 0h1v1h-1zm35 0h1v1h-1zm-103 2h1v1h-1zm43 0h1v1h-1zm-57 1h1v1h-1zm-99 1h1v1h-1zm78 0l3 2h-4zm-80 1h1v1h-1zm4 0h1v1h-1zm46 1v-1l2 1zm-46 1l-2-1h1 1zm2-1h1v1h-1zm2 0h1v1h-1zm40 0h1v1h-1zm15 0h1v1h-1zm106 0h1v1h-1zm-126 2h1v1h-1zm-482 2l2 1-1 1h-1zm346-1h1v1h-1zm134 0h1v1h-1zm-466 1h1v1h-1zm394 0h1v1h-1zm2 0h1v1h-1zm-408 4v-3l4 2zm343-3h1v1h-1zm103 0h1v1h-1zm-487 1h1v1h-1zm28 0h1v1h-1zm243 0h1v1h-1zm4 0h1v1h-1zm3 0h1v1h-1zm2 0h1v1h-1zm98 0h1v1h-1zm3 0h1v1h-1zm101 0h1v1h-1zm-452 1h1v1h-1zm3 1l1-1 1 2zm20 0l-2 1 1-2zm187-1h1v1h-1zm70 0h1v1h-1zm3 0h1v1h-1zm69 0h1v1h-1zm-325 1h1v1h-1zm186 0h1v1h-1zm2 1l3-1-1 2zm64-1h1v1h-1zm8 0h1v1h-1zm-274 2l2-1v1zm401-1h1v1h-1zm-402 1h1v1h-1zm232 0h1v1h-1zm-347 1h1v1h-1zm2 0h1v1h-1zm304 0h1v1h-1zm4 0h1v1h-1zm53 0h1v1h-1zm18 0h1v1h-1zm4 3l-2-3 1 1 1 1zm68-3h1v1h-1zm-73 1h1v1h-1zm-266 1h1v1h-1zm2 0h1v1h-1zm9 0h1v1h-1zm104 0h1v1h-1zm81 0h1v1h-1zm78 1v-1h2zm31-1h1v1h-1zm-318 2v-1h1l3 1zm16-1h1v1h-1zm6 4l1-4 2 3-1 1zm5-3v-1 2zm98 0l3-1v1 1h-3zm10-1h1v1h-1zm196 0h1v1h-1zm-327 1h1v1h-1zm125 1v-1h2v1h2 1v2l-5 1v-1zm9-1h1v1h-1zm15 0h1v1h-1zm6 0h1v1h-1zm173 0h1v1h-1zm-322 1h1v1h-1zm132 0h1v1h-1zm10 1l-2 1 2-2zm5-1h1v1h-1zm-133 2l1-1h2l1 2h1l-2 3v-2l-2 2-3-2zm128-1h1v1h-1zm-286 1h1v1h-1zm214 0h1v1h-1zm2 0h1v1h-1zm43 0h1v1h-1zm29 0h1v1h-1zm61 0h1v1h-1zm3 0h1v1h-1zm5 0h1v1h-1zm-286 5l4-4-1 4h-2zm7-4h1v1h-1zm59 0h1v1h-1zm125 0h1v1h-1zm-185 1h1v1h-1zm269 0h1v1h-1zm3 0h1v1h-1zm36 0h1v1h-1zm3 0h1v1h-1zm-638 1h1v1h-1zm3 0h1v1h-1zm216 0h1v1h-1zm109 2v-2h1v2zm70 2l-2-4 4 3zm132-4h1v1h-1zm75 0h1v1h-1zm32 0h1v1h-1zm-447 1h1v1h-1zm199 1v-1l2 1zm95-1h1v1h-1zm16 0h1v1h-1zm21 1l3-1-1 2zm50-1h1v1h-1zm-623 1h1v1h-1zm371 0h1v1h-1zm10 0h1v1h-1zm174 0h1v1h-1zm18 1h-2l2-1zm88-1h1v1h-1zm5 0h1v1h-1zm-226 1h1v1h-1zm133 0h1v1h-1zm-132 1h1v1h-1zm90 0h1v1h-1zm94 0h1v1h-1zm139 0h1v1h-1zm-462 1h1v1h-1zm72 0h1v1h-1zm6 1v-1h2zm36-1h1v1h-1zm205 0h1v1h-1zm242 0l2 3-5-1zm-490 1h1v1h-1zm218 0h1v1h-1zm-157 3l-1-2 2 1zm432-2h1v1h-1zm-662 1h1v1h-1zm234 1l1-1-1 4v-1zm-252 0h1v1h-1zm19 0h1v1h-1zm229 2v-2h1v1zm-230-1h1v1h-1zm232 0h1v1h-1zm101 1h1v1h-1zm-151 1h1v1h-1zm-217 2h2-1zm267-1h1v1h-1zm-245 1h1v1h-1zm289 0h1v1h-1zm-328 1h1v1h-1zm17 0h1v1h-1zm-44 1h1v1h-1zm-58 2h-2l2-1zm241-1h1v1h-1zm77 0h1v1h-1zm80 0h1v1h-1zm-389 2h-2l2-1zm311 0l-9 1 7-2zm0-1h1v1h-1zm-109 1h1v1h-1zm21 0h1v1h-1zm116 0h1v1h-1zm4 0h1v1h-1zm-375 1h1v1h-1zm50 0h1v1h-1zm190 0h1v1h-1zm133 1h1v1h-1zm-334 1h1v1h-1zm203 0h1v1h-1zm13 0h1v1h-1zm2 0h1v1h-1zm-78 2h1v1h-1zm28 0h1v1h-1zm-1 1h1v1h-1zm2 0h1v1h-1zm130 0h1v1h-1zm-275 1h1v1h-1zm108 0h1v1h-1zm36 0h1v1h-1zm-40 1h1v1h-1zm-140 1h1v1h-1zm3 1v-1l1 1zm307-1h1v1h-1zm-180 1h1v1h-1zm-139 1h1v1h-1zm8 2h1v1h-1zm21 3l1-1v1zm-25 0h1v1h-1zm2 0h1v1h-1zm8 0h1v1h-1zm4 1v-1l2 1zm33 1l-1-2 3 1zm-44-1h1v1h-1zm3 1v-1l2 1zm60-1h1v1h-1zm66 0h1v1h-1zm-161 1h1v1h-1zm31 0h1v1h-1zm219 0h1v1h-1zm-123 1h1v1h-1zm10 0h1v1h-1zm-164 1h1v1h-1zm32 2v-2l2 1zm131-2h1v1h-1zm-31 1h1v1h-1zm-23 1h1v1h-1zm50 0h1v1h-1zm-137 1h1v1h-1zm85 0h1v1h-1zm-89 1h1v1h-1zm3 0h1v1h-1zm-7 1h1v1h-1zm61 0h1v1h-1zm8 0h1v1h-1zm-93 2h1v1h-1zm72 2h1v1h-1zm-70 1h1v1h-1zm151 6h1v1h-1zm-168 2h1v1h-1zm160 1h1v1h-1zm-43 5h1v1h-1zm-25 15h1v1h-1zm437 52h1v1h-1zm-309 36h1v1h-1z"/>
		<path id="Path 37" fill-rule="evenodd" class="s17" d="m314 29h1v1h-1zm-8 1h1v1h-1zm-1 1h1v1h-1zm12 3h1v1h-1zm-241 79h1v1h-1zm430 12h1v1h-1zm-1 1h1v1h-1zm136 5h1v1h-1zm-459 35h1v1h-1zm-78 5h1v1h-1zm-63 12h1v1h-1zm805 10h1v1h-1zm-150 3h1v1h-1zm-369 15h1v1h-1zm-9 1h1v1h-1zm-67 10h1v1h-1zm268 6h1v1h-1zm-5 22l4-2 1-8 4-4-3-7 7 5v8l-6 7zm-2 0l-33 13-12-3-7-6 1-11 4-5 13-4-9 6v9l6 9zm679-5h1v1h-1zm-160 60h1v1h-1zm-928 4h1v1h-1zm651 10h1v1h-1zm460 89h1v1h-1zm33 0h1v1h-1zm-65 3v-1l2 1zm-25 0h1v1h-1zm21 0h1v1h-1zm61 0h1v1h-1zm-107 1h1v1h-1zm47 0h1v1h-1zm57 0h1v1h-1zm-86 1h1v1h-1zm65 0h1v1h-1zm-71 2h1v1h-1zm-32 1h1v1h-1zm88 0h1v1h-1zm7 0h1v1h-1zm5 0h1v1h-1zm-84 1h1v1h-1zm98 0h1v1h-1zm-108 2h1v1h-1zm-111 1h1v1h-1zm114 1v-1l2 1h-1zm-124 1h1v1h-1zm6 3h1v1h-1zm54 0h1v1h-1zm-63 1h1v1h-1zm8 0h1v1h-1zm5 0h1v1h-1zm48 0h1v1h-1zm-70 1h1v1h-1zm4 3v-3 1zm6-3h1v1h-1zm58 0h1v1h-1zm-62 3l-1-2h1 1zm3-2h1v1h-1zm60 1v-1h2zm-50 1v2l-1-2zm-147 1h1v1h-1zm2 1h1v1h-1zm1 1h1v1h-1zm-68 6h1v1h-1zm5 2v-2h2v1zm-117 4h1v1h-1zm452 2h1v1h-1zm-763 11h1v1h-1zm10 0h1v1h-1zm-26 1h1v1h-1zm4 0h1v1h-1zm-52 4h1v1h-1zm-176 8h1v1h-1zm-20 2h1v1h-1zm-107 2h1v1h-1zm668 5l1-2v1 1zm3-2h1v1h-1zm-211 3h1v1h-1zm-133 6v-1l2 1zm-2 0h1v1h-1zm6 0h1v1h-1zm1 2h1v1h-1zm-4 2h1v1h-1zm-2 1h1v1h-1zm-99 7h1v1h-1zm-3 2v-1h2v1h-1zm2 1v-1h2v1zm94-1h1v1h-1zm-162 2l2-1v1h-1zm4-1h1v1h-1zm62 0h1v1h-1zm-64 1h1v1h-1zm59 1v-1h2zm-68 0h1v1h-1zm6 1v-1h1 1v1h-1zm32 3l1-4h3v1 3l-4 1zm128-4h1v1h-1zm-165 1h1v1h-1zm7 1v-1h1 2 1 1v1l-5 1zm34-1h1v1h-1zm137 0h1v1h-1zm-163 1h1v1h-1zm-52 1h1v1h-1zm2 0h1v1h-1zm38 2v-2h3 1l-2 3v1l-1-1zm-2-1h1v1h-1zm15 2v-2h1 1v3h-1-1zm77 0v-2l2 2zm71-2h1v1h-1zm-112 6l2-5v1l-1 4zm-89-3v-1h2v1h-1zm91 1v-2h1v1 1zm43-1v-1h4v2l-2 1v-1zm-89 0h1v1h-1zm6 0h1v1h-1zm81 1l2-1v1 1h-1-1-1v-1zm8 0v-1h1l1 1v1h-1zm-11 1h1v1h-1zm-117 2h1v1h-1zm108 0h1v1h-1zm-27 1h1v1h-1zm-113 2h1v1h-1zm17 3l2-3 2 1 1 1zm-18 0v-2h1v1 1zm12-2h1v1h-1zm4 4v-2h2zm43-1h1v1h-1zm-44 3v-2h1v2zm42-2h1v1h-1zm-100 5v-1h2l1 1h-2zm-30 8v-1h3v1h-2zm4-1h1v1h-1zm-5 1h1v1h-1z"/>
		<path id="Path 38" fill-rule="evenodd" class="s18" d="m131 25l19 5 1 12-7 6-46-2-23 5-12-7v-3l7-4 32 1 13-8zm176 85l83 2 6 6v7l-9 7-16 3-81 2-5-1-5-6 1-12zm197 55l9 1 3 3-1 4 3 1-13 5h-20zm394 29h1v1h-1zm213 38h1v1h-1zm-245 71l3-1-1 2zm5-1h1v1h-1zm-3 2l-18 5-1-3 17-3zm294 106h1v1h-1zm19 3h1v1h-1zm33 0h1v1h-1zm-67 1h1v1h-1zm80 1h1v1h-1zm-151 2h1v1h-1zm13 2h-2 1zm1 0h1v1h-1zm26 1l2-1v1zm54-1h1v1h-1zm-50 1h1v1h-1zm-114 1h1v1h-1zm74 2h1v1h-1zm-106 2h1v1h-1zm15 2h1v1h-1zm2 1l2-1v1h-1zm10-1h1v1h-1zm51 0h1v1h-1zm-59 1h1v1h-1zm58 0h1v1h-1zm-176 3h1v1h-1zm347 3h1v1h-1zm-14 1h1v1h-1zm12 0h1v1h-1zm-519 1h1v1h-1zm510 0h1v1h-1zm3 0h1v1h-1zm-546 2h1v1h-1zm131 1h1v1h-1zm-124 2h1v1h-1zm-19 2h1v1h-1zm11 2l2-2v3h-2zm-4-1h1v1h-1zm17 0h1v1h-1zm-3 1h1v1h-1zm-11 1h1v1h-1zm455 2h1v1h-1zm3 2h1v1h-1zm-657 2h1v1h-1zm-119 9h1v1h-1zm-69 3h1v1h-1zm21 0h1v1h-1zm-187 9h1v1h-1zm427 2h1v1h-1zm133 2h1v1h-1zm334 1h1v1h-1zm-339 1h1v1h-1zm4 0h1v1h-1zm115 1h1v1h-1zm-326 1h1v1h-1zm211 0h1v1h-1zm-211 3h1v1h-1zm-1 1h1v1h-1zm-134 3h1v1h-1zm8 0h1v1h-1zm-36 1h1v1h-1zm37 0h1v1h-1zm-128 1h1v1h-1zm2 0h1v1h-1zm91 0h1v1h-1zm29 1h1v1h-1zm9 0h1v1h-1zm249 0h1v1h-1zm1 1h1v1h-1zm-183 2h1v1h-1zm-375 1h1v1h-1zm370 0h1v1h-1zm-78 1h1v1h-1zm-111 2h1v1h-1zm17 2l1-2v1l1 1v1h-2zm-19-1h1v1h-1zm17 3v-2 1zm4-1h1v1h-1zm-135 1h1v1h-1zm94 2l6-1v1h-3l-1 4zm26-2h1v1h-1zm2 0h1v1h-1zm-57 1h1v1h-1zm2 1l1-1h1v2h-2zm34-1h1v1h-1zm20 0h1v1h-1zm4 0h1v1h-1zm102 0h1v1h-1zm-168 1h1v1h-1zm4 2l1-2v1zm7-2h1v1h-1zm155 0h1v1h-1zm-154 1h1v1h-1zm139 0h1v1h-1zm16 0h1v1h-1zm12 0h1v1h-1zm-240 1h1v1h-1zm62 2l-3-2h2 1l1 1v1zm5-2h1v1h-1zm14 0h1v1h-1zm3 0h1v1h-1zm130 0h1v1h-1zm15 0h1v1h-1zm8 0h1v1h-1zm-228 1h1v1h-1zm16 0h1v1h-1zm3 1h1v1h-1zm70 1h-3l3-1zm-84 0h1v1h-1zm51 1l-2-1h1zm50-1h1v1h-1zm-99 1h1v1h-1zm10 0h1v1h-1zm33 0h1v1h-1zm97 2l-2-2h2 2v1zm8-2h1v1h-1zm57 0h1v1h-1zm-199 1h1v1h-1zm2 0h1v1h-1zm44 0h1v1h-1zm2 0h1v1h-1zm6 0h1v1h-1zm40 0h1v1h-1zm2 0h1v1h-1zm-105 1h1v1h-1zm12 0h1v1h-1zm44 0h1v1h-1zm85 0h1v1h-1zm15 0h1v1h-1zm-1 1h1v1h-1zm-132 1h1v1h-1zm4 0h1v1h-1zm73 0h1v1h-1zm4 0h1v1h-1zm37 0h1v1h-1zm-40 1h1v1h-1zm4 0h1v1h-1zm29 0h1v1h-1zm2 0h1v1h-1zm-130 6l1-5 3 2-2 3zm21-5h1v1h-1zm108 0h1v1h-1zm61 0h1v1h-1zm-207 1h1v1h-1zm3 1v-1h2v1zm225-1h1v1h-1zm-223 1h1v1h-1zm10 0h1v1h-1zm-13 1h1v1h-1zm10 0h1v1h-1zm12 1h1v1h-1zm34 3l2-1v1h-1zm3-1h1v1h-1zm-98 1h1v1h-1zm60 0h1v1h-1zm34 2l1-2v1zm-93 1h1v1h-1zm6 1h1v1h-1zm-13 1h1v1h-1zm-2 2h1v1h-1zm-1 2h1v1h-1zm-27 3h1v1h-1zm-10 2h1v1h-1zm10 1h1v1h-1z"/>
		<path id="Path 39" fill-rule="evenodd" class="s19" d="m1120 156l-33 6-6-2-17 2-14 6-12 10-5-11 1-22 8-7 34-10 49 3 44-6 7 8-3 8-4-1-5 5-3-2-1 3-22 7zm56-20h1v1h-1zm-26 15h1v1h-1zm-30 5h1v1h-1zm4 0h1v1h-1zm-1028 18h13l4-3 12 2 6 10-4 2 1 4-12 5-25-1-6-2-4-11zm708 81l21 2-22 6-4-2-1-5zm-629 29l8 2-4 2-5-2zm-120 12l-2 4-3-1zm1177 144h1v1h-1zm-45 4l4 2h-5zm49 0h1v1h-1zm-24 1h1v1h-1zm-142 25h1v1h-1zm2 0h1v1h-1zm-146 6h1v1h-1zm13 0l4 2h-7zm5 1l8 3h-9zm63 2h-2l2-1zm-93 0h1v1h-1zm27 0h1v1h-1zm-780 24h1v2h-1zm148 16h1v1h-1zm68 1h1v1h-1zm-250 14h1v1h-1zm1090-83h-3 1 1z"/>
		<path id="Path 40" class="s0" d="m412 375h1v1h-1zm6 0h1v1h-1z"/>
		<path id="Path 41" class="s3" d="m1005 427h1v1h-1zm-846 83h1v1h-1zm5 0h1v1h-1z"/>
		<path id="Path 42" class="s5" d="m1118 421h1v1h-1zm-112 4h1v1h-1zm-12 34h1v1h-1zm-400 23h1v1h-1zm34 1h1v1h-1zm7 0h1v1h-1zm-12 1h1v1h-1zm4 0h1v1h-1zm9 0h1v1h-1zm-532 39h1v1h-1z"/>
		<path id="Path 43" class="s7" d="m411 374h1v1h-1zm13 0h1v1h-1z"/>
		<path id="Path 44" class="s8" d="m431 376h1v1h-1z"/>
		<path id="Path 45" class="s11" d="m589 485h1v1h-1z"/>
		<path id="Path 46" class="s13" d="m753 366h1v1h-1zm-166 119h1v1h-1zm-255 8h1v1h-1zm128 4h1v1h-1zm-402 33h1v1h-1zm120 29h1v1h-1zm-16 2h1v1h-1zm16 0h1v1h-1z"/>
		<path id="Path 47" class="s14" d="m750 477h1v1h-1zm-5 3h1v1h-1zm-119 2h1v1h-1zm5 0h1v1h-1zm-143 1h1v1h-1zm103 2v-1 2zm-125 6h1v1h-1zm-108 31h1v1h-1z"/>
		<path id="Path 48" class="s15" d="m223 502h1v1h-1z"/>
		<path id="Path 49" class="s16" d="m674 446h1v1h-1zm322 14h1v1h-1zm-284 16h1v1h-1zm-33 2h1v1h-1zm-2 1h1v1h-1zm-202 4h1v1h-1zm-10 1h1v1h-1zm-1 7h1v1h-1zm-436 1h1v1h-1zm303 15h1v1h-1zm2 0h1v1h-1zm-201 9h1v1h-1zm-24 5h1v1h-1zm-23 1h1v1h-1zm2 0h1v1h-1zm66 4h1v1h-1zm4 0h1v1h-1z"/>
		<path id="Path 50" class="s17" d="m352 114h9l4 6 7 3v3l-4 3-14-2-6-4zm441 326h1v1h-1zm-456 52h1v1h-1zm-108 12h1v1h-1zm-2 1h1v1h-1zm-113 19h1v1h-1z"/>
		<path id="Path 51" class="s18" d="m329 488h1v1h-1zm-299 3h1v1h-1zm189 11h1v1h-1zm-48 6h1v1h-1zm-4 2h1v1h-1zm4 0h1v1h-1zm86 2h1v1h-1z"/>
		<path id="Path 52" class="s19" d="m1137 153h1v1h-1zm-651 332h1v1h-1z"/>
	</g>
</svg>