<svg version="1.2" xmlns="http://www.w3.org/2000/svg" viewBox="0 0 760 624" width="760" height="624">
	<style>
		.s0 { fill: #f9ff00 } 
	</style>
	<path id="Path 0" class="s0" d="m244 96.1c-7.43 0.45-17.32 1.31-22 1.91-4.68 0.61-13.9 1.76-20.5 2.55-6.6 0.8-17.85 2.38-25 3.51-7.15 1.13-16.38 2.67-20.5 3.42-4.13 0.75-9.41 1.62-11.75 1.93-2.34 0.32-4.25 1.03-4.25 1.58 0 0.55 0.7 4.49 1.55 8.75 0.86 4.26 2.45 13.6 3.55 20.75 1.09 7.15 2.65 17.95 3.45 24 0.8 6.05 2.14 16.18 2.97 22.5 0.83 6.32 1.95 18.25 2.48 26.5 0.53 8.25 0.97 20.4 0.97 27 0 6.6-0.45 16.27-1 21.5-0.54 5.23-1.94 12.43-3.09 16-1.16 3.57-3.29 8.23-4.74 10.35-1.45 2.12-3.99 4.69-5.64 5.72-1.91 1.19-4.91 1.88-8.25 1.9-3.39 0.02-7.11-0.8-10.5-2.3-2.89-1.28-7.05-3.52-9.25-4.97-2.2-1.44-6.03-4.07-8.5-5.82-2.47-1.76-7.2-4.49-10.5-6.06-3.3-1.57-9.15-3.38-13-4.02-6.04-1.01-7.89-0.93-13.5 0.6-3.58 0.98-7.85 2.71-9.5 3.86-1.65 1.14-4.37 3.46-6.04 5.16-1.67 1.69-4.76 6.01-6.86 9.58-2.11 3.57-4.91 9.65-6.22 13.5-1.32 3.85-3.29 12.06-4.39 18.25-1.18 6.7-1.99 15.7-1.99 22.25 0 6.79 0.81 15.5 2.1 22.75 1.16 6.46 3.26 14.9 4.66 18.75 1.4 3.85 3.47 8.57 4.59 10.5 1.13 1.93 3.19 5.05 4.6 6.95 1.4 1.89 3.45 4.41 4.55 5.59 1.1 1.18 3.8 3.32 6 4.75 2.2 1.43 6.92 3.14 10.5 3.81 5.14 0.95 7.86 0.94 13-0.05 3.58-0.69 8.75-2.38 11.5-3.76 2.75-1.38 9.05-5.24 14-8.59 4.95-3.35 11.36-7.12 14.25-8.39 3.36-1.48 7.14-2.3 10.5-2.28 3.69 0.02 6.26 0.69 8.66 2.25 1.87 1.22 4.21 3.35 5.19 4.72 0.98 1.38 2.93 5.88 4.34 10 1.44 4.2 3.01 11.9 3.57 17.5 0.55 5.5 0.99 15.18 0.98 21.5-0.01 6.32-0.46 18.25-0.99 26.5-0.53 8.25-1.65 20.18-2.48 26.5-0.83 6.33-2.16 16.45-2.96 22.5-0.8 6.05-2.36 16.85-3.48 24-1.12 7.15-2.72 16.49-3.56 20.75-0.83 4.26-1.53 8.09-1.53 8.5-0.01 0.41 5.5 1.76 12.25 2.99 6.74 1.23 17.88 3.14 24.76 4.24 6.87 1.09 18.12 2.68 25 3.53 6.87 0.84 15.43 1.95 19 2.47 3.57 0.52 16.62 1.47 29 2.12 16.56 0.86 26.2 0.89 36.5 0.09 9.68-0.75 16.47-1.86 22-3.6 4.4-1.38 9.57-3.67 11.5-5.09 1.93-1.42 4.49-4.48 5.7-6.79 1.22-2.32 2.23-5.56 2.26-7.21 0.03-1.65-0.84-5.7-1.93-9-1.09-3.3-4.54-9.83-7.66-14.5-3.12-4.67-6.87-10.52-8.35-13-1.47-2.48-3.65-7.76-4.85-11.75-1.19-3.99-2.17-8.49-2.18-10 0-1.51 0.97-5.68 2.18-9.25 1.71-5.11 3.37-7.69 7.75-12.05 3.07-3.05 7.83-6.81 10.58-8.36 2.75-1.54 8.15-3.9 12-5.23 3.85-1.33 11.95-3.31 18-4.4 6.83-1.22 15.36-1.97 22.5-1.96 6.75 0.01 16.05 0.8 22.5 1.92 6.05 1.05 14.15 3.05 18 4.44 3.85 1.39 9.25 3.77 12 5.29 2.75 1.52 7.51 5.25 10.58 8.3 4.38 4.36 6.04 6.94 7.75 12.05 1.21 3.57 2.18 7.74 2.18 9.25-0.01 1.51-0.99 6.01-2.2 10-1.2 3.99-3.56 9.58-5.25 12.43-1.68 2.85-5.3 8.47-8.04 12.5-2.73 4.03-6 10.13-7.25 13.57-1.25 3.44-2.26 7.71-2.24 9.5 0.02 1.79 1.16 5.27 2.53 7.75 1.37 2.48 3.94 5.5 5.71 6.72 1.78 1.22 6.6 3.36 10.73 4.77 5.47 1.86 11.42 2.86 22 3.69 11.05 0.88 19.86 0.86 37-0.05 12.37-0.67 25.65-1.66 29.5-2.21 3.85-0.55 13.75-1.88 22-2.95 8.25-1.07 20.85-2.86 28-3.98 7.15-1.12 16.95-2.81 21.77-3.76 4.83-0.95 8.76-2.18 8.74-2.73-0.02-0.55-0.92-5.27-2.01-10.5-1.09-5.23-1.98-10.74-1.99-12.25 0-1.51-0.35-2.58-0.76-2.37-0.41 0.21-0.61-0.58-0.44-1.75 0.17-1.17-0.16-4.83-0.74-8.13-0.57-3.3-1.73-11.17-2.56-17.5-0.83-6.33-2.25-16.67-3.15-23-0.9-6.32-1.57-12.96-1.5-14.75 0.08-1.79-0.2-3.07-0.61-2.85-0.41 0.22-0.9-10.02-1.09-22.75-0.18-12.73 0.15-27.88 0.75-33.65 0.59-5.77 2.12-13.65 3.41-17.5 1.28-3.85 3.42-8.5 4.76-10.33 1.33-1.83 3.77-4.17 5.42-5.22 1.93-1.22 4.87-1.9 8.25-1.92 3.54-0.02 7.12 0.81 11 2.55 3.16 1.42 9.12 4.98 13.25 7.91 4.12 2.94 10.42 6.72 14 8.41 3.58 1.68 9.2 3.59 12.5 4.24 4.64 0.91 7.47 0.9 12.5-0.04 3.58-0.66 8.3-2.36 10.5-3.77 2.2-1.4 5.52-4.19 7.38-6.19 1.86-2 4.96-6.34 6.88-9.64 1.93-3.3 4.59-9.15 5.91-13 1.33-3.85 3.29-12.18 4.36-18.5 1.14-6.65 1.96-16.14 1.95-22.5 0-6.51-0.81-15.49-1.98-22-1.08-6.05-3.17-14.37-4.65-18.5-1.47-4.12-4.12-9.98-5.88-13-1.76-3.02-4.73-7.14-6.59-9.14-1.86-2-5.18-4.77-7.38-6.16-2.2-1.39-6.7-3.09-10-3.78-4.71-0.98-7.39-0.99-12.5-0.06-3.58 0.66-9.42 2.57-13 4.26-3.58 1.68-9.88 5.46-14 8.39-4.13 2.93-10.09 6.49-13.25 7.91-3.88 1.74-7.46 2.57-11 2.55-3.34-0.02-6.34-0.71-8.25-1.9-1.65-1.03-4.19-3.6-5.64-5.72-1.45-2.12-3.58-6.78-4.74-10.35-1.15-3.57-2.55-10.77-3.09-16-0.55-5.23-1-14.9-1-21.5 0-6.6 0.44-18.75 0.97-27 0.53-8.25 1.65-20.18 2.48-26.5 0.83-6.32 2.17-16.45 2.97-22.5 0.8-6.05 2.37-16.85 3.47-24 1.11-7.15 2.7-16.82 3.53-21.5 0.84-4.67 1.42-8.54 1.29-8.6-0.13-0.05-5.41-1.05-11.74-2.23-6.33-1.17-13.52-2.4-16-2.74-2.48-0.34-8.1-1.24-12.5-2.01-4.4-0.77-13.63-2.06-20.5-2.86-6.88-0.81-15.88-1.92-20-2.46-4.13-0.54-16.05-1.51-26.5-2.15-10.92-0.68-24.95-0.89-33-0.5-7.7 0.38-16.48 1.13-19.5 1.68-3.02 0.55-7.98 1.89-11 2.99-3.02 1.11-6.99 2.99-8.82 4.19-1.83 1.21-4.41 4.33-5.75 6.94-1.34 2.61-2.44 5.99-2.45 7.5 0 1.51 0.82 5.22 1.84 8.25 1.02 3.03 3.14 7.75 4.7 10.5 1.57 2.75 4.06 6.57 5.55 8.5 1.48 1.93 4.1 5.86 5.81 8.75 1.72 2.89 4.02 8.51 5.12 12.5 1.1 3.99 2.01 8.38 2.01 9.75 0.01 1.38-0.99 5.43-2.21 9-1.71 5.01-3.49 7.78-7.76 12.11-3.08 3.11-8.31 7-11.79 8.75-3.44 1.73-8.61 4.04-11.5 5.14-2.89 1.1-10.43 2.89-16.75 3.99-6.93 1.2-16.07 2-23 2.01-7.27 0.01-15.73-0.74-23-2.04-6.32-1.14-14.43-3.12-18-4.42-3.57-1.3-8.75-3.61-11.5-5.14-2.75-1.54-7.59-5.4-10.75-8.6-4.79-4.83-6.09-6.93-7.77-12.55-1.11-3.71-2.01-7.65-2-8.75 0.01-1.1 0.92-5.26 2.02-9.25 1.1-3.99 2.75-8.49 3.67-10 0.92-1.51 4.63-7.25 8.24-12.75 3.62-5.5 7.59-12.81 8.83-16.25 1.24-3.44 2.26-7.6 2.26-9.25 0-1.65-0.84-4.69-1.87-6.75-1.03-2.06-3.51-5.21-5.5-7-2.36-2.11-6.44-4.13-11.63-5.75-4.9-1.53-12.55-2.88-19.75-3.48-6.46-0.55-16.25-0.93-21.75-0.86-5.5 0.07-16.07 0.5-23.5 0.94z"/>
</svg>