<svg version="1.2" xmlns="http://www.w3.org/2000/svg" viewBox="0 0 880 1184" width="880" height="1184">
	<style>
		.s0 { opacity: .95;fill: #c39b8e } 
		.s1 { opacity: .99;fill: #7e8546 } 
		.s2 { opacity: 1;fill: #8f5846 } 
		.s3 { opacity: 1;fill: #11161c } 
		.s4 { opacity: 1;fill: #0f0d0d } 
		.s5 { opacity: 1;fill: #381911 } 
		.s6 { opacity: 1;fill: #492c1c } 
		.s7 { opacity: 1;fill: #6c4431 } 
		.s8 { opacity: 1;fill: #553c30 } 
		.s9 { opacity: 1;fill: #4e3528 } 
		.s10 { opacity: 1;fill: #854532 } 
		.s11 { opacity: 1;fill: #f7ebd7 } 
	</style>
	<g id="Background">
		<path id="Path 0" class="s0" d="m403 486l2 4-8 3-72-5-1-4 11-6 24-1 26 3zm24 549l5-6 4 4-2 3 2 2z"/>
		<path id="Path 1" class="s1" d="m279 888h1v1h-1z"/>
		<path id="Path 2" class="s2" d="m324 469l2-14 10-4 27 5h45l5 7 14 7 20 24 12 35 3 29v8l6 6-1 11-11 19-24 2-10-16v-11l-10-5v-14l8-11v-17l6-12 1-16-7-16-11-9-16-8-17-4-30-1zm-27 0l11-1 4 7-11 15-3 14 3 12 9 9v21l10 10v13l8 9-2 20-23 10-11 1-6-9-2-40-11-3-1-18-7-4-3-7v-4l6-16 6-2 10-20zm71 211v6l-8 10h-13l-8-14v-8l8-6h9 9zm204 93l25-29 19-12 13-3 7 5v14l-16 16h-4-9l-11 10-14 14-10 16-9-1z"/>
		<path id="Path 3" class="s3" d="m626 392l2-12h8l-2 12zm-64 24l2-12h8l-2 12zm-246 518l1-8h8l-3 10zm137 50l1-8 7 2-1 6z"/>
		<path id="Path 4" fill-rule="evenodd" class="s4" d="m198 410l4-56-10-8-12 27-11 13-14 7-12-2-6-10-9-40-2-29 11-16 25-19 23-23 32-40 14-10 19-8h18l13 4 19 13 58-14 57-2 49 15 31 15 15-8 23 2 11 11 41 13 30 25 12 19 8 21 2 26v21l-1 23h-8l2-14-2-50-15-35-15-17-23-15-23-8-26-1-3-1 1-12-15 1-10 8h-6l-29-15-52-16-58 3-48 13h-8l-13-11-12-3-3-3-16-1-15 5-7 6-14 10-32 42-50 43-2 19 10 48 8 7 8-1 11-10 19-43 6 1 3 6h13l-6 74zm59-158l-5-4h-22l-1-6 4-6h31v16zm307 152v-16h8l2 4-2 12zm-24 80l7-7 6-14 9-47h8l-8 48-10 22 6 17 35 28 49 54 27 41 20 51 76-56 13-3 4 6-6 18-13 17-65 68 1 51-11 50-26 45-20 15v10l-7 10-5-2v-7l-6-4 1-8 13-5 11-13 15-13 8-14 16-45v-85l-15-58-16-31-27-39-25-26h-3l-8-14-22-20-17-4-3-11-12-9zm-341-49l7-2 4 19 6 5v10l6 6v7l-6 3-12-22zm125 34l22-5 30 1 17 4 16 8 11 9 7 16-1 16-6 12-14 9-1 16-6 6-13 5-2-5 9-5 3-6-19-11v-17l9-9 12-1 5 3 4 9h5l8-11-3-19-13-11-18-9-26 1h-33l-11 6-8 11 1 20 13-6h12l10 9v17l-5 5-21 5 5 8 11 7v5l-14-6-10-10v-21l-9-9-3-12 3-14 11-15zm-71 58v-3h9v4l-3 12-8-1v-5l-10 6-1-2 12-6zm217 31v-18h4l4 7 6 7v11l-7 3-3 16-7-1 1-11zm-239 94l4-40 13-54h10l2 22 6 16 15 12 11 1 11-1 23-10 24-7 2-20-12-5 2-4 16-1 2 4 6 1v5l-8 2-1 7v13l6 1 50 26h25l17-12 6 3-6 8-14 8-27 1-10 6-24 6h-36l-25-8-27-15-12-1-17-12h-14l-6 12-4 36zm36 124l-15-23-12-26-7-23-2-20h8l8 38 8 12v6l19 32-2 4zm299-12l18-20 23-18 24-4 1 4-3 3-13 3-19 12-25 29-6-3zm-279 38l11-2 23 21-3 7-18 1-1 15-5 36-8 20-18-1-10 8v4l17-2 1 4-20 16-10 16h19l11-15h7l-8 13v5h25l16-14 6 2-2 7-8 7-27 10h-16l-5-5-29-3 8-37 16-20 10-3 9-1 1-2 1-1 6-8 4-28zm173 132l5-6 37-99 14-28 4 1v23h-4l-5 6-7 17-1 16-3 1-2 19-9 1-12 29-13 59-5-5zm-132-50l5-5 3-40 6-2 17 11 13 2 2 5 21 9h27l3-6 6-1-2 39-7 32-12 24-2 23-24 25-1 13 7-1 11-12 7-2-10 24v15l23-6 7-10 1-11h6l3 15 6 7h5l4-9v-39h7l2 35-4 14-7 11-7-1-8-10-4-4-5 6-10 7-23 7-4-13 1-16-13 6-6-1 1-16 6-15 24-26v-18l10-18 7-28 2-24-28-8-29-12h-8l-13 6-4 8 2 26-2 2-6 20-9 4h-8l1-7 10-7zm208-15l8-1 4-6 10 1 8 18 16 13v10l-12 9-1 5h-6l-7 7v13l-4 8-6 10 1 10h6l7-12 8-1-3 7 1 8h11l9-8 10-19 5 3-10 22-9 8-22 10-6-5-19 5-1-9h-5l-3-10-4-2 3-21 14-20 36-22-14-12-7-14-16 3z"/>
		<path id="Path 5" class="s5" d="m192 302l7-28 12-26 5-8 13-10 4 6-4 6 1 6h22l5 4v8l-27 36-13 24-5 16h-13l-3-6-6-1zm372 86l-4-55-10-15-10-32-10-6-2-24h35l23 14 9 2 3 8 13 15 8 25v74l6 3 1-5h8l-4 19-3 6-7 4-12-3-7-8-9-34-7 8-9 3-2 5-2-4zm-365 47l-1-25h8v23zm23 38l10-1 16 6 4 21 3 3h11l2 6-6 16h-9v3l-2 1-2-6-17-16-16-23 6-3zm278 31h11l19-20h10v16l12 9 3 11 17 4 22 20 8 14-29 2-3 28h-11v-34l-16-2-7 8h-4l-6-4h-13l-3 4h-13l-3 6-10-1v-11l-6-7 17-24 5-10zm-252 54l3-19 8 1-1 18zm208 44l11-19 7 1 1 15-9 11-5 1-6-3zm-209 6l2-4h14l17 12v16l-12 8-9-7-4-21zm97 50v-18h36v7l-4 2v11l-11 8h-9l-2-10zm-113 26v-32h8l1 12-1 20zm285 117l2-22 15-15h33v6l6 3-9 30-3 2v21l3 2 1 8 1 15 15 13 12 4h28v11l4 2 1 6-1 8 6 4v7l5 2-34 36-5-3-2-11-7-4h-10l-8-8 1-5 12-9v-10l-16-13-8-18-10-1-2-10-10-8v-9l-16-10v-23zm-249-25h5l2-4h18l17 22 35 18v11l-4 2 2 12-6 2-3 40-5 5-7-5-1-14-8-19-13-2 1-15 18-1 3-7-23-21-11 2zm105 74l4-4v-14l16-16h24l12 5 3 36-6 1-3 6h-27l-21-9zm126 34l2-19 3-1h21l4 4 8 1 2 8zm-44 92v-7l5-1 5 5-3 5z"/>
		<path id="Path 6" class="s6" d="m229 230l7-6h30l-2 12h-31zm-13 227l9-1 7 8v8l-10 1-6-6zm268 108l10 1 3-6h13l3-4h13l6 4v10l-33 45-88 87-6 4h-12l-5-6-2-14-7-6h-11l-3-12 11-8v-11l4-2v-7l24-6 10-6 27-1 14-8 6-8 5-1 9-11-1-15 3-16zm86 23v16l-4 10-10-2 3-24zm-302 52l12-8v-16l12 1v19l8 9-1 10-5 9v10l-22 2zm79 28l-3-2v-8h10l2 10zm-92 66l13-2 20 31 4 1v8h-18l-19-32zm97 78l4 4h12l4-4 1-8h23l20 4v8h-24l-16 16v14l-4 4-13-2-17-11-2-12 4-2v-11zm151 52l1-16 7-17 5-6h4l16 10v9l10 8 2 10-4 6-8 1-8-1-4-4zm-163 38l2-2-2-26 4-8 13-6h8l29 12-28 21zm280-34l1-4 19-4 9 9-11 13-13 5-1-6-4-2z"/>
		<path id="Path 7" class="s7" d="m186 266l32-42 14-10 4 3v7l-7 6-13 10-5 8-12 26-7 28-7-1 3-19zm342-10l-2-16 26 1 23 8 23 15 15 17 15 35 2 50-2 14-2 12-1 5-6-3v-74l-8-25-13-15-3-8-9-2-23-14zm-269 284l3-12 3 7 7 4 1 18 11 3 2 40 6 9-11-1-15-12-6-16-2-22zm127 26l13-5 6-6 1-16 14-9v17l-8 11v14l10 5v11l10 16 24-2-1 6-17 12h-25l-50-26 1-7 4-3v-12h16zm82 6l-6-6v-8h8zm95 231l9 1 10-16 14-14 11-10h9v9l-36 37-6 18h-11l-3-2v-21zm-211 9v-9l-8-5v-22h27l33 19 12 1 4 3v7l-4 2-20-4h-23l-1 8-4 4h-12zm-58 68l27-1 7 5v28l-10 7-1 7-1 8-16 14h-25v-5l8-13h-7l-11 15h-19l10-16 20-16-1-4-17 2v-4l10-8 18 1zm159 104v39l-4 9h-5l-6-7-3-15h-6l-1 11-7 10-23 6v-15l10-24-7 2-11 12-7 1 1-13 24-25 2-23 12-24h8l3 4 27 2-1 34-5 1v7zm107-30l-7 12h-6l-1-10 6-10 8 2z"/>
		<path id="Path 8" class="s8" d="m232 214l7-6 15-5 16 1 3 3v12l-7 5h-30v-7zm65 255l-6-6v-7l5-15 6-6 24-16 20-1 2 3-1 9-11 12v9l-10 4-2 14-12 6-4-7zm111-41l1-4h13l18 16 13 20 21 1 7 19 10 5 2 11 7 8v9l-5 10-17 24-4-7h-4v18h-8l-3-29-12-35-20-24-14-7-5-7zm-48 47l26-1 18 9-1 3-18-6-26-3zm-34 123l2-20-8-9v-13l14 6 6 4 12 5-2 20zm37-4l-6-1v-13l1-7 8-2 2 1v12l-4 3zm-124 58l4-36 4-8 8 4 4 21 9 7 4 36-4 8h-9l-6-19-13-1zm53 120v-8h30l10 12h12v22l8 5v9h-8l-35-18zm272 64l-1-8h11l-2 8z"/>
		<path id="Path 9" fill-rule="evenodd" class="s9" d="m273 207l12 3 13 11h8l48-13 58-3 52 16 29 15h6l10-8 15-1-1 12 3 1 2 16 2 24 10 6 10 32 10 15 4 55v16l-2 12-9 47-6 14-7 7h-10l-19 20h-11l-7-8-2-11-10-5-7-19-21-1-13-20-18-16h-13l-1 4h-4l-3-7-7-1-4-5-13-3h-12l-10 9h-7l-2-3-20 1-24 16-6 6-5 15v7l6 6-13 17-10 20-6 2-2-6h-11l-3-3-4-21-16-6v-8l-7-8-9 1-6-5-4-19v-23l6-74 5-16 13-24 27-36v-8h7v-16l2-12 7-5zm-83 122l-19 43-11 10-8 1-8-7-10-48 2-19 50-43 2 16-3 19 7 1zm144 233v-5l-11-7-5-8 21-5 5-5v-17l-10-9h-12l-13 6-1-20 8-11 11-6h33l-1 2-24 1-11 6 1 4 72 5 8-3-2-4 1-3 13 11 3 19-8 11h-5l-4-9-5-3-12 1-9 9v17l19 11-3 6-9 5 2 5-2 6h-16l-2-1v-5l-6-1-2-4-16 1-2 4zm198-2h4l7-8 16 2v34l-3 24 10 2 4-10v-16l3-28 29-2h3l25 26 27 39 16 31 15 58v85l-16 45-8 14-15 13-9-9-19 4-1 4h-28l-12-4-15-13-1-15h8l2-8 6-18 36-37v-9h4l16-16v-14l-7-5 3-3-1-4-24 4-23 18-18 20h-33l-15 15-2 22-14 28-37 99-5 6-27-2-3-4h-8l7-32 2-39-3-36-12-5v-8l4-2v-7l-4-3-12-1-33-19h-39l-10-12h-30l-4-1-20-31-13 2-8-12-8-38 1-20 13 1 6 19h9l4-8 22-2v-10l5-9 1-10-8-9v-19l27 15 25 8v26l3 2-8 6v8l8 14h13l8-10v-6h11l7 6 2 14 5 6h12l6-4 88-87 33-45zm-238 320l5-36 13 2 8 19 1 14zm258 66l4-8v-13l7-7h6l8 8h10l7 4 2 11-10 19-9 8h-11l-1-8 3-7-8 1v-6z"/>
		<path id="Path 10" class="s10" d="m348 421h7l10-9h12l13 3 4 5 7 1 3 7h4v28h-45l-27-5v-9l11-12z"/>
		<path id="Path 11" class="s0" d="m275 317l12-1 12 4 16 15 6 11 1 11-2-5-1-3-6-9-4-7-11-6-20 2-22-2zm188 31l12-9 19-3 5 2-9 3v3l-16-1z"/>
		<path id="Path 12" class="s2" d="m308 303l-11-7-1-15 32-1 4 3v21l-4 4h-8zm260-12l19 5v16l-3 4h-7l-19-14v-5zm-113 1h22l7 5v9l-3 3-31 7-2-18zm44 65l4-6 7 9h-9zm-219 40l-10-4-10-11-4-18h12l5 14 8 6zm27-18l5-8 9 6-2 7-4 2-6-1zm141 17l1-10h7l5 10-8 7zm25 7l10 1 10-4 14 3-14 12-21 1zm-147 223v-8l32 4 4 10h-14z"/>
		<path id="Path 13" fill-rule="evenodd" class="s11" d="m303 402l-8 3h-20l-16-6-11-10-8-17v-18l7-18 9-9 22 2-15 14-6 11-1 10 4 18 10 11 10 4h22l13-11 4-2-6 14zm187-58v-3l9-3 18 8 16 24v23l-11 19-23 14h-23l-13-5-14-11-1-14 5 7 6 8 13 5 21-1 14-12 8-17v-13l-5-13-7-9zm-189-3l9 1 4 7-2 5-5 3-8-2-2-8zm184 16l6-3 8 3 2 3-2 9-4 3-9-1-3-4z"/>
		<path id="Path 14" class="s4" d="m275 317l-1-5 4-3h23l-2 11-12-4zm-5 33l15-13h13l3 4-4 6 2 8 8 2 5-3h2l-2 17-5 8-9 6-17-1-8-6-5-14zm186 36v-14l4-9 8-7 17 1-2 10 3 4 9 1 4-3 3 1v16l-9 14-10 4-10-1-12-7z"/>
		<path id="Path 15" class="s5" d="m301 309l7-6 12 5 2 22-7 5-16-15zm151 39l2-14 9-7 25-3 8 6-2 6-19 3-12 9zm-149 54l10-4-1 8h-8z"/>
		<path id="Path 16" class="s6" d="m278 329l20-2 11 6 4 7-3 2-9-1-3-4h-13l-15 13-6-1-1-6zm185 19l11-5 16 1 1 10-6 3-17-1-8 7-4 9v14h-7l-5-6v-27l8-5z"/>
		<path id="Path 17" class="s7" d="m325 236h32l6 4h17l7 12h39l17-6 13 2v10l-12 10h-13l-15 16h-11l-9 12h-9l-9-23-17-1-7-12h-19l-10-7zm166 118l-1-10 13 7-4 6zm8 15l2-9h9l5 13v13l-8 17-14-3 9-14v-16zm22 239l13 1 2 13-10 21v14l-6 10-40 42-29 23-6 4h-12l-3-4v-7l3-3 23-14-4-23 46-43zm-195 18l-18-9v-3l12-5 6 9zm36 6l-4-10 10 2v8z"/>
		<path id="Path 18" class="s8" d="m312 354l2-5h5l1 3-6 2zm8 255l21-9 23 1 40 22v3l-7 3-29 3v-8l-10-2-32-4z"/>
		<path id="Path 19" class="s9" d="m743 647h7v13l-38 40h-15l-5-7v-8l4-4z"/>
		<path id="Path 20" class="s10" d="m310 342l3-2 6 9h-5zm-54 22l1-10 6-11 1 6 6 1-2 14zm25 20l17 1 9-6 2 6 6 1-13 11h-22zm172 19l8-7 12 7-1 13-13-5z"/>
	</g>
</svg>